SplineFontDB: 3.0
FontName: IranianSans-Regular
FullName: Iranian Sans Regular
FamilyName: Iranian Sans 
Weight: Regular
Copyright: Copyright (c) 2014, font-store.ir <http://font-store.ir|info@font-store.ir>,with Reserved Font Name Iranian Sans .\n\nThis Font Software is licensed under the SIL Open Font License, Version 1.1.\nThis license is copied below, and is also available with a FAQ at:\nhttp://scripts.sil.org/OFL
Version: 5.0.0 build 1/7/1393
ItalicAngle: 0
UnderlinePosition: -100
UnderlineWidth: 100
Ascent: 1556
Descent: 492
InvalidEm: 0
sfntRevision: 0x00010000
LayerCount: 2
Layer: 0 1 "Back" 1
Layer: 1 1 "Fore" 0
XUID: [1021 107 -802105209 1359]
FSType: 0
OS2Version: 4
OS2_WeightWidthSlopeOnly: 0
OS2_UseTypoMetrics: 1
CreationTime: 1159092060
ModificationTime: 1430003875
PfmFamily: 81
TTFWeight: 400
TTFWidth: 5
LineGap: 0
VLineGap: 0
Panose: 2 0 5 3 0 0 0 0 0 0
OS2TypoAscent: 1556
OS2TypoAOffset: 0
OS2TypoDescent: -492
OS2TypoDOffset: 0
OS2TypoLinegap: 0
OS2WinAscent: 1901
OS2WinAOffset: 0
OS2WinDescent: 483
OS2WinDOffset: 0
HheadAscent: 1901
HheadAOffset: 0
HheadDescent: -483
HheadDOffset: 0
OS2SubXSize: 1331
OS2SubYSize: 1433
OS2SubXOff: -212
OS2SubYOff: 286
OS2SupXSize: 1331
OS2SupYSize: 1433
OS2SupXOff: 730
OS2SupYOff: 983
OS2StrikeYSize: 102
OS2StrikeYPos: 530
OS2Vendor: 'RITA'
OS2CodePages: 00000040.20080000
OS2UnicodeRanges: 80002003.80002042.00000008.00000000
Lookup: 4 1 0 "'ccmp' Glyph Composition/Decomposition in Arabic lookup 0" { "'ccmp' Glyph Composition/Decomposition in Arabic lookup 0 subtable"  } ['ccmp' ('arab' <'ARA ' 'dflt' > ) ]
Lookup: 4 1 1 "'rlig' Required Ligatures in Arabic lookup 1" { "'rlig' Required Ligatures in Arabic lookup 1 subtable"  } ['rlig' ('arab' <'dflt' > ) ]
Lookup: 4 9 1 "'rlig' Required Ligatures in Arabic lookup 2" { "'rlig' Required Ligatures in Arabic lookup 2 subtable"  } ['rlig' ('arab' <'ARA ' 'dflt' > ) ]

StartChar: .notdef
Encoding: 65536 -1 0
Width: 959
VWidth: 1524
GlyphClass: 2
Flags: MW
LayerCount: 2
Back
Fore
SplineSet
80 -357 m 1,0,-1
 80 1054 l 1,1,-1
 880 1054 l 1,2,-1
 880 -357 l 1,3,-1
 80 -357 l 1,0,-1
791 963 m 1,4,-1
 170 963 l 1,5,-1
 170 -269 l 1,6,-1
 791 -269 l 1,7,-1
 791 963 l 1,4,-1
EndSplineSet
Validated: 1
EndChar

StartChar: exclam
Encoding: 33 33 4
Width: 640
VWidth: 1524
GlyphClass: 2
Flags: MW
LayerCount: 2
Back
Fore
SplineSet
401 -75 m 1,0,-1
 242 -75 l 1,1,-1
 242 123 l 1,2,-1
 401 123 l 1,3,-1
 401 -75 l 1,0,-1
386 301 m 1,4,-1
 258 301 l 1,5,-1
 242 580 l 1,6,-1
 242 1092 l 1,7,-1
 401 1092 l 1,8,-1
 401 580 l 1,9,-1
 386 301 l 1,4,-1
EndSplineSet
Validated: 1
Substitution2: "'calt' Contextual Alternates in Arabic lookup 9 subtable" exclam.fa
EndChar

StartChar: uni0022
Encoding: 34 34 5
Width: 734
VWidth: 1524
GlyphClass: 2
Flags: MW
LayerCount: 2
Back
Fore
SplineSet
287 659 m 1,0,-1
 155 659 l 1,1,-1
 155 1092 l 1,2,-1
 287 1092 l 1,3,-1
 287 659 l 1,0,-1
583 659 m 1,4,-1
 449 659 l 1,5,-1
 449 1092 l 1,6,-1
 583 1092 l 1,7,-1
 583 659 l 1,4,-1
EndSplineSet
Validated: 1
EndChar

StartChar: uni0023
Encoding: 35 35 6
Width: 1340
VWidth: 1524
GlyphClass: 2
Flags: MW
LayerCount: 2
Back
Fore
SplineSet
755 369 m 1,0,-1
 819 630 l 1,1,-1
 591 630 l 1,2,-1
 525 369 l 1,3,-1
 755 369 l 1,0,-1
1129 249 m 1,4,-1
 850 249 l 1,5,-1
 769 -75 l 1,6,-1
 644 -75 l 1,7,-1
 724 249 l 1,8,-1
 494 249 l 1,9,-1
 415 -75 l 1,10,-1
 288 -75 l 1,11,-1
 371 249 l 1,12,-1
 123 249 l 1,13,-1
 123 369 l 1,14,-1
 398 369 l 1,15,-1
 465 630 l 1,16,-1
 212 630 l 1,17,-1
 212 750 l 1,18,-1
 494 750 l 1,19,-1
 574 1074 l 1,20,-1
 702 1074 l 1,21,-1
 619 750 l 1,22,-1
 849 750 l 1,23,-1
 930 1074 l 1,24,-1
 1055 1074 l 1,25,-1
 975 750 l 1,26,-1
 1219 750 l 1,27,-1
 1219 630 l 1,28,-1
 945 630 l 1,29,-1
 880 369 l 1,30,-1
 1129 369 l 1,31,-1
 1129 249 l 1,4,-1
EndSplineSet
Validated: 1
EndChar

StartChar: uni0024
Encoding: 36 36 7
Width: 1017
VWidth: 1524
GlyphClass: 2
Flags: MW
LayerCount: 2
Back
Fore
SplineSet
540 961 m 1,0,1
 687 953 687 953 814 912 c 1,2,-1
 814 775 l 1,3,4
 688 840 688 840 540 848 c 1,5,-1
 540 513 l 1,6,7
 718 486 718 486 801.5 415.5 c 128,-1,8
 885 345 885 345 885 218 c 128,-1,9
 885 91 885 91 796.5 15 c 128,-1,10
 708 -61 708 -61 540 -74 c 1,11,-1
 540 -310 l 1,12,-1
 463 -310 l 1,13,-1
 462 -75 l 1,14,15
 292 -71 292 -71 133 -4 c 1,16,-1
 133 137 l 1,17,18
 291 38 291 38 463 36 c 1,19,-1
 463 392 l 1,20,21
 290 419 290 419 211.5 487 c 128,-1,22
 133 555 133 555 133 677.5 c 128,-1,23
 133 800 133 800 218 873 c 128,-1,24
 303 946 303 946 463 958 c 1,25,-1
 463 1141 l 1,26,-1
 540 1141 l 1,27,-1
 540 961 l 1,0,1
463 848 m 1,28,29
 276 827 276 827 276 684 c 0,30,31
 276 617 276 617 321 580 c 128,-1,32
 366 543 366 543 463 527 c 1,33,-1
 463 848 l 1,28,29
540 39 m 1,34,35
 741 63 741 63 741 208 c 0,36,37
 741 277 741 277 693.5 317 c 128,-1,38
 646 357 646 357 540 376 c 1,39,-1
 540 39 l 1,34,35
EndSplineSet
Validated: 1
EndChar

StartChar: uni0025
Encoding: 37 37 8
Width: 1519
VWidth: 1524
GlyphClass: 2
Flags: MW
LayerCount: 2
Back
Fore
SplineSet
1057.5 60 m 128,-1,1
 1096 2 1096 2 1163 2 c 128,-1,2
 1230 2 1230 2 1269 60 c 128,-1,3
 1308 118 1308 118 1308 220 c 128,-1,4
 1308 322 1308 322 1269.5 380.5 c 128,-1,5
 1231 439 1231 439 1163.5 439 c 128,-1,6
 1096 439 1096 439 1057.5 380.5 c 128,-1,7
 1019 322 1019 322 1019 220 c 128,-1,0
 1019 118 1019 118 1057.5 60 c 128,-1,1
1359.5 452.5 m 128,-1,9
 1432 367 1432 367 1432 219.5 c 128,-1,10
 1432 72 1432 72 1359 -13 c 0,11,12
 1286 -98 1286 -98 1162 -98 c 2,13,-1
 1161 -98 l 2,14,15
 1038 -98 1038 -98 966 -12 c 128,-1,16
 894 74 894 74 894 221 c 128,-1,17
 894 368 894 368 967.5 453 c 128,-1,18
 1041 538 1041 538 1164 538 c 128,-1,8
 1287 538 1287 538 1359.5 452.5 c 128,-1,9
356 577 m 256,19,20
 424 577 424 577 463 635 c 128,-1,21
 502 693 502 693 502 795 c 128,-1,22
 502 897 502 897 463.5 955.5 c 128,-1,23
 425 1014 425 1014 356 1014 c 256,24,25
 289 1014 289 1014 250.5 956 c 128,-1,26
 212 898 212 898 212 795.5 c 128,-1,27
 212 693 212 693 250 635 c 128,-1,28
 288 577 288 577 356 577 c 256,19,20
459 -98 m 1,29,-1
 334 -98 l 1,30,-1
 1064 1114 l 1,31,-1
 1188 1114 l 1,32,-1
 459 -98 l 1,29,-1
629 796 m 128,-1,34
 629 649 629 649 555.5 564 c 128,-1,35
 482 479 482 479 356 477 c 256,36,37
 232 477 232 477 160 563 c 128,-1,38
 88 649 88 649 88 795.5 c 128,-1,39
 88 942 88 942 160.5 1028 c 128,-1,40
 233 1114 233 1114 356 1114 c 256,41,42
 479 1114 479 1114 554 1028.5 c 128,-1,33
 629 943 629 943 629 796 c 128,-1,34
EndSplineSet
Validated: 1
EndChar

StartChar: uni0026
Encoding: 38 38 9
Width: 1247
VWidth: 1524
GlyphClass: 2
Flags: MW
LayerCount: 2
Back
Fore
SplineSet
1144 551 m 1,0,1
 1123 338 1123 338 980 148 c 1,2,-1
 1199 -75 l 1,3,-1
 1002 -75 l 1,4,-1
 891 40 l 1,5,6
 728 -96 728 -96 534 -97 c 1,7,-1
 531 -97 l 1,8,9
 338 -96 338 -96 219.5 10.5 c 128,-1,10
 101 117 101 117 101 283 c 0,11,12
 101 485 101 485 310 638 c 1,13,14
 233 737 233 737 233 848 c 128,-1,15
 233 959 233 959 320 1036.5 c 128,-1,16
 407 1114 407 1114 541.5 1114 c 128,-1,17
 676 1114 676 1114 812 1057 c 1,18,-1
 812 915 l 1,19,20
 672 991 672 991 578 991 c 128,-1,21
 484 991 484 991 433.5 946.5 c 128,-1,22
 383 902 383 902 383 848 c 128,-1,23
 383 794 383 794 405.5 754 c 128,-1,24
 428 714 428 714 500 640 c 2,25,-1
 898 233 l 1,26,27
 994 379 994 379 998 551 c 1,28,-1
 1144 551 l 1,0,1
390 553 m 1,29,30
 252 431 252 431 252 306 c 128,-1,31
 252 181 252 181 335 104.5 c 128,-1,32
 418 28 418 28 554 28 c 128,-1,33
 690 28 690 28 804 129 c 1,34,-1
 390 553 l 1,29,30
EndSplineSet
Validated: 1
EndChar

StartChar: uni0027
Encoding: 39 39 10
Width: 437
VWidth: 1524
GlyphClass: 2
Flags: MW
LayerCount: 2
Back
Fore
SplineSet
155 660 m 1,0,-1
 155 1092 l 1,1,-1
 287 1092 l 1,2,-1
 287 660 l 1,3,-1
 155 660 l 1,0,-1
EndSplineSet
Validated: 1
EndChar

StartChar: parenleft
Encoding: 40 40 11
Width: 623
VWidth: 1524
GlyphClass: 2
Flags: MW
LayerCount: 2
Back
Fore
SplineSet
289 428 m 256,0,1
 289 68 289 68 496 -286 c 1,2,-1
 372 -286 l 1,3,4
 137 82 137 82 137 429.5 c 128,-1,5
 137 777 137 777 372 1140 c 1,6,-1
 496 1140 l 1,7,8
 289 785 289 785 289 428 c 256,0,1
EndSplineSet
Validated: 1
EndChar

StartChar: parenright
Encoding: 41 41 12
Width: 623
VWidth: 1524
GlyphClass: 2
Flags: MW
LayerCount: 2
Back
Fore
SplineSet
253 1140 m 1,0,1
 487 772 487 772 487 424 c 128,-1,2
 487 76 487 76 253 -286 c 1,3,-1
 129 -286 l 1,4,5
 336 72 336 72 336 428 c 256,6,7
 336 782 336 782 129 1140 c 1,8,-1
 253 1140 l 1,0,1
EndSplineSet
Validated: 1
EndChar

StartChar: asterisk
Encoding: 42 42 13
Width: 798
VWidth: 1524
GlyphClass: 2
Flags: MW
LayerCount: 2
Back
Fore
SplineSet
708 519 m 1,0,-1
 445 679 l 1,1,-1
 445 384 l 1,2,-1
 355 384 l 1,3,-1
 355 679 l 1,4,-1
 93 519 l 1,5,-1
 47 596 l 1,6,-1
 328 749 l 1,7,-1
 47 900 l 1,8,-1
 93 978 l 1,9,-1
 355 819 l 1,10,-1
 355 1114 l 1,11,-1
 445 1114 l 1,12,-1
 445 819 l 1,13,-1
 708 978 l 1,14,-1
 754 900 l 1,15,-1
 472 749 l 1,16,-1
 754 596 l 1,17,-1
 708 519 l 1,0,-1
EndSplineSet
Validated: 1
EndChar

StartChar: plus
Encoding: 43 43 14
Width: 1340
VWidth: 1524
GlyphClass: 2
Flags: MW
LayerCount: 2
Back
Fore
SplineSet
1172 360 m 1,0,-1
 737 360 l 1,1,-1
 737 -75 l 1,2,-1
 605 -75 l 1,3,-1
 605 360 l 1,4,-1
 170 360 l 1,5,-1
 170 493 l 1,6,-1
 605 493 l 1,7,-1
 605 929 l 1,8,-1
 737 929 l 1,9,-1
 737 493 l 1,10,-1
 1172 493 l 1,11,-1
 1172 360 l 1,0,-1
EndSplineSet
Validated: 1
EndChar

StartChar: uni002C
Encoding: 44 44 15
Width: 507
VWidth: 1524
GlyphClass: 2
Flags: MW
LayerCount: 2
Back
Fore
SplineSet
225 -261 m 1,0,-1
 123 -261 l 1,1,-1
 188 -10 l 1,2,-1
 188 123 l 1,3,-1
 353 123 l 1,4,-1
 353 -10 l 1,5,-1
 225 -261 l 1,0,-1
EndSplineSet
Validated: 1
EndChar

StartChar: hyphen_minus
Encoding: 45 45 16
Width: 576
VWidth: 1524
GlyphClass: 2
Flags: MW
LayerCount: 2
Back
Fore
SplineSet
500 300 m 1,0,-1
 79 300 l 1,1,-1
 79 428 l 1,2,-1
 500 428 l 1,3,-1
 500 300 l 1,0,-1
EndSplineSet
Validated: 1
EndChar

StartChar: period
Encoding: 46 46 17
Width: 507
VWidth: 1524
GlyphClass: 2
Flags: MW
LayerCount: 2
Back
Fore
SplineSet
337 -75 m 1,0,-1
 172 -75 l 1,1,-1
 172 123 l 1,2,-1
 337 123 l 1,3,-1
 337 -75 l 1,0,-1
EndSplineSet
Validated: 1
Substitution2: "'calt' Contextual Alternates in Arabic lookup 9 subtable" period.fa
EndChar

StartChar: slash
Encoding: 47 47 18
Width: 537
VWidth: 1524
GlyphClass: 2
Flags: MW
LayerCount: 2
Back
Fore
SplineSet
133 -224 m 1,0,-1
 0 -224 l 1,1,-1
 407 1092 l 1,2,-1
 540 1092 l 1,3,-1
 133 -224 l 1,0,-1
EndSplineSet
Validated: 1
EndChar

StartChar: colon
Encoding: 58 58 19
Width: 537
VWidth: 1524
GlyphClass: 2
Flags: MW
LayerCount: 2
Back
Fore
SplineSet
353 -75 m 1,0,-1
 188 -75 l 1,1,-1
 188 123 l 1,2,-1
 353 123 l 1,3,-1
 353 -75 l 1,0,-1
353 555 m 1,4,-1
 188 555 l 1,5,-1
 188 754 l 1,6,-1
 353 754 l 1,7,-1
 353 555 l 1,4,-1
EndSplineSet
Validated: 1
Substitution2: "'calt' Contextual Alternates in Arabic lookup 9 subtable" colon.fa
EndChar

StartChar: uni003B
Encoding: 59 59 20
Width: 537
VWidth: 1524
GlyphClass: 2
Flags: MW
LayerCount: 2
Back
Fore
SplineSet
353 555 m 1,0,-1
 188 555 l 1,1,-1
 188 754 l 1,2,-1
 353 754 l 1,3,-1
 353 555 l 1,0,-1
225 -261 m 1,4,-1
 123 -261 l 1,5,-1
 188 -10 l 1,6,-1
 188 123 l 1,7,-1
 353 123 l 1,8,-1
 353 -10 l 1,9,-1
 225 -261 l 1,4,-1
EndSplineSet
Validated: 1
EndChar

StartChar: uni003C
Encoding: 60 60 21
Width: 1340
VWidth: 1524
GlyphClass: 2
Flags: MW
LayerCount: 2
Back
Fore
SplineSet
1172 -2 m 1,0,-1
 170 362 l 1,1,-1
 170 492 l 1,2,-1
 1172 855 l 1,3,-1
 1172 713 l 1,4,-1
 366 426 l 1,5,-1
 1172 140 l 1,6,-1
 1172 -2 l 1,0,-1
EndSplineSet
Validated: 1
EndChar

StartChar: equal
Encoding: 61 61 22
Width: 1340
VWidth: 1524
GlyphClass: 2
Flags: MW
LayerCount: 2
Back
Fore
SplineSet
1172 520 m 1,0,-1
 170 520 l 1,1,-1
 170 651 l 1,2,-1
 1172 651 l 1,3,-1
 1172 520 l 1,0,-1
1172 200 m 1,4,-1
 170 200 l 1,5,-1
 170 334 l 1,6,-1
 1172 334 l 1,7,-1
 1172 200 l 1,4,-1
EndSplineSet
Validated: 1
EndChar

StartChar: uni003E
Encoding: 62 62 23
Width: 1340
VWidth: 1524
GlyphClass: 2
Flags: MW
LayerCount: 2
Back
Fore
SplineSet
1172 362 m 1,0,-1
 170 -2 l 1,1,-1
 170 140 l 1,2,-1
 975 426 l 1,3,-1
 170 713 l 1,4,-1
 170 855 l 1,5,-1
 1172 492 l 1,6,-1
 1172 362 l 1,0,-1
EndSplineSet
Validated: 1
EndChar

StartChar: uni003F
Encoding: 63 63 24
Width: 848
VWidth: 1524
GlyphClass: 2
Flags: MW
LayerCount: 2
Back
Fore
SplineSet
465 -75 m 1,0,-1
 304 -75 l 1,1,-1
 304 123 l 1,2,-1
 465 123 l 1,3,-1
 465 -75 l 1,0,-1
115 1025 m 1,4,5
 265 1114 265 1114 414.5 1114 c 128,-1,6
 564 1114 564 1114 651 1037.5 c 128,-1,7
 738 961 738 961 738 837 c 0,8,9
 738 777 738 777 710.5 723.5 c 128,-1,10
 683 670 683 670 612 603 c 2,11,-1
 542 537 l 1,12,13
 488 484 488 484 474 450 c 0,14,15
 460 416 460 416 460 336 c 2,16,-1
 460 239 l 1,17,-1
 310 239 l 1,18,-1
 310 358 l 2,19,20
 310 437 310 437 332 488.5 c 128,-1,21
 354 540 354 540 425 607 c 1,22,-1
 494 677 l 1,23,24
 580 759 580 759 580 829 c 128,-1,25
 580 899 580 899 528 942 c 128,-1,26
 476 985 476 985 392 985 c 0,27,28
 271 985 271 985 115 878 c 1,29,-1
 115 1025 l 1,4,5
EndSplineSet
Validated: 1
EndChar

StartChar: uni0040
Encoding: 64 64 25
Width: 1599
VWidth: 1524
GlyphClass: 2
Flags: MW
LayerCount: 2
Back
Fore
SplineSet
651.5 169.5 m 128,-1,1
 707 106 707 106 803.5 106 c 128,-1,2
 900 106 900 106 955.5 169.5 c 128,-1,3
 1011 233 1011 233 1011 343.5 c 128,-1,4
 1011 454 1011 454 954.5 519 c 128,-1,5
 898 584 898 584 803 584 c 128,-1,6
 708 584 708 584 652 519.5 c 128,-1,7
 596 455 596 455 596 344 c 128,-1,0
 596 233 596 233 651.5 169.5 c 128,-1,1
812 -242 m 0,8,9
 1018 -242 1018 -242 1188 -110 c 1,10,-1
 1260 -197 l 1,11,12
 1058 -354 1058 -354 812 -354 c 0,13,14
 516 -354 516 -354 310 -154 c 256,15,16
 106 46 106 46 106 345 c 0,17,18
 106 644 106 644 310 848 c 0,19,20
 516 1052 516 1052 823 1052 c 0,21,22
 988 1052 988 1052 1130.5 984 c 128,-1,23
 1273 916 1273 916 1369 791 c 0,24,25
 1490 633 1490 633 1490 433 c 128,-1,26
 1490 233 1490 233 1365.5 113.5 c 128,-1,27
 1241 -6 1241 -6 1022 -10 c 1,28,-1
 1022 111 l 1,29,30
 931 -8 931 -8 785.5 -8 c 128,-1,31
 640 -8 640 -8 555 90.5 c 128,-1,32
 470 189 470 189 470 345 c 256,33,34
 470 501 470 501 554.5 599 c 128,-1,35
 639 697 639 697 783.5 697 c 128,-1,36
 928 697 928 697 1022 579 c 1,37,-1
 1022 682 l 1,38,-1
 1135 682 l 1,39,-1
 1135 106 l 1,40,41
 1249 123 1249 123 1313 210.5 c 128,-1,42
 1377 298 1377 298 1377 450 c 0,43,44
 1377 602 1377 602 1286 717 c 0,45,46
 1108 940 1108 940 825 940 c 0,47,48
 634 940 634 940 477 839 c 0,49,50
 354 758 354 758 285 630 c 0,51,52
 216 502 216 502 216 364 c 0,53,54
 216 96 216 96 388 -73 c 0,55,56
 560 -242 560 -242 812 -242 c 0,8,9
EndSplineSet
Validated: 1
EndChar

StartChar: bracketleft
Encoding: 91 91 26
Width: 623
VWidth: 1524
GlyphClass: 2
Flags: MW
LayerCount: 2
Back
Fore
SplineSet
469 -286 m 1,0,-1
 137 -286 l 1,1,-1
 137 1141 l 1,2,-1
 469 1141 l 1,3,-1
 469 1030 l 1,4,-1
 282 1030 l 1,5,-1
 282 -174 l 1,6,-1
 469 -174 l 1,7,-1
 469 -286 l 1,0,-1
EndSplineSet
Validated: 1
EndChar

StartChar: uni005C
Encoding: 92 92 27
Width: 537
VWidth: 1524
GlyphClass: 2
Flags: MW
LayerCount: 2
Back
Fore
SplineSet
540 -224 m 1,0,-1
 407 -224 l 1,1,-1
 0 1092 l 1,2,-1
 133 1092 l 1,3,-1
 540 -224 l 1,0,-1
EndSplineSet
Validated: 1
EndChar

StartChar: bracketright
Encoding: 93 93 28
Width: 623
VWidth: 1524
GlyphClass: 2
Flags: MW
LayerCount: 2
Back
Fore
SplineSet
487 -286 m 1,0,-1
 156 -286 l 1,1,-1
 156 -174 l 1,2,-1
 342 -174 l 1,3,-1
 342 1030 l 1,4,-1
 156 1030 l 1,5,-1
 156 1141 l 1,6,-1
 487 1141 l 1,7,-1
 487 -286 l 1,0,-1
EndSplineSet
Validated: 1
EndChar

StartChar: uni005E
Encoding: 94 94 29
Width: 1340
VWidth: 1524
GlyphClass: 2
Flags: MW
LayerCount: 2
Back
Fore
SplineSet
1172 657 m 1,0,-1
 1014 657 l 1,1,-1
 670 965 l 1,2,-1
 326 657 l 1,3,-1
 170 657 l 1,4,-1
 594 1092 l 1,5,-1
 748 1092 l 1,6,-1
 1172 657 l 1,0,-1
EndSplineSet
Validated: 1
EndChar

StartChar: uni005F
Encoding: 95 95 30
Width: 798
VWidth: 1524
GlyphClass: 2
Flags: MW
LayerCount: 2
Back
Fore
SplineSet
816 -452 m 1,0,-1
 -15 -452 l 1,1,-1
 -15 -340 l 1,2,-1
 816 -340 l 1,3,-1
 816 -452 l 1,0,-1
EndSplineSet
Validated: 1
EndChar

StartChar: uni0060
Encoding: 96 96 31
Width: 798
VWidth: 1524
GlyphClass: 2
Flags: MW
LayerCount: 2
Back
Fore
SplineSet
508 913 m 1,0,-1
 388 913 l 1,1,-1
 133 1206 l 1,2,-1
 287 1206 l 1,3,-1
 508 913 l 1,0,-1
EndSplineSet
Validated: 1
EndChar

StartChar: braceleft
Encoding: 123 123 32
Width: 1017
VWidth: 1524
GlyphClass: 2
Flags: MW
LayerCount: 2
Back
Fore
SplineSet
819 -337 m 1,0,-1
 771 -337 l 2,1,2
 576 -337 576 -337 510 -279 c 128,-1,3
 444 -221 444 -221 444 -47 c 2,4,-1
 444 139 l 2,5,6
 444 257 444 257 401 302.5 c 128,-1,7
 358 348 358 348 248 348 c 2,8,-1
 200 348 l 1,9,-1
 200 460 l 1,10,-1
 248 460 l 2,11,12
 360 460 360 460 402 505 c 128,-1,13
 444 550 444 550 444 666 c 2,14,-1
 444 853 l 2,15,16
 444 1026 444 1026 509.5 1083.5 c 128,-1,17
 575 1141 575 1141 771 1141 c 2,18,-1
 819 1141 l 1,19,-1
 819 1030 l 1,20,-1
 766 1030 l 2,21,22
 656 1030 656 1030 622 995.5 c 128,-1,23
 588 961 588 961 588 851 c 2,24,-1
 588 657 l 2,25,26
 588 534 588 534 552.5 478.5 c 128,-1,27
 517 423 517 423 430 404 c 1,28,29
 516 382 516 382 552 327 c 128,-1,30
 588 272 588 272 588 149 c 2,31,-1
 588 -44 l 2,32,33
 588 -154 588 -154 621.5 -189 c 128,-1,34
 655 -224 655 -224 766 -224 c 2,35,-1
 819 -224 l 1,36,-1
 819 -337 l 1,0,-1
EndSplineSet
Validated: 1
EndChar

StartChar: uni007C
Encoding: 124 124 33
Width: 537
VWidth: 1524
GlyphClass: 2
Flags: MW
LayerCount: 2
Back
Fore
SplineSet
337 -452 m 1,0,-1
 204 -452 l 1,1,-1
 204 1149 l 1,2,-1
 337 1149 l 1,3,-1
 337 -452 l 1,0,-1
EndSplineSet
Validated: 1
EndChar

StartChar: braceright
Encoding: 125 125 34
Width: 1017
VWidth: 1524
GlyphClass: 2
Flags: MW
LayerCount: 2
Back
Fore
SplineSet
574 -47 m 2,0,1
 574 -220 574 -220 509 -278.5 c 128,-1,2
 444 -337 444 -337 250 -337 c 2,3,-1
 200 -337 l 1,4,-1
 200 -224 l 1,5,-1
 254 -224 l 2,6,7
 363 -224 363 -224 396.5 -190 c 128,-1,8
 430 -156 430 -156 430 -44 c 2,9,-1
 430 149 l 2,10,11
 430 271 430 271 465.5 327 c 128,-1,12
 501 383 501 383 588 404 c 1,13,14
 502 424 502 424 466 479.5 c 128,-1,15
 430 535 430 535 430 657 c 2,16,-1
 430 851 l 2,17,18
 430 962 430 962 397 996 c 0,19,20
 363 1030 363 1030 254 1030 c 2,21,-1
 200 1030 l 1,22,-1
 200 1141 l 1,23,-1
 250 1141 l 2,24,25
 445 1141 445 1141 509.5 1084 c 128,-1,26
 574 1027 574 1027 574 853 c 2,27,-1
 574 666 l 2,28,29
 574 549 574 549 617 504.5 c 128,-1,30
 660 460 660 460 771 460 c 2,31,-1
 819 460 l 1,32,-1
 819 348 l 1,33,-1
 771 348 l 2,34,35
 660 348 660 348 617 302.5 c 128,-1,36
 574 257 574 257 574 139 c 2,37,-1
 574 -47 l 2,0,1
EndSplineSet
Validated: 1
EndChar

StartChar: uni007E
Encoding: 126 126 35
Width: 1340
VWidth: 1524
GlyphClass: 2
Flags: MW
LayerCount: 2
Back
Fore
SplineSet
892 439 m 0,0,1
 1020 439 1020 439 1172 564 c 1,2,-1
 1172 425 l 1,3,4
 1014 309 1014 309 888 309 c 0,5,6
 762 309 762 309 645 368 c 1,7,8
 526 415 526 415 452 415 c 2,9,-1
 449 415 l 2,10,11
 315 415 315 415 170 289 c 1,12,-1
 170 429 l 1,13,14
 328 545 328 545 468 545 c 0,15,16
 553 545 553 545 683.5 492 c 128,-1,17
 814 439 814 439 892 439 c 0,0,1
EndSplineSet
Validated: 1
EndChar

StartChar: uni00A4
Encoding: 164 164 36
Width: 1017
VWidth: 1524
GlyphClass: 2
Flags: MW
LayerCount: 2
Back
Fore
SplineSet
787 614 m 1,0,1
 844 520 844 520 844 422.5 c 128,-1,2
 844 325 844 325 782 242 c 1,3,-1
 946 81 l 1,4,-1
 857 -10 l 1,5,-1
 696 155 l 1,6,7
 604 93 604 93 512.5 93 c 128,-1,8
 421 93 421 93 323 151 c 1,9,-1
 162 -10 l 1,10,-1
 74 79 l 1,11,-1
 235 240 l 1,12,13
 178 338 178 338 178 431 c 128,-1,14
 178 524 178 524 237 611 c 1,15,-1
 75 772 l 1,16,-1
 164 862 l 1,17,-1
 326 701 l 1,18,19
 408 758 408 758 507.5 758 c 128,-1,20
 607 758 607 758 697 702 c 1,21,-1
 858 865 l 1,22,-1
 947 775 l 1,23,-1
 787 614 l 1,0,1
511 217 m 256,24,25
 599 217 599 217 659.5 277.5 c 128,-1,26
 720 338 720 338 720 426.5 c 128,-1,27
 720 515 720 515 660 575 c 128,-1,28
 600 635 600 635 512 635 c 128,-1,29
 424 635 424 635 362 575.5 c 128,-1,30
 300 516 300 516 300 427.5 c 128,-1,31
 300 339 300 339 361.5 278 c 128,-1,32
 423 217 423 217 511 217 c 256,24,25
EndSplineSet
Validated: 1
EndChar

StartChar: uni00A7
Encoding: 167 167 37
Width: 798
VWidth: 1524
GlyphClass: 2
Flags: MW
LayerCount: 2
Back
Fore
SplineSet
297 657 m 1,0,1
 199 585 199 585 199 519.5 c 128,-1,2
 199 454 199 454 253 402.5 c 128,-1,3
 307 351 307 351 502 246 c 1,4,5
 601 319 601 319 601 383 c 128,-1,6
 601 447 601 447 545 500 c 128,-1,7
 489 553 489 553 297 657 c 1,0,1
596 -162.5 m 128,-1,9
 516 -228 516 -228 392 -228 c 128,-1,10
 268 -228 268 -228 134 -182 c 1,11,-1
 134 -55 l 1,12,13
 270 -115 270 -115 357 -115 c 128,-1,14
 444 -115 444 -115 488 -81.5 c 128,-1,15
 532 -48 532 -48 532 10 c 0,16,17
 532 90 532 90 358 186 c 2,18,-1
 338 197 l 1,19,20
 171 291 171 291 121.5 351 c 128,-1,21
 72 411 72 411 72 491 c 0,22,23
 72 634 72 634 216 711 c 1,24,25
 123 782 123 782 123 885.5 c 128,-1,26
 123 989 123 989 201.5 1051.5 c 128,-1,27
 280 1114 280 1114 401.5 1114 c 128,-1,28
 523 1114 523 1114 649 1068 c 1,29,-1
 649 940 l 1,30,31
 520 1000 520 1000 436 1000 c 0,32,33
 268 1000 268 1000 268 883 c 0,34,35
 268 811 268 811 428 722 c 0,36,37
 449 711 449 711 460 704 c 0,38,39
 624 611 624 611 676 551.5 c 128,-1,40
 728 492 728 492 728 412 c 0,41,42
 728 274 728 274 583 191 c 1,43,44
 676 112 676 112 676 7.5 c 128,-1,8
 676 -97 676 -97 596 -162.5 c 128,-1,9
EndSplineSet
Validated: 1
EndChar

StartChar: guillemotleft
Encoding: 171 171 38
Width: 978
VWidth: 1524
GlyphClass: 2
Flags: MW
LayerCount: 2
Back
Fore
SplineSet
829 36 m 1,0,-1
 463 362 l 1,1,-1
 463 426 l 1,2,-1
 829 754 l 1,3,-1
 829 603 l 1,4,-1
 594 394 l 1,5,-1
 829 184 l 1,6,-1
 829 36 l 1,0,-1
491 36 m 1,7,-1
 123 362 l 1,8,-1
 123 426 l 1,9,-1
 491 754 l 1,10,-1
 491 603 l 1,11,-1
 254 394 l 1,12,-1
 491 184 l 1,13,-1
 491 36 l 1,7,-1
EndSplineSet
Validated: 1
Substitution2: "'calt' Contextual Alternates in Arabic lookup 9 subtable" guillemotleft.fa
EndChar

StartChar: uni00AC
Encoding: 172 172 39
Width: 1340
VWidth: 1524
GlyphClass: 2
Flags: MW
LayerCount: 2
Back
Fore
SplineSet
1172 149 m 1,0,-1
 1041 149 l 1,1,-1
 1041 466 l 1,2,-1
 170 466 l 1,3,-1
 170 599 l 1,4,-1
 1172 599 l 1,5,-1
 1172 149 l 1,0,-1
EndSplineSet
Validated: 1
EndChar

StartChar: uni00B0
Encoding: 176 176 40
Width: 798
VWidth: 1524
GlyphClass: 2
Flags: MW
LayerCount: 2
Back
Fore
SplineSet
400 716 m 256,0,1
 463 716 463 716 506 758.5 c 128,-1,2
 549 801 549 801 549 864 c 256,3,4
 549 925 549 925 505.5 968.5 c 128,-1,5
 462 1012 462 1012 400 1012 c 128,-1,6
 338 1012 338 1012 295 969 c 128,-1,7
 252 926 252 926 252 864.5 c 128,-1,8
 252 803 252 803 295 759.5 c 128,-1,9
 338 716 338 716 400 716 c 256,0,1
225 1041.5 m 128,-1,11
 297 1114 297 1114 400.5 1114 c 128,-1,12
 504 1114 504 1114 576.5 1039.5 c 0,13,14
 649 965 649 965 649 862.5 c 0,15,16
 649 760 649 760 576 688 c 0,17,18
 503 616 503 616 397.5 616 c 128,-1,19
 292 616 292 616 222.5 686.5 c 128,-1,20
 153 757 153 757 153 863 c 128,-1,10
 153 969 153 969 225 1041.5 c 128,-1,11
EndSplineSet
Validated: 1
EndChar

StartChar: uni00B6
Encoding: 182 182 41
Width: 1017
VWidth: 1524
GlyphClass: 2
Flags: MW
LayerCount: 2
Back
Fore
SplineSet
846 -228 m 1,0,-1
 735 -228 l 1,1,-1
 735 996 l 1,2,-1
 586 996 l 1,3,-1
 586 -228 l 1,4,-1
 476 -228 l 1,5,-1
 476 432 l 1,6,7
 308 444 308 444 215 531 c 128,-1,8
 122 618 122 618 122 764 c 128,-1,9
 122 910 122 910 224 1001 c 128,-1,10
 326 1092 326 1092 494 1092 c 2,11,-1
 846 1092 l 1,12,-1
 846 -228 l 1,0,-1
EndSplineSet
Validated: 1
EndChar

StartChar: periodcentered
Encoding: 183 183 42
Width: 507
VWidth: 1524
GlyphClass: 2
Flags: MW
LayerCount: 2
Back
Fore
SplineSet
172 382 m 1,0,-1
 172 580 l 1,1,-1
 337 580 l 1,2,-1
 337 382 l 1,3,-1
 172 382 l 1,0,-1
EndSplineSet
Validated: 1
EndChar

StartChar: guillemotright
Encoding: 187 187 43
Width: 978
VWidth: 1524
GlyphClass: 2
Flags: MW
LayerCount: 2
Back
Fore
SplineSet
518 362 m 1,0,-1
 151 36 l 1,1,-1
 151 184 l 1,2,-1
 387 394 l 1,3,-1
 151 603 l 1,4,-1
 151 754 l 1,5,-1
 518 426 l 1,6,-1
 518 362 l 1,0,-1
857 362 m 1,7,-1
 491 36 l 1,8,-1
 491 184 l 1,9,-1
 726 394 l 1,10,-1
 491 603 l 1,11,-1
 491 754 l 1,12,-1
 857 426 l 1,13,-1
 857 362 l 1,7,-1
EndSplineSet
Validated: 1
Substitution2: "'calt' Contextual Alternates in Arabic lookup 9 subtable" guillemotright.fa
EndChar

StartChar: divide
Encoding: 247 247 44
Width: 1340
VWidth: 1524
GlyphClass: 2
Flags: MW
LayerCount: 2
Back
Fore
SplineSet
767 619 m 1,0,-1
 574 619 l 1,1,-1
 574 812 l 1,2,-1
 767 812 l 1,3,-1
 767 619 l 1,0,-1
767 42 m 1,4,-1
 574 42 l 1,5,-1
 574 233 l 1,6,-1
 767 233 l 1,7,-1
 767 42 l 1,4,-1
1172 360 m 1,8,-1
 170 360 l 1,9,-1
 170 493 l 1,10,-1
 1172 493 l 1,11,-1
 1172 360 l 1,8,-1
EndSplineSet
Validated: 1
EndChar

StartChar: uni2014
Encoding: 8212 8212 45
Width: 1599
VWidth: 1524
GlyphClass: 2
Flags: MW
LayerCount: 2
Back
Fore
SplineSet
1602 306 m 1,0,-1
 0 306 l 1,1,-1
 0 420 l 1,2,-1
 1602 420 l 1,3,-1
 1602 306 l 1,0,-1
EndSplineSet
Validated: 1
EndChar

StartChar: uni2022
Encoding: 8226 8226 46
Width: 942
VWidth: 1524
GlyphClass: 2
Flags: MW
LayerCount: 2
Back
Fore
SplineSet
637.5 684.5 m 128,-1,1
 704 617 704 617 704 519.5 c 128,-1,2
 704 422 704 422 637 355 c 128,-1,3
 570 288 570 288 472 288 c 256,4,5
 374 288 374 288 307 355.5 c 128,-1,6
 240 423 240 423 240 520 c 128,-1,7
 240 617 240 617 307 684.5 c 128,-1,8
 374 752 374 752 472.5 752 c 128,-1,0
 571 752 571 752 637.5 684.5 c 128,-1,1
EndSplineSet
Validated: 1
EndChar

StartChar: uni2026
Encoding: 8230 8230 47
Width: 1599
VWidth: 1524
GlyphClass: 2
Flags: MW
LayerCount: 2
Back
Fore
SplineSet
884 -75 m 1,0,-1
 718 -75 l 1,1,-1
 718 123 l 1,2,-1
 884 123 l 1,3,-1
 884 -75 l 1,0,-1
1416 -75 m 1,4,-1
 1250 -75 l 1,5,-1
 1250 123 l 1,6,-1
 1416 123 l 1,7,-1
 1416 -75 l 1,4,-1
352 -75 m 1,8,-1
 184 -75 l 1,9,-1
 184 123 l 1,10,-1
 352 123 l 1,11,-1
 352 -75 l 1,8,-1
EndSplineSet
Validated: 1
Substitution2: "'calt' Contextual Alternates in Arabic lookup 9 subtable" uni2026.fa
EndChar

StartChar: multiply
Encoding: 215 215 49
Width: 1340
VWidth: 1524
GlyphClass: 2
Flags: MW
LayerCount: 2
Back
Fore
SplineSet
1030 -26 m 1,0,-1
 670 334 l 1,1,-1
 312 -26 l 1,2,-1
 220 69 l 1,3,-1
 576 426 l 1,4,-1
 220 785 l 1,5,-1
 312 880 l 1,6,-1
 670 520 l 1,7,-1
 1030 880 l 1,8,-1
 1122 785 l 1,9,-1
 766 426 l 1,10,-1
 1122 69 l 1,11,-1
 1030 -26 l 1,0,-1
EndSplineSet
Validated: 1
EndChar

StartChar: zwNONjoiner
Encoding: 8204 8204 50
Width: 0
VWidth: 1524
GlyphClass: 2
Flags: MW
LayerCount: 2
Back
Fore
SplineSet
36 -701 m 1,0,-1
 0 -701 l 1,1,-1
 0 900 l 1,2,-1
 36 900 l 1,3,-1
 36 -701 l 1,0,-1
EndSplineSet
Validated: 1
EndChar

StartChar: zwjoiner
Encoding: 8205 8205 51
Width: 0
VWidth: 1524
GlyphClass: 2
Flags: MW
LayerCount: 2
Back
Fore
SplineSet
35 -701 m 1,0,-1
 0 -701 l 1,1,-1
 0 752 l 1,2,-1
 -66 684 l 1,3,-1
 -90 709 l 1,4,-1
 -8 793 l 1,5,-1
 -90 876 l 1,6,-1
 -66 900 l 1,7,-1
 17 816 l 1,8,-1
 101 900 l 1,9,-1
 124 876 l 1,10,-1
 41 793 l 1,11,-1
 124 709 l 1,12,-1
 101 684 l 1,13,-1
 35 753 l 1,14,-1
 35 -701 l 1,0,-1
EndSplineSet
Validated: 1
EndChar

StartChar: LTR_mark
Encoding: 8206 8206 52
Width: 0
VWidth: 1524
GlyphClass: 2
Flags: MW
LayerCount: 2
Back
Fore
SplineSet
36 -701 m 1,0,-1
 0 -701 l 1,1,-1
 0 804 l 1,2,-1
 170 804 l 1,3,-1
 106 867 l 1,4,-1
 130 892 l 1,5,-1
 237 784 l 1,6,-1
 130 677 l 1,7,-1
 106 701 l 1,8,-1
 173 768 l 1,9,-1
 36 768 l 1,10,-1
 36 -701 l 1,0,-1
EndSplineSet
Validated: 1
EndChar

StartChar: RTL_mark
Encoding: 8207 8207 53
Width: 0
VWidth: 1524
GlyphClass: 2
Flags: MW
LayerCount: 2
Back
Fore
SplineSet
36 -701 m 1,0,-1
 0 -701 l 1,1,-1
 0 768 l 1,2,-1
 -137 768 l 1,3,-1
 -71 701 l 1,4,-1
 -95 677 l 1,5,-1
 -202 784 l 1,6,-1
 -95 892 l 1,7,-1
 -71 867 l 1,8,-1
 -134 804 l 1,9,-1
 36 804 l 1,10,-1
 36 -701 l 1,0,-1
EndSplineSet
Validated: 1
EndChar

StartChar: uni2010
Encoding: 8208 8208 54
Width: 576
VWidth: 1524
GlyphClass: 2
Flags: MW
LayerCount: 2
Back
Fore
SplineSet
500 300 m 1,0,-1
 79 300 l 1,1,-1
 79 428 l 1,2,-1
 500 428 l 1,3,-1
 500 300 l 1,0,-1
EndSplineSet
Validated: 1
EndChar

StartChar: uni20AC
Encoding: 8364 8364 55
Width: 1017
VWidth: 1524
GlyphClass: 2
Flags: MW
LayerCount: 2
Back
Fore
SplineSet
311 589 m 1,0,1
 308 561 308 561 308 508 c 128,-1,2
 308 455 308 455 311 428 c 1,3,-1
 660 428 l 1,4,-1
 616 332 l 1,5,-1
 323 332 l 1,6,7
 348 185 348 185 427.5 106 c 128,-1,8
 507 27 507 27 630 27 c 0,9,10
 711 27 711 27 776 62 c 128,-1,11
 841 97 841 97 913 180 c 1,12,-1
 913 14 l 1,13,14
 775 -98 775 -98 606.5 -98 c 128,-1,15
 438 -98 438 -98 316.5 15.5 c 128,-1,16
 195 129 195 129 164 332 c 1,17,-1
 0 332 l 1,18,-1
 43 428 l 1,19,-1
 152 428 l 1,20,-1
 151 508 l 1,21,-1
 152 589 l 1,22,-1
 0 589 l 1,23,-1
 43 684 l 1,24,-1
 164 684 l 1,25,26
 195 885 195 885 317 999.5 c 128,-1,27
 439 1114 439 1114 608 1114 c 128,-1,28
 777 1114 777 1114 913 1002 c 1,29,-1
 913 836 l 1,30,31
 842 919 842 919 775.5 954 c 128,-1,32
 709 989 709 989 630 989 c 0,33,34
 507 989 507 989 428 910 c 128,-1,35
 349 831 349 831 323 684 c 1,36,-1
 775 684 l 1,37,-1
 732 589 l 1,38,-1
 311 589 l 1,0,1
EndSplineSet
Validated: 1
EndChar

StartChar: uni2212
Encoding: 8722 8722 56
Width: 1340
VWidth: 1524
GlyphClass: 2
Flags: MW
LayerCount: 2
Back
Fore
SplineSet
1172 360 m 1,0,-1
 170 360 l 1,1,-1
 170 493 l 1,2,-1
 1172 493 l 1,3,-1
 1172 360 l 1,0,-1
EndSplineSet
Validated: 1
EndChar

StartChar: uni2219
Encoding: 8729 8729 57
Width: 507
VWidth: 1524
GlyphClass: 2
Flags: MW
LayerCount: 2
Back
Fore
SplineSet
172 382 m 1,0,-1
 172 580 l 1,1,-1
 337 580 l 1,2,-1
 337 382 l 1,3,-1
 172 382 l 1,0,-1
EndSplineSet
Validated: 1
EndChar

StartChar: uni25CC
Encoding: 9676 9676 58
Width: 1191
VWidth: 1524
GlyphClass: 2
Flags: MW
AnchorPoint: "Anchor-5" 598 -380 basechar 0
AnchorPoint: "Anchor-4" 574 1004 basechar 0
LayerCount: 2
Back
Fore
SplineSet
876 655 m 1,0,1
 830 695 830 695 757 722 c 1,2,-1
 785 797 l 1,3,4
 865 765 865 765 930 712 c 1,5,-1
 876 655 l 1,0,1
436 723 m 1,6,7
 365 698 365 698 314 651 c 1,8,-1
 266 715 l 1,9,10
 329 769 329 769 408 798 c 1,11,-1
 436 723 l 1,6,7
250 586 m 1,12,13
 204 530 204 530 180 465 c 1,14,-1
 105 493 l 1,15,16
 132 565 132 565 187 635 c 1,17,-1
 250 586 l 1,12,13
149 304 m 256,18,19
 149 297 149 297 156 234 c 1,20,-1
 77 224 l 1,21,22
 71 257 71 257 71 304 c 256,23,24
 71 349 71 349 77 389 c 1,25,-1
 156 374 l 1,26,27
 149 334 149 334 149 304 c 256,18,19
187 -25 m 1,28,29
 133 38 133 38 105 117 c 1,30,-1
 180 145 l 1,31,32
 205 80 205 80 250 24 c 1,33,-1
 187 -25 l 1,28,29
407 -185 m 1,34,35
 329 -157 329 -157 265 -103 c 1,36,-1
 316 -42 l 1,37,38
 372 -86 372 -86 434 -111 c 1,39,-1
 407 -185 l 1,34,35
596 -141 m 256,40,41
 624 -141 624 -141 666 -136 c 1,42,-1
 679 -214 l 1,43,44
 642 -221 642 -221 602 -221 c 0,45,46
 562 -221 562 -221 516 -214 c 1,47,-1
 524 -136 l 1,48,49
 552 -141 552 -141 596 -141 c 256,40,41
926 -104 m 1,50,51
 852 -162 852 -162 784 -186 c 1,52,-1
 756 -112 l 1,53,54
 821 -88 821 -88 877 -42 c 1,55,-1
 926 -104 l 1,50,51
1087 117 m 1,56,57
 1056 38 1056 38 1005 -26 c 1,58,-1
 945 25 l 1,59,60
 989 80 989 80 1014 146 c 1,61,-1
 1087 117 l 1,56,57
1039 237 m 1,62,63
 1044 257 1044 257 1044 293.5 c 128,-1,64
 1044 330 1044 330 1039 376 c 1,65,-1
 1116 386 l 1,66,67
 1123 357 1123 357 1123 312 c 0,68,69
 1123 267 1123 267 1116 223 c 1,70,-1
 1039 237 l 1,62,63
1014 465 m 1,71,72
 990 532 990 532 946 586 c 1,73,-1
 1005 636 l 1,74,75
 1058 573 1058 573 1087 493 c 1,76,-1
 1014 465 l 1,71,72
513 826 m 1,77,78
 540 831 540 831 592 831 c 0,79,80
 644 831 644 831 679 826 c 1,81,-1
 667 748 l 1,82,83
 631 754 631 754 603 754 c 128,-1,84
 575 754 575 754 524 748 c 1,85,-1
 513 826 l 1,77,78
EndSplineSet
Validated: 1
EndChar

StartChar: virgul
Encoding: 1548 1548 59
Width: 507
VWidth: 1524
GlyphClass: 2
Flags: MW
LayerCount: 2
Back
Fore
SplineSet
288 -75 m 1,0,-1
 123 -75 l 1,1,-1
 123 60 l 1,2,-1
 252 309 l 1,3,-1
 353 309 l 1,4,-1
 288 60 l 1,5,-1
 288 -75 l 1,0,-1
EndSplineSet
Validated: 1
Substitution2: "'calt' Contextual Alternates in Arabic lookup 9 subtable" virgul.fa
EndChar

StartChar: noqte_virgul
Encoding: 1563 1563 60
Width: 537
VWidth: 1524
GlyphClass: 2
Flags: MW
LayerCount: 2
Back
Fore
SplineSet
242 -75 m 1,0,-1
 78 -75 l 1,1,-1
 78 123 l 1,2,-1
 242 123 l 1,3,-1
 242 -75 l 1,0,-1
242 421 m 1,4,-1
 78 421 l 1,5,-1
 78 556 l 1,6,-1
 206 806 l 1,7,-1
 242 806 l 1,8,-1
 242 421 l 1,4,-1
EndSplineSet
Validated: 1
Substitution2: "'calt' Contextual Alternates in Arabic lookup 9 subtable" noqte_virgul.fa
EndChar

StartChar: soal
Encoding: 1567 1567 61
Width: 848
VWidth: 1524
GlyphClass: 2
Flags: MW
LayerCount: 2
Back
Fore
SplineSet
547 -75 m 1,0,-1
 389 -75 l 1,1,-1
 389 123 l 1,2,-1
 547 123 l 1,3,-1
 547 -75 l 1,0,-1
738 878 m 1,4,5
 585 985 585 985 458 985 c 128,-1,6
 331 985 331 985 287 893 c 0,7,8
 273 864 273 864 273 827 c 0,9,10
 273 763 273 763 357 677 c 1,11,-1
 428 607 l 2,12,13
 497 538 497 538 517.5 493.5 c 128,-1,14
 538 449 538 449 542 358 c 2,15,-1
 547 239 l 1,16,-1
 393 239 l 1,17,-1
 393 336 l 2,18,19
 393 414 393 414 383 440 c 0,20,21
 373 466 373 466 360 483.5 c 128,-1,22
 347 501 347 501 310 537 c 2,23,-1
 242 603 l 2,24,25
 171 672 171 672 143 725.5 c 128,-1,26
 115 779 115 779 115 838 c 0,27,28
 115 962 115 962 203 1038 c 128,-1,29
 291 1114 291 1114 440.5 1114 c 128,-1,30
 590 1114 590 1114 738 1025 c 1,31,-1
 738 878 l 1,4,5
EndSplineSet
Validated: 1
EndChar

StartChar: hamze
Encoding: 1569 1569 62
Width: 600
VWidth: 1524
GlyphClass: 2
Flags: MW
AnchorPoint: "Anchor-1" 293 -27 basechar 0
AnchorPoint: "Anchor-0" 282 686 basechar 0
LayerCount: 2
Back
Fore
SplineSet
143 163 m 1,0,1
 75 223 75 223 75 307.5 c 128,-1,2
 75 392 75 392 148.5 471 c 128,-1,3
 222 550 222 550 298 550 c 128,-1,4
 374 550 374 550 425 512 c 0,5,6
 442 499 442 499 465 478 c 1,7,-1
 387 368 l 1,8,9
 357 398 357 398 283 398 c 0,10,11
 255 398 255 398 223.5 368.5 c 128,-1,12
 192 339 192 339 192 305 c 0,13,14
 192 277 192 277 301 232 c 1,15,16
 389 260 389 260 509 280 c 1,17,-1
 534 133 l 1,18,19
 257 76 257 76 100 -27 c 1,20,-1
 38 101 l 1,21,22
 77 126 77 126 143 163 c 1,0,1
EndSplineSet
Validated: 1
Substitution2: "'isol' Isolated Forms in Arabic lookup 6 subtable" uniFE80
EndChar

StartChar: kashidas
Encoding: 1600 1600 63
Width: 548
VWidth: 1524
GlyphClass: 2
Flags: MW
AnchorPoint: "Anchor-1" 234 -161 basechar 0
AnchorPoint: "Anchor-0" 246 707 basechar 0
LayerCount: 2
Back
Fore
SplineSet
551 0 m 1,0,-1
 -55 0 l 1,1,-1
 -55 150 l 1,2,-1
 551 150 l 1,3,-1
 551 0 l 1,0,-1
EndSplineSet
Validated: 1
EndChar

StartChar: uni0660
Encoding: 1632 1632 64
Width: 1017
VWidth: 1584
GlyphClass: 2
Flags: MW
LayerCount: 2
Back
Fore
SplineSet
528 381 m 1,0,-1
 323 545 l 1,1,-1
 485 746 l 1,2,-1
 695 588 l 1,3,-1
 528 381 l 1,0,-1
EndSplineSet
EndChar

StartChar: uni0661
Encoding: 1633 1633 65
Width: 1017
VWidth: 1584
GlyphClass: 2
Flags: MW
LayerCount: 2
Back
Fore
SplineSet
632 5 m 1,0,1
 612 532 612 532 353 968 c 0,2,3
 315 1031 315 1031 281 1084 c 1,4,-1
 383 1169 l 1,5,6
 735 622 735 622 752 5 c 1,7,-1
 632 5 l 1,0,1
EndSplineSet
EndChar

StartChar: uni0662
Encoding: 1634 1634 66
Width: 1017
VWidth: 1584
GlyphClass: 2
Flags: MW
LayerCount: 2
Back
Fore
SplineSet
922 1160 m 1,0,1
 817 819 817 819 602 819 c 0,2,3
 472 819 472 819 395 849 c 1,4,5
 581 459 581 459 581 5 c 1,6,-1
 461 5 l 1,7,8
 461 451 461 451 252 849 c 0,9,10
 190 967 190 967 119 1075 c 1,11,-1
 218 1160 l 1,12,13
 372 991 372 991 510 975 c 0,14,15
 554 970 554 970 602 970 c 0,16,17
 736 970 736 970 806 1204 c 1,18,-1
 922 1160 l 1,0,1
EndSplineSet
EndChar

StartChar: uni0663
Encoding: 1635 1635 67
Width: 1017
VWidth: 1584
GlyphClass: 2
Flags: MW
LayerCount: 2
Back
Fore
SplineSet
611 937 m 1,0,1
 546 822 546 822 438 822 c 0,2,3
 384 822 384 822 324 844 c 1,4,5
 466 506 466 506 525 5 c 1,6,-1
 406 5 l 1,7,8
 325 669 325 669 60 1078 c 1,9,-1
 157 1161 l 1,10,11
 287 973 287 973 438 973 c 0,12,13
 484 973 484 973 518.5 1034.5 c 128,-1,14
 553 1096 553 1096 553 1209 c 1,15,-1
 669 1209 l 1,16,17
 670 1038 670 1038 738 1000 c 0,18,19
 756 990 756 990 776 990 c 0,20,21
 844 990 844 990 863 1210 c 1,22,-1
 979 1200 l 1,23,24
 960 1000 960 1000 912 920 c 0,25,26
 864 840 864 840 767.5 840 c 128,-1,27
 671 840 671 840 611 937 c 1,0,1
EndSplineSet
EndChar

StartChar: uni0664
Encoding: 1636 1636 68
Width: 1017
VWidth: 1584
GlyphClass: 2
Flags: MW
LayerCount: 2
Back
Fore
SplineSet
714 -47 m 1,0,1
 256 36 256 36 256 238 c 0,2,3
 256 360 256 360 368 504 c 0,4,5
 407 554 407 554 461 614 c 1,6,7
 252 737 252 737 252 867 c 128,-1,8
 252 997 252 997 482 1126 c 0,9,10
 554 1166 554 1166 638 1201 c 1,11,-1
 684 1062 l 1,12,13
 464 974 464 974 392 905 c 0,14,15
 369 883 369 883 369 866 c 0,16,17
 369 815 369 815 663 656 c 1,18,19
 373 349 373 349 373 238 c 0,20,21
 373 180 373 180 582 130 c 0,22,23
 657 112 657 112 732 102 c 1,24,-1
 714 -47 l 1,0,1
EndSplineSet
EndChar

StartChar: uni0665
Encoding: 1637 1637 69
Width: 1017
VWidth: 1584
GlyphClass: 2
Flags: MW
LayerCount: 2
Back
Fore
SplineSet
853 444 m 0,0,1
 853 160 853 160 491 160 c 0,2,3
 260 160 260 160 189 336 c 0,4,5
 165 396 165 396 165 471 c 128,-1,6
 165 546 165 546 192 622 c 0,7,8
 261 815 261 815 485 883 c 1,9,10
 656 853 656 853 754 732.5 c 128,-1,11
 852 612 852 612 853 444 c 0,0,1
492 311 m 0,12,13
 737 311 737 311 737 442 c 0,14,15
 737 545 737 545 670.5 624 c 128,-1,16
 604 703 604 703 489 728 c 1,17,18
 283 646 283 646 283 473 c 0,19,20
 284 354 284 354 408 321 c 0,21,22
 446 311 446 311 492 311 c 0,12,13
EndSplineSet
EndChar

StartChar: uni0666
Encoding: 1638 1638 70
Width: 1017
VWidth: 1584
GlyphClass: 2
Flags: MW
LayerCount: 2
Back
Fore
SplineSet
172 1084 m 1,0,1
 254 1004 254 1004 349 1004 c 0,2,3
 525 1004 525 1004 754 1074 c 1,4,5
 743 991 743 991 734.5 931 c 128,-1,6
 726 871 726 871 716 783 c 128,-1,7
 706 695 706 695 706 547.5 c 128,-1,8
 706 400 706 400 719 342 c 0,9,10
 759 164 759 164 867 100 c 1,11,-1
 810 -30 l 1,12,13
 718 22 718 22 653 157 c 128,-1,14
 588 292 588 292 588 509 c 128,-1,15
 588 726 588 726 608 884 c 1,16,17
 447 851 447 851 376 851 c 128,-1,19
 305 851 305 851 276 860 c 0,20,21
 188 885 188 885 90 976 c 1,22,-1
 172 1084 l 1,0,1
EndSplineSet
EndChar

StartChar: uni0667
Encoding: 1639 1639 71
Width: 1017
VWidth: 1584
GlyphClass: 2
Flags: MW
LayerCount: 2
Back
Fore
SplineSet
452 5 m 1,0,1
 393 336 393 336 354 493 c 128,-1,3
 315 650 315 650 246 798.5 c 128,-1,4
 177 947 177 947 49 1122 c 1,5,-1
 147 1209 l 1,6,7
 358 922 358 922 435 674 c 0,8,9
 461 590 461 590 516 334 c 1,10,11
 580 633 580 633 655 813 c 128,-1,12
 730 993 730 993 884 1209 c 1,13,-1
 980 1122 l 1,14,15
 857 954 857 954 789 808 c 128,-1,17
 721 662 721 662 675 479.5 c 128,-1,18
 629 297 629 297 579 5 c 1,19,-1
 452 5 l 1,0,1
EndSplineSet
EndChar

StartChar: uni0668
Encoding: 1640 1640 72
Width: 1017
VWidth: 1584
GlyphClass: 2
Flags: MW
LayerCount: 2
Back
Fore
SplineSet
865 -24 m 1,0,1
 704 196 704 196 632.5 374.5 c 128,-1,2
 561 553 561 553 494 850 c 1,3,4
 442 597 442 597 407 485 c 0,5,6
 338 266 338 266 126 -24 c 1,7,-1
 28 65 l 1,8,9
 158 244 158 244 227 391 c 128,-1,10
 296 538 296 538 339 714.5 c 128,-1,11
 382 891 382 891 431 1179 c 1,12,-1
 558 1179 l 1,13,14
 637 736 637 736 697 559.5 c 128,-1,15
 757 383 757 383 827.5 266.5 c 128,-1,16
 898 150 898 150 961 65 c 1,17,-1
 865 -24 l 1,0,1
EndSplineSet
EndChar

StartChar: uni0669
Encoding: 1641 1641 73
Width: 1017
VWidth: 1584
GlyphClass: 2
Flags: MW
LayerCount: 2
Back
Fore
SplineSet
360 1059 m 0,0,1
 358 1059 358 1059 356 1059 c 0,2,3
 303 1059 303 1059 264.5 1000 c 128,-1,4
 226 941 226 941 226 876.5 c 128,-1,5
 226 812 226 812 257.5 786.5 c 128,-1,6
 289 761 289 761 347 761 c 128,-1,7
 405 761 405 761 431 764 c 128,-1,8
 457 767 457 767 479 773 c 128,-1,9
 501 779 501 779 520.5 789.5 c 128,-1,10
 540 800 540 800 561 811 c 1,11,12
 544 928 544 928 485.5 993 c 128,-1,13
 427 1058 427 1058 360 1059 c 0,0,1
851 -37 m 1,14,15
 600 93 600 93 566 652 c 1,16,17
 484 610 484 610 390 610 c 0,18,19
 226 610 226 610 167 673 c 128,-1,20
 108 736 108 736 108 863.5 c 128,-1,21
 108 991 108 991 182 1100.5 c 128,-1,22
 256 1210 256 1210 366 1210 c 128,-1,23
 476 1210 476 1210 579 1086 c 128,-1,24
 682 962 682 962 682 757 c 0,25,26
 682 338 682 338 825 161 c 0,27,28
 859 119 859 119 903 96 c 1,29,-1
 851 -37 l 1,14,15
EndSplineSet
EndChar

StartChar: uni066A
Encoding: 1642 1642 74
Width: 996
VWidth: 1524
GlyphClass: 2
Flags: MW
LayerCount: 2
Back
Fore
SplineSet
162 -235 m 1,0,-1
 63 -235 l 1,1,-1
 842 1247 l 1,2,-1
 940 1247 l 1,3,-1
 162 -235 l 1,0,-1
885 -161 m 1,4,-1
 631 -161 l 1,5,-1
 631 95 l 1,6,-1
 885 95 l 1,7,-1
 885 -161 l 1,4,-1
371 910 m 1,8,-1
 114 910 l 1,9,-1
 114 1165 l 1,10,-1
 371 1165 l 1,11,-1
 371 910 l 1,8,-1
EndSplineSet
Validated: 1
EndChar

StartChar: uni066B
Encoding: 1643 1643 75
Width: 507
VWidth: 1524
GlyphClass: 2
Flags: MW
LayerCount: 2
Back
Fore
SplineSet
10 -398 m 1,0,-1
 -85 -398 l 1,1,-1
 380 828 l 1,2,-1
 482 828 l 1,3,-1
 10 -398 l 1,0,-1
EndSplineSet
Validated: 1
Substitution2: "'calt' Contextual Alternates in Arabic lookup 10 subtable" uni066B.ar
EndChar

StartChar: uni066C
Encoding: 1644 1644 76
Width: 507
VWidth: 1524
GlyphClass: 2
Flags: MW
LayerCount: 2
Back
Fore
SplineSet
316 79 m 1,0,1
 300 63 300 63 269 63 c 0,2,3
 238 63 238 63 210.5 91 c 128,-1,4
 183 119 183 119 183 157 c 0,5,6
 183 195 183 195 213.5 221 c 128,-1,7
 244 247 244 247 273 247 c 0,8,9
 400 247 400 247 400 125 c 0,10,11
 400 11 400 11 327.5 -80.5 c 128,-1,12
 255 -172 255 -172 131 -237 c 1,13,-1
 66 -189 l 1,14,15
 174 -144 174 -144 244.5 -65 c 128,-1,16
 315 14 315 14 317 71 c 1,17,-1
 316 79 l 1,0,1
EndSplineSet
Validated: 1
Substitution2: "'calt' Contextual Alternates in Arabic lookup 10 subtable" uni066C.ar
EndChar

StartChar: uni066B.ar
Encoding: 65537 -1 77
Width: 507
VWidth: 1524
GlyphClass: 2
Flags: MW
LayerCount: 2
Back
Fore
SplineSet
340 -49 m 1,0,1
 310 -77 310 -77 267 -77 c 0,2,3
 224 -77 224 -77 186 -40.5 c 128,-1,4
 148 -4 148 -4 148 49.5 c 128,-1,5
 148 103 148 103 186 140 c 0,6,7
 226 177 226 177 262 177 c 0,8,9
 333 177 333 177 387 127 c 128,-1,10
 441 77 441 77 441 -21.5 c 128,-1,11
 441 -120 441 -120 384.5 -200 c 128,-1,12
 328 -280 328 -280 206 -364 c 1,13,-1
 130 -319 l 1,14,15
 243 -259 243 -259 293.5 -197 c 128,-1,16
 344 -135 344 -135 344 -80 c 0,17,18
 344 -58 344 -58 340 -49 c 1,0,1
EndSplineSet
Validated: 1
EndChar

StartChar: uni066C.ar
Encoding: 65538 -1 78
Width: 507
VWidth: 1524
GlyphClass: 2
Flags: MW
LayerCount: 2
Back
Fore
SplineSet
404 409 m 1,0,1
 385 392 385 392 356 392 c 0,2,3
 327 392 327 392 301 416 c 128,-1,4
 275 440 275 440 275 476 c 256,5,6
 275 530 275 530 327 554 c 0,7,8
 342 561 342 561 371 561 c 0,9,10
 400 561 400 561 434.5 528 c 128,-1,11
 469 495 469 495 469 429 c 0,12,13
 469 296 469 296 314 199 c 1,14,-1
 263 228 l 1,15,16
 406 307 406 307 406 391 c 0,17,18
 406 399 406 399 404 409 c 1,0,1
EndSplineSet
Validated: 1
EndChar

StartChar: num.zero
Encoding: 1776 1776 79
Width: 1017
VWidth: 1584
GlyphClass: 2
Flags: MW
LayerCount: 2
Back
Fore
SplineSet
508 317 m 258,0,1
 410 317 410 317 343 388 c 128,-1,2
 276 459 276 459 273 562 c 256,3,4
 274 664 274 664 342 736 c 128,-1,5
 410 808 410 808 508 808 c 256,6,7
 604 808 604 808 673 736 c 128,-1,8
 742 664 742 664 742 562 c 256,9,10
 742 460 742 460 672.5 388.5 c 128,-1,11
 603 317 603 317 511 317 c 2,12,-1
 508 317 l 258,0,1
511 707 m 0,13,14
 508 707 508 707 505 707 c 0,15,16
 445 707 445 707 399.5 665.5 c 128,-1,17
 354 624 354 624 354 562 c 256,18,19
 354 470 354 470 448 430 c 0,20,21
 476 418 476 418 508 418 c 256,22,23
 570 418 570 418 616.5 461 c 128,-1,24
 663 504 663 504 663 562 c 256,25,26
 662 620 662 620 616.5 663.5 c 128,-1,27
 571 707 571 707 511 707 c 0,13,14
EndSplineSet
EndChar

StartChar: num.four
Encoding: 1780 1780 83
Width: 1017
VWidth: 1584
GlyphClass: 2
Flags: MW
LayerCount: 2
Back
Fore
SplineSet
651 899 m 1,0,1
 820 911 820 911 913 962 c 1,2,-1
 946 839 l 1,3,4
 789 746 789 746 636 746 c 128,-1,5
 483 746 483 746 372 814 c 1,6,7
 542 434 542 434 542 5 c 1,8,-1
 425 5 l 1,9,10
 424 456 424 456 216 854 c 0,11,12
 154 972 154 972 85 1077 c 1,13,-1
 180 1155 l 1,14,-1
 182 1160 l 1,15,16
 355 973 355 973 468 925 c 1,17,18
 446 978 446 978 446 1030 c 0,19,20
 446 1137 446 1137 518.5 1205.5 c 128,-1,21
 591 1274 591 1274 676.5 1274 c 128,-1,22
 762 1274 762 1274 790.5 1260.5 c 128,-1,23
 819 1247 819 1247 841 1238 c 1,24,-1
 836 1101 l 1,25,26
 746 1126 746 1126 694 1126 c 0,27,28
 642 1126 642 1126 603 1098 c 128,-1,29
 564 1070 564 1070 564 1037 c 128,-1,30
 564 1004 564 1004 575 984 c 128,-1,31
 586 964 586 964 600 947 c 128,-1,32
 614 930 614 930 629.5 917.5 c 128,-1,33
 645 905 645 905 651 899 c 1,0,1
EndSplineSet
EndChar

StartChar: num.five
Encoding: 1781 1781 84
Width: 1017
VWidth: 1584
GlyphClass: 2
Flags: MW
LayerCount: 2
Back
Fore
SplineSet
508 96 m 1,0,1
 443 -14 443 -14 322 -14 c 0,2,3
 172 -14 172 -14 126 134 c 0,4,5
 110 185 110 185 110 263 c 0,6,7
 110 408 110 408 186 582 c 128,-1,8
 262 756 262 756 419 1027 c 1,9,-1
 350 1091 l 1,10,-1
 428 1202 l 1,11,12
 734 921 734 921 836 675 c 0,13,14
 910 497 910 497 910 315.5 c 128,-1,15
 910 134 910 134 832 50 c 0,16,17
 772 -14 772 -14 683 -14 c 0,18,19
 563 -14 563 -14 508 96 c 1,0,1
574 331 m 1,20,21
 581 137 581 137 683 137 c 0,22,23
 792 137 792 137 792 314 c 0,24,25
 792 624 792 624 510 935 c 1,26,27
 371 695 371 695 321 583 c 0,28,29
 228 373 228 373 228 258 c 0,30,31
 228 194 228 194 255 165.5 c 128,-1,32
 282 137 282 137 320 137 c 0,33,34
 386 137 386 137 420.5 198.5 c 128,-1,35
 455 260 455 260 458 331 c 1,36,-1
 574 331 l 1,20,21
EndSplineSet
EndChar

StartChar: num.six
Encoding: 1782 1782 85
Width: 1017
VWidth: 1584
GlyphClass: 2
Flags: MW
LayerCount: 2
Back
Fore
SplineSet
287 916 m 2,0,-1
 287 914 l 2,1,2
 287 790 287 790 458 749 c 0,3,4
 518 735 518 735 582 735 c 128,-1,5
 646 735 646 735 681 740.5 c 128,-1,6
 716 746 716 746 747.5 758.5 c 128,-1,7
 779 771 779 771 813 787 c 128,-1,8
 847 803 847 803 893 824 c 1,9,-1
 940 687 l 1,10,11
 640 558 640 558 521 453 c 128,-1,12
 402 348 402 348 252 142 c 0,13,14
 200 70 200 70 134 -22 c 1,15,-1
 43 70 l 1,16,17
 266 385 266 385 382 509 c 0,18,19
 428 557 428 557 474 596 c 1,20,21
 324 620 324 620 247 708 c 128,-1,22
 170 796 170 796 170 913 c 128,-1,23
 170 1030 170 1030 294 1125 c 128,-1,24
 418 1220 418 1220 530 1220 c 128,-1,25
 642 1220 642 1220 778 1164 c 1,26,-1
 734 1025 l 1,27,28
 620 1072 620 1072 537 1072 c 128,-1,29
 454 1072 454 1072 370.5 1022.5 c 128,-1,30
 287 973 287 973 287 916 c 2,0,-1
EndSplineSet
EndChar

StartChar: As
Encoding: 65539 -1 89
Width: 561
VWidth: 1524
GlyphClass: 2
Flags: MW
LayerCount: 2
Back
Fore
SplineSet
341 0 m 1,0,-1
 222 0 l 1,1,-1
 222 863 l 1,2,-1
 341 863 l 1,3,-1
 341 0 l 1,0,-1
EndSplineSet
Validated: 1
EndChar

StartChar: uniFE8D
Encoding: 65165 65165 90
Width: 474
VWidth: 1524
GlyphClass: 2
Flags: MW
AnchorPoint: "Anchor-1" 234 -161 basechar 0
AnchorPoint: "Anchor-0" 188 1332 basechar 0
LayerCount: 2
Back
Fore
SplineSet
292 0 m 1,0,-1
 173 0 l 1,1,-1
 173 1141 l 1,2,-1
 292 1141 l 1,3,-1
 292 0 l 1,0,-1
EndSplineSet
Validated: 1
PairPos2: "'kern' Horizontal Kerning in Arabic lookup 0 subtable" gaf_ye.farsi.isol dx=50 dy=0 dh=50 dv=0 dx=0 dy=0 dh=0 dv=0
PairPos2: "'kern' Horizontal Kerning in Arabic lookup 0 subtable" kaf.farsi_ye.farsi.isol dx=50 dy=0 dh=50 dv=0 dx=0 dy=0 dh=0 dv=0
PairPos2: "'kern' Horizontal Kerning in Arabic lookup 0 subtable" uniFEDB dx=50 dy=0 dh=50 dv=0 dx=0 dy=0 dh=0 dv=0
PairPos2: "'kern' Horizontal Kerning in Arabic lookup 0 subtable" uniFE83 dx=62 dy=0 dh=62 dv=0 dx=0 dy=0 dh=0 dv=0
PairPos2: "'kern' Horizontal Kerning in Arabic lookup 0 subtable" uniFE81 dx=62 dy=0 dh=62 dv=0 dx=0 dy=0 dh=0 dv=0
PairPos2: "'kern' Horizontal Kerning in Arabic lookup 0 subtable" kaf.init dx=50 dy=0 dh=50 dv=0 dx=0 dy=0 dh=0 dv=0
PairPos2: "'kern' Horizontal Kerning in Arabic lookup 0 subtable" uniFB8E dx=50 dy=0 dh=50 dv=0 dx=0 dy=0 dh=0 dv=0
PairPos2: "'kern' Horizontal Kerning in Arabic lookup 0 subtable" uniFB50 dx=62 dy=0 dh=62 dv=0 dx=0 dy=0 dh=0 dv=0
PairPos2: "'kern' Horizontal Kerning in Arabic lookup 0 subtable" gaf.init dx=50 dy=0 dh=50 dv=0 dx=0 dy=0 dh=0 dv=0
PairPos2: "'kern' Horizontal Kerning in Arabic lookup 0 subtable" uniFB92 dx=50 dy=0 dh=50 dv=0 dx=0 dy=0 dh=0 dv=0
EndChar

StartChar: Af
Encoding: 65540 -1 91
Width: 612
VWidth: 1524
GlyphClass: 2
Flags: MW
LayerCount: 2
Back
Fore
SplineSet
614 0 m 1,0,-1
 520 0 l 2,1,2
 277 0 277 0 236 154 c 0,3,4
 222 206 222 206 222 278 c 2,5,-1
 222 863 l 1,6,-1
 341 863 l 1,7,-1
 341 278 l 1,8,9
 342 209 342 209 380 179.5 c 128,-1,10
 418 150 418 150 509 150 c 2,11,-1
 614 150 l 1,12,-1
 614 0 l 1,0,-1
EndSplineSet
Validated: 1
EndChar

StartChar: alef.fina
Encoding: 65166 65166 92
Width: 514
VWidth: 1524
GlyphClass: 2
Flags: MW
AnchorPoint: "Anchor-1" 234 -161 basechar 0
AnchorPoint: "Anchor-0" 176 1332 basechar 0
LayerCount: 2
Back
Fore
SplineSet
516 0 m 1,0,-1
 470 0 l 2,1,2
 302 0 302 0 238 64 c 0,3,4
 174 128 174 128 173 278 c 1,5,-1
 173 1141 l 1,6,-1
 292 1141 l 1,7,-1
 292 278 l 2,8,9
 292 210 292 210 331 180 c 0,10,11
 370 150 370 150 470 150 c 2,12,-1
 516 150 l 1,13,-1
 516 0 l 1,0,-1
EndSplineSet
Validated: 1
PairPos2: "'kern' Horizontal Kerning in Arabic lookup 0 subtable" gaf_ye.farsi.isol dx=50 dy=0 dh=50 dv=0 dx=0 dy=0 dh=0 dv=0
PairPos2: "'kern' Horizontal Kerning in Arabic lookup 0 subtable" kaf.farsi_ye.farsi.isol dx=50 dy=0 dh=50 dv=0 dx=0 dy=0 dh=0 dv=0
PairPos2: "'kern' Horizontal Kerning in Arabic lookup 0 subtable" uniFEDB dx=50 dy=0 dh=50 dv=0 dx=0 dy=0 dh=0 dv=0
PairPos2: "'kern' Horizontal Kerning in Arabic lookup 0 subtable" uniFE83 dx=62 dy=0 dh=62 dv=0 dx=0 dy=0 dh=0 dv=0
PairPos2: "'kern' Horizontal Kerning in Arabic lookup 0 subtable" uniFE81 dx=62 dy=0 dh=62 dv=0 dx=0 dy=0 dh=0 dv=0
PairPos2: "'kern' Horizontal Kerning in Arabic lookup 0 subtable" kaf.init dx=50 dy=0 dh=50 dv=0 dx=0 dy=0 dh=0 dv=0
PairPos2: "'kern' Horizontal Kerning in Arabic lookup 0 subtable" uniFB8E dx=50 dy=0 dh=50 dv=0 dx=0 dy=0 dh=0 dv=0
PairPos2: "'kern' Horizontal Kerning in Arabic lookup 0 subtable" uniFB50 dx=62 dy=0 dh=62 dv=0 dx=0 dy=0 dh=0 dv=0
PairPos2: "'kern' Horizontal Kerning in Arabic lookup 0 subtable" gaf.init dx=50 dy=0 dh=50 dv=0 dx=0 dy=0 dh=0 dv=0
PairPos2: "'kern' Horizontal Kerning in Arabic lookup 0 subtable" uniFB92 dx=50 dy=0 dh=50 dv=0 dx=0 dy=0 dh=0 dv=0
EndChar

StartChar: Bs
Encoding: 65541 -1 93
Width: 1725
VWidth: 1524
GlyphClass: 2
Flags: MW
LayerCount: 2
Back
Fore
SplineSet
1557 602 m 1,0,1
 1628 386 1628 386 1628 288 c 0,2,3
 1628 190 1628 190 1586 152 c 0,4,5
 1518 88 1518 88 1203 29.5 c 0,6,7
 888 -29 888 -29 712 -29 c 0,8,9
 536 -29 536 -29 437 -10 c 0,10,11
 107 52 107 52 107 284 c 0,12,13
 107 417 107 417 178 605 c 1,14,-1
 299 579 l 1,15,16
 289 544 289 544 258.5 453.5 c 128,-1,17
 228 363 228 363 228 283.5 c 128,-1,18
 228 204 228 204 343.5 162 c 128,-1,19
 459 120 459 120 649 120 c 0,20,21
 968 120 968 120 1329 205 c 0,22,23
 1451 234 1451 234 1478 247.5 c 128,-1,24
 1505 261 1505 261 1505 273 c 0,25,26
 1505 368 1505 368 1432 591 c 1,27,-1
 1557 602 l 1,0,1
EndSplineSet
Validated: 1
EndChar

StartChar: Bf
Encoding: 65542 -1 94
Width: 1825
VWidth: 1524
GlyphClass: 2
Flags: MW
LayerCount: 2
Back
Fore
SplineSet
1828 0 m 1,0,1
 1566 0 1566 0 1503 135 c 1,2,3
 1403 50 1403 50 1008 -5 c 0,4,5
 836 -29 836 -29 759 -29 c 2,6,-1
 679 -29 l 2,7,8
 408 -29 408 -29 257.5 48 c 128,-1,9
 107 125 107 125 107 283 c 0,10,11
 107 417 107 417 178 605 c 1,12,-1
 299 579 l 1,13,14
 288 544 288 544 258 454 c 128,-1,15
 228 364 228 364 228 284 c 128,-1,16
 228 204 228 204 343.5 162 c 128,-1,17
 459 120 459 120 659.5 120 c 128,-1,18
 860 120 860 120 1123 163.5 c 128,-1,19
 1386 207 1386 207 1444 275 c 0,20,21
 1485 323 1485 323 1501 372.5 c 128,-1,22
 1517 422 1517 422 1525 452 c 1,23,-1
 1540 494 l 1,24,-1
 1647 452 l 1,25,26
 1600 290 1600 290 1600 261 c 0,27,28
 1600 205 1600 205 1650.5 177.5 c 128,-1,29
 1701 150 1701 150 1828 150 c 1,30,-1
 1828 0 l 1,0,1
EndSplineSet
Validated: 1
EndChar

StartChar: Bi
Encoding: 65543 -1 95
Width: 507
VWidth: 1524
GlyphClass: 2
Flags: MW
LayerCount: 2
Back
Fore
SplineSet
341 586 m 1,0,1
 412 372 412 372 412 262 c 0,2,3
 412 152 412 152 314 76 c 0,4,5
 216 0 216 0 63 0 c 2,6,-1
 0 0 l 2,7,8
 -27 0 -27 0 -55 10 c 1,9,-1
 -55 150 l 1,10,-1
 63 150 l 2,11,12
 163 150 163 150 209.5 174 c 128,-1,13
 256 198 256 198 272 217 c 128,-1,14
 288 236 288 236 288 258 c 0,15,16
 288 348 288 348 217 575 c 1,17,-1
 341 586 l 1,0,1
EndSplineSet
Validated: 1
EndChar

StartChar: Bm
Encoding: 65544 -1 96
Width: 548
VWidth: 1524
GlyphClass: 2
Flags: MW
LayerCount: 2
Back
Fore
SplineSet
271 85 m 1,0,1
 194 0 194 0 27 0 c 2,2,-1
 0 0 l 2,3,4
 -27 0 -27 0 -55 10 c 1,5,-1
 -55 150 l 1,6,-1
 27 150 l 2,7,8
 125 150 125 150 172 185.5 c 128,-1,9
 219 221 219 221 219 278 c 2,10,-1
 219 452 l 1,11,-1
 338 452 l 1,12,-1
 338 278 l 2,13,14
 338 212 338 212 382 181 c 0,15,16
 426 150 426 150 551 150 c 1,17,-1
 551 0 l 1,18,19
 333 0 333 0 271 85 c 1,0,1
EndSplineSet
Validated: 1
EndChar

StartChar: Js
Encoding: 65545 -1 97
Width: 1177
VWidth: 1524
GlyphClass: 2
Flags: MW
LayerCount: 2
Back
Fore
SplineSet
108 30 m 0,0,1
 108 350 108 350 584 523 c 1,2,-1
 382 633 l 1,3,4
 334 656 334 656 317 656 c 128,-1,5
 300 656 300 656 286 638 c 1,6,-1
 180 523 l 1,7,-1
 108 593 l 1,8,-1
 199 740 l 1,9,10
 208 751 208 751 218 763.5 c 128,-1,11
 228 776 228 776 253 791 c 128,-1,12
 278 806 278 806 319 806 c 128,-1,13
 360 806 360 806 438 766 c 1,14,-1
 696 627 l 1,15,16
 767 593 767 593 882 593 c 0,17,18
 914 593 914 593 939 592 c 1,19,-1
 1051 592 l 1,20,-1
 1051 442 l 1,21,-1
 950 442 l 2,22,23
 750 442 750 442 535 357 c 0,24,25
 233 238 233 238 233 38 c 128,-1,26
 233 -162 233 -162 416 -223 c 0,27,28
 488 -247 488 -247 584 -247 c 0,29,30
 824 -247 824 -247 989 -198 c 1,31,-1
 1020 -323 l 1,32,33
 805 -397 805 -397 584 -397 c 2,34,35
 581 -397 l 2,36,37
 209 -397 209 -397 128 -112 c 0,38,39
 108 -44 108 -44 108 30 c 0,0,1
EndSplineSet
Validated: 1
EndChar

StartChar: Jf
Encoding: 65546 -1 98
Width: 1177
VWidth: 1524
GlyphClass: 2
Flags: MW
LayerCount: 2
Back
Fore
SplineSet
108 30 m 0,0,1
 108 350 108 350 584 523 c 1,2,-1
 382 633 l 1,3,4
 334 656 334 656 317 656 c 128,-1,5
 300 656 300 656 286 638 c 1,6,-1
 180 523 l 1,7,-1
 108 593 l 1,8,-1
 199 740 l 1,9,10
 208 751 208 751 218 763.5 c 128,-1,11
 228 776 228 776 253 791 c 128,-1,12
 278 806 278 806 319 806 c 128,-1,13
 360 806 360 806 438 766 c 1,14,-1
 696 627 l 1,15,16
 767 593 767 593 882 593 c 0,17,18
 914 593 914 593 939 592 c 1,19,-1
 1051 592 l 1,20,-1
 1051 442 l 1,21,-1
 930 442 l 1,22,-1
 985 289 l 2,23,24
 1008 223 1008 223 1038 197 c 0,25,26
 1094 150 1094 150 1179 150 c 1,27,-1
 1179 0 l 1,28,29
 985 0 985 0 911 150 c 0,30,31
 888 196 888 196 874 252 c 1,32,-1
 825 431 l 1,33,34
 370 354 370 354 260 156 c 0,35,36
 232 106 232 106 232 46 c 0,37,38
 234 -247 234 -247 597 -247 c 0,39,40
 824 -247 824 -247 989 -198 c 1,41,-1
 1020 -323 l 1,42,43
 805 -397 805 -397 584 -397 c 2,44,45
 581 -397 l 2,46,47
 209 -397 209 -397 128 -112 c 0,48,49
 108 -44 108 -44 108 30 c 0,0,1
EndSplineSet
Validated: 1
EndChar

StartChar: Ji
Encoding: 65547 -1 99
Width: 1177
VWidth: 1524
GlyphClass: 2
Flags: MW
LayerCount: 2
Back
Fore
SplineSet
1068 276 m 1,0,-1
 970 276 l 2,1,2
 893 276 893 276 827 230 c 1,3,4
 651 93 651 93 529 46.5 c 128,-1,5
 407 0 407 0 337 0 c 2,6,-1
 0 0 l 2,7,8
 -27 0 -27 0 -55 10 c 1,9,-1
 -55 150 l 1,10,-1
 337 150 l 2,11,12
 462 150 462 150 640 265 c 0,13,14
 684 293 684 293 708 314 c 1,15,16
 698 319 698 319 686 324 c 128,-1,17
 674 329 674 329 666 335 c 1,18,-1
 396 492 l 1,19,20
 350 516 350 516 328 516 c 128,-1,21
 306 516 306 516 286 494 c 2,22,-1
 184 384 l 1,23,-1
 109 456 l 1,24,-1
 206 600 l 1,25,26
 254 666 254 666 344 666 c 0,27,28
 388 666 388 666 454 624 c 1,29,-1
 723 466 l 1,30,31
 796 430 796 430 874 428 c 128,-1,32
 952 426 952 426 1012 426 c 2,33,-1
 1068 426 l 1,34,-1
 1068 276 l 1,0,-1
EndSplineSet
Validated: 1
EndChar

StartChar: Jm
Encoding: 65548 -1 100
Width: 1201
VWidth: 1524
GlyphClass: 2
Flags: MW
LayerCount: 2
Back
Fore
SplineSet
1204 0 m 1,0,1
 1016 0 1016 0 944.5 38 c 128,-1,2
 873 76 873 76 832 196 c 2,3,-1
 821 228 l 1,4,5
 632 88 632 88 522 44.5 c 128,-1,6
 412 1 412 1 331 0 c 1,7,-1
 0 0 l 2,8,9
 -27 0 -27 0 -55 10 c 1,10,-1
 -55 150 l 1,11,-1
 331 150 l 2,12,13
 456 150 456 150 634 265 c 0,14,15
 678 293 678 293 703 314 c 1,16,17
 693 319 693 319 680.5 324 c 128,-1,18
 668 329 668 329 661 335 c 1,19,-1
 391 492 l 1,20,21
 345 516 345 516 322 516 c 128,-1,22
 299 516 299 516 282 494 c 1,23,-1
 180 384 l 1,24,-1
 105 456 l 1,25,-1
 201 600 l 1,26,27
 248 666 248 666 338 666 c 0,28,29
 382 666 382 666 449 624 c 1,30,-1
 719 466 l 1,31,32
 792 430 792 430 870 428 c 128,-1,33
 948 426 948 426 1008 426 c 2,34,-1
 1063 426 l 1,35,-1
 1063 276 l 1,36,-1
 964 276 l 2,37,38
 953 276 953 276 941.5 274.5 c 128,-1,39
 930 273 930 273 921 272 c 1,40,-1
 931 251 l 2,41,42
 958 194 958 194 1015 172 c 128,-1,43
 1072 150 1072 150 1204 150 c 1,44,-1
 1204 0 l 1,0,1
EndSplineSet
Validated: 1
EndChar

StartChar: Ds
Encoding: 65549 -1 101
Width: 898
VWidth: 1524
GlyphClass: 2
Flags: MW
LayerCount: 2
Back
Fore
SplineSet
690 215 m 0,0,1
 690 453 690 453 453 683 c 1,2,-1
 530 798 l 1,3,4
 689 653 689 653 773 433 c 0,5,6
 811 334 811 334 811 215 c 0,7,8
 811 118 811 118 652 45 c 128,-1,9
 493 -28 493 -28 357.5 -28 c 128,-1,10
 222 -28 222 -28 147 18 c 1,11,-1
 206 150 l 1,12,13
 252 123 252 123 314 123 c 0,14,15
 515 123 515 123 631 169 c 0,16,17
 690 192 690 192 690 215 c 0,0,1
EndSplineSet
Validated: 1
EndChar

StartChar: Df
Encoding: 65550 -1 102
Width: 1053
VWidth: 1524
GlyphClass: 2
Flags: MW
LayerCount: 2
Back
Fore
SplineSet
718 225 m 1,0,1
 708 245 708 245 476 720 c 1,2,-1
 584 788 l 1,3,-1
 815 311 l 1,4,5
 866 210 866 210 913.5 180 c 128,-1,6
 961 150 961 150 1055 150 c 1,7,-1
 1055 0 l 1,8,9
 956 0 956 0 897.5 22.5 c 128,-1,10
 839 45 839 45 789 106 c 1,11,12
 646 14 646 14 458 -18 c 0,13,14
 396 -28 396 -28 339 -28 c 0,15,16
 222 -28 222 -28 147 18 c 1,17,-1
 206 150 l 1,18,19
 252 123 252 123 341.5 123 c 128,-1,20
 431 123 431 123 538.5 152.5 c 128,-1,21
 646 182 646 182 718 225 c 1,0,1
EndSplineSet
Validated: 1
EndChar

StartChar: Rs
Encoding: 65551 -1 103
Width: 840
VWidth: 1524
GlyphClass: 2
Flags: MW
LayerCount: 2
Back
Fore
SplineSet
63 -290 m 1,0,1
 494 -134 494 -134 590 42 c 0,2,3
 611 79 611 79 611 138 c 0,4,5
 611 197 611 197 581 288.5 c 0,6,7
 551 380 551 380 521 417 c 1,8,-1
 616 510 l 1,9,10
 687 422 687 422 725 230 c 0,11,12
 736 174 736 174 736 118 c 0,13,14
 736 10 736 10 642 -104 c 0,15,16
 481 -301 481 -301 103 -434 c 1,17,-1
 63 -290 l 1,0,1
EndSplineSet
Validated: 1
EndChar

StartChar: Rf
Encoding: 65552 -1 104
Width: 981
VWidth: 1524
GlyphClass: 2
Flags: MW
LayerCount: 2
Back
Fore
SplineSet
981 0 m 1,0,1
 818 0 818 0 737 60 c 1,2,3
 695 -168 695 -168 249 -368 c 0,4,5
 181 -398 181 -398 118 -427 c 1,6,-1
 67 -293 l 1,7,8
 128 -263 128 -263 194 -233 c 0,9,10
 443 -120 443 -120 534 -31 c 128,-1,11
 625 58 625 58 625 148 c 0,12,13
 625 312 625 312 575 430 c 1,14,-1
 692 476 l 1,15,-1
 742 301 l 1,16,17
 766 221 766 221 797 197 c 0,18,19
 857 150 857 150 981 150 c 1,20,-1
 981 0 l 1,0,1
EndSplineSet
Validated: 1
EndChar

StartChar: Ss
Encoding: 65553 -1 105
Width: 2003
VWidth: 1524
GlyphClass: 2
Flags: MW
LayerCount: 2
Back
Fore
SplineSet
975 8 m 0,0,1
 975 121 975 121 865 290 c 1,2,-1
 969 368 l 1,3,-1
 1020 288 l 2,4,5
 1065 219 1065 219 1107 184.5 c 128,-1,6
 1149 150 1149 150 1214.5 150 c 128,-1,7
 1280 150 1280 150 1320 195 c 128,-1,8
 1360 240 1360 240 1360 278 c 2,9,-1
 1360 392 l 1,10,-1
 1481 392 l 1,11,-1
 1481 272 l 1,12,13
 1482 180 1482 180 1568 156 c 0,14,15
 1592 150 1592 150 1621 150 c 128,-1,16
 1650 150 1650 150 1697.5 163 c 128,-1,17
 1745 176 1745 176 1764.5 207 c 128,-1,18
 1784 238 1784 238 1786 258 c 0,19,20
 1786 341 1786 341 1713 575 c 1,21,-1
 1837 586 l 1,22,23
 1895 409 1895 409 1901.5 350.5 c 128,-1,24
 1908 292 1908 292 1908 249 c 0,25,26
 1908 156 1908 156 1818.5 78 c 0,27,28
 1729 0 1729 0 1604.5 0 c 128,-1,29
 1480 0 1480 0 1411 98 c 1,30,31
 1337 0 1337 0 1220 0 c 0,32,33
 1141 0 1141 0 1096 20 c 1,34,-1
 1096 10 l 2,35,36
 1096 -188 1096 -188 886 -290 c 0,37,38
 717 -372 717 -372 446 -372 c 0,39,40
 277 -372 277 -372 183.5 -291 c 128,-1,41
 90 -210 90 -210 90 -61.5 c 128,-1,42
 90 87 90 87 221 308 c 1,43,-1
 320 263 l 1,44,45
 216 68 216 68 216 -42 c 0,46,47
 216 -108 216 -108 230 -135 c 128,-1,48
 244 -162 244 -162 273 -182 c 0,49,50
 336 -224 336 -224 422 -224 c 0,51,52
 849 -222 849 -222 953 -68 c 0,53,54
 975 -34 975 -34 975 8 c 0,0,1
EndSplineSet
Validated: 1
EndChar

StartChar: Sf
Encoding: 65554 -1 106
Width: 2090
VWidth: 1524
GlyphClass: 2
Flags: MWO
LayerCount: 2
Back
Fore
SplineSet
1481 272 m 2,0,1
 1481 150 1481 150 1619 150 c 128,-1,2
 1757 150 1757 150 1757 282 c 2,3,-1
 1757 392 l 1,4,-1
 1877 392 l 1,5,-1
 1877 275 l 2,6,7
 1877 150 1877 150 2010 150 c 2,8,-1
 2092 150 l 1,9,-1
 2092 0 l 1,10,-1
 2010 0 l 2,11,12
 1871 0 1871 0 1806 102 c 1,13,14
 1730 0 1730 0 1618 0 c 4,15,16
 1480 0 1480 0 1411 98 c 1,17,18
 1338 0 1338 0 1220 0 c 0,19,20
 1141 0 1141 0 1096 20 c 1,21,-1
 1096 10 l 2,22,23
 1096 -188 1096 -188 886 -290 c 0,24,25
 717 -372 717 -372 446 -372 c 0,26,27
 90 -372 90 -372 90 -62 c 0,28,29
 90 86 90 86 221 308 c 1,30,-1
 320 263 l 1,31,32
 216 68 216 68 216 -38 c 0,33,34
 216 -238 216 -238 469 -238 c 0,35,36
 975 -238 975 -238 975 8 c 0,37,38
 975 121 975 121 865 290 c 1,39,-1
 969 368 l 1,40,-1
 1020 288 l 2,41,42
 1064 219 1064 219 1106 184.5 c 128,-1,43
 1148 150 1148 150 1214 150 c 0,44,45
 1360 150 1360 150 1360 278 c 2,46,-1
 1360 392 l 1,47,-1
 1481 392 l 1,48,-1
 1481 272 l 2,0,1
EndSplineSet
EndChar

StartChar: Si
Encoding: 65555 -1 107
Width: 1486
VWidth: 1524
GlyphClass: 2
Flags: MW
LayerCount: 2
Back
Fore
SplineSet
570 268 m 2,0,1
 570 150 570 150 710 150 c 0,2,3
 763 150 763 150 804 195 c 128,-1,4
 845 240 845 240 845 278 c 2,5,-1
 845 392 l 1,6,-1
 964 392 l 1,7,-1
 964 272 l 2,8,9
 964 212 964 212 1004.5 181 c 128,-1,10
 1045 150 1045 150 1106 150 c 128,-1,11
 1167 150 1167 150 1217 182.5 c 128,-1,12
 1267 215 1267 215 1267 258 c 0,13,14
 1267 351 1267 351 1195 575 c 1,15,-1
 1322 586 l 1,16,17
 1391 378 1391 378 1391 269 c 0,18,19
 1391 160 1391 160 1301.5 81 c 0,20,21
 1212 2 1212 2 1088 0 c 0,22,23
 1087 0 1087 0 1086 0 c 0,24,25
 962 0 962 0 894 98 c 1,26,27
 820 0 820 0 692.5 0 c 128,-1,28
 565 0 565 0 499 94 c 1,29,30
 472 55 472 55 414.5 27.5 c 128,-1,31
 357 0 357 0 289 0 c 2,32,-1
 0 0 l 2,33,34
 -27 0 -27 0 -55 10 c 1,35,-1
 -55 150 l 1,36,-1
 289 150 l 2,37,38
 354 150 354 150 401 195 c 128,-1,39
 448 240 448 240 449 274 c 1,40,-1
 449 392 l 1,41,-1
 570 392 l 1,42,-1
 570 268 l 2,0,1
EndSplineSet
Validated: 1
EndChar

StartChar: Sm
Encoding: 65556 -1 108
Width: 1574
VWidth: 1524
GlyphClass: 2
Flags: MW
LayerCount: 2
Back
Fore
SplineSet
570 268 m 2,0,1
 570 150 570 150 710 150 c 0,2,3
 763 150 763 150 804 195 c 128,-1,4
 845 240 845 240 845 278 c 2,5,-1
 845 392 l 1,6,-1
 964 392 l 1,7,-1
 964 272 l 2,8,9
 964 212 964 212 1004.5 181 c 128,-1,10
 1045 150 1045 150 1102 150 c 0,11,12
 1159 150 1159 150 1199 196.5 c 128,-1,13
 1239 243 1239 243 1239 282 c 2,14,-1
 1239 392 l 1,15,-1
 1359 392 l 1,16,-1
 1359 275 l 1,17,18
 1360 213 1360 213 1401 181.5 c 128,-1,19
 1442 150 1442 150 1493 150 c 2,20,-1
 1575 150 l 1,21,-1
 1575 0 l 1,22,-1
 1493 0 l 2,23,24
 1401 0 1401 0 1330 57 c 0,25,26
 1305 77 1305 77 1289 102 c 1,27,28
 1213 0 1213 0 1088 0 c 128,-1,29
 963 0 963 0 894 98 c 1,30,31
 820 0 820 0 692.5 0 c 128,-1,32
 565 0 565 0 499 94 c 1,33,34
 472 55 472 55 414.5 27.5 c 128,-1,35
 357 0 357 0 289 0 c 2,36,-1
 0 0 l 2,37,38
 -27 0 -27 0 -55 10 c 1,39,-1
 -55 150 l 1,40,-1
 289 150 l 2,41,42
 354 150 354 150 401 195 c 128,-1,43
 448 240 448 240 449 274 c 1,44,-1
 449 392 l 1,45,-1
 570 392 l 1,46,-1
 570 268 l 2,0,1
EndSplineSet
Validated: 1
EndChar

StartChar: Zs
Encoding: 65557 -1 109
Width: 2134
VWidth: 1524
GlyphClass: 2
Flags: MW
LayerCount: 2
Back
Fore
SplineSet
1484 150 m 2,0,1
 1694 150 1694 150 1806 210 c 128,-1,2
 1918 270 1918 270 1918 352 c 0,3,4
 1918 393 1918 393 1892 423 c 0,5,6
 1841 482 1841 482 1787 482 c 0,7,8
 1651 482 1651 482 1460 270 c 0,9,10
 1408 210 1408 210 1360 150 c 1,11,-1
 1484 150 l 2,0,1
975 8 m 0,12,13
 975 121 975 121 865 290 c 1,14,-1
 969 368 l 1,15,-1
 1020 288 l 1,16,17
 1099 156 1099 156 1197 153 c 1,18,19
 1416 446 1416 446 1572 554 c 0,20,21
 1685 632 1685 632 1770.5 632 c 0,22,23
 1856 632 1856 632 1922 580 c 0,24,25
 2041 484 2041 484 2041 332 c 0,26,27
 2041 289 2041 289 2007.5 225 c 128,-1,28
 1974 161 1974 161 1905 111 c 0,29,30
 1752 0 1752 0 1484 0 c 2,31,-1
 1230 0 l 2,32,33
 1141 0 1141 0 1096 20 c 1,34,-1
 1096 10 l 2,35,36
 1096 -188 1096 -188 886 -290 c 0,37,38
 717 -372 717 -372 446 -372 c 0,39,40
 277 -372 277 -372 183.5 -291 c 128,-1,41
 90 -210 90 -210 90 -61.5 c 128,-1,42
 90 87 90 87 221 308 c 1,43,-1
 320 263 l 1,44,45
 216 68 216 68 216 -42 c 0,46,47
 216 -108 216 -108 230 -135 c 128,-1,48
 244 -162 244 -162 273 -182 c 0,49,50
 336 -224 336 -224 422 -224 c 0,51,52
 849 -222 849 -222 953 -68 c 0,53,54
 975 -34 975 -34 975 8 c 0,12,13
EndSplineSet
Validated: 1
EndChar

StartChar: Zf
Encoding: 65558 -1 110
Width: 2187
VWidth: 1524
GlyphClass: 2
Flags: MW
LayerCount: 2
Back
Fore
SplineSet
1486 150 m 2,0,1
 1694 150 1694 150 1806.5 210.5 c 0,2,3
 1919 271 1919 271 1919 355 c 0,4,5
 1919 394 1919 394 1894 423 c 0,6,7
 1844 482 1844 482 1789 482 c 0,8,9
 1691 482 1691 482 1585 390 c 128,-1,10
 1479 298 1479 298 1361 150 c 1,11,-1
 1486 150 l 2,0,1
975 8 m 0,12,13
 975 121 975 121 865 290 c 1,14,-1
 969 368 l 1,15,-1
 1020 288 l 1,16,17
 1099 156 1099 156 1199 153 c 1,18,19
 1426 450 1426 450 1578 552 c 0,20,21
 1697 632 1697 632 1796 632 c 0,22,23
 1895 632 1895 632 1968.5 535 c 128,-1,24
 2042 438 2042 438 2042 346 c 128,-1,25
 2042 254 2042 254 1966 164 c 1,26,27
 2014 150 2014 150 2189 150 c 1,28,-1
 2189 0 l 1,29,30
 2084 0 2084 0 2044 4 c 2,31,-1
 1977 12 l 2,32,33
 1909 20 1909 20 1812 59 c 1,34,35
 1666 0 1666 0 1486 0 c 2,36,-1
 1231 0 l 2,37,38
 1141 0 1141 0 1096 20 c 1,39,-1
 1096 10 l 2,40,41
 1096 -188 1096 -188 886 -290 c 0,42,43
 717 -372 717 -372 446 -372 c 0,44,45
 277 -372 277 -372 183.5 -291 c 128,-1,46
 90 -210 90 -210 90 -61.5 c 128,-1,47
 90 87 90 87 221 308 c 1,48,-1
 320 263 l 1,49,50
 216 68 216 68 216 -42 c 0,51,52
 216 -108 216 -108 230 -135 c 128,-1,53
 244 -162 244 -162 273 -182 c 0,54,55
 336 -224 336 -224 422 -224 c 0,56,57
 849 -222 849 -222 953 -68 c 0,58,59
 975 -34 975 -34 975 8 c 0,12,13
EndSplineSet
Validated: 1
EndChar

StartChar: Zi
Encoding: 65559 -1 111
Width: 1434
VWidth: 1524
GlyphClass: 2
Flags: MW
LayerCount: 2
Back
Fore
SplineSet
497 148 m 1,0,1
 864 628 864 628 1075 628 c 0,2,3
 1222 628 1222 628 1304 470 c 0,4,5
 1340 402 1340 402 1340 343 c 128,-1,6
 1340 284 1340 284 1306 220 c 128,-1,7
 1272 156 1272 156 1204 107 c 0,8,9
 1046 -6 1046 -6 783 -6 c 2,10,-1
 523 -6 l 2,11,12
 475 -6 475 -6 415.5 17.5 c 128,-1,13
 356 41 356 41 320 94 c 1,14,15
 295 57 295 57 236 28.5 c 128,-1,16
 177 0 177 0 110 0 c 2,17,-1
 0 0 l 2,18,19
 -27 0 -27 0 -55 10 c 1,20,-1
 -55 150 l 1,21,-1
 110 150 l 2,22,23
 174 150 174 150 222 195 c 128,-1,24
 270 240 270 240 270 274 c 2,25,-1
 270 392 l 1,26,-1
 391 392 l 1,27,-1
 391 268 l 1,28,29
 392 182 392 182 462 155 c 0,30,31
 480 148 480 148 497 148 c 1,0,1
783 146 m 2,32,33
 1098 146 1098 146 1191 274 c 0,34,35
 1217 310 1217 310 1217 348.5 c 128,-1,36
 1217 387 1217 387 1178.5 431.5 c 128,-1,37
 1140 476 1140 476 1086 476 c 0,38,39
 1085 476 1085 476 1084 476 c 0,40,41
 986 476 986 476 879 383.5 c 0,42,43
 772 291 772 291 660 146 c 1,44,-1
 783 146 l 2,32,33
EndSplineSet
Validated: 1
EndChar

StartChar: Zm
Encoding: 65560 -1 112
Width: 1486
VWidth: 1524
GlyphClass: 2
Flags: MW
LayerCount: 2
Back
Fore
SplineSet
1260 160 m 1,0,1
 1300 150 1300 150 1488 150 c 1,2,-1
 1488 0 l 1,3,4
 1277 0 1277 0 1215 18 c 128,-1,5
 1153 36 1153 36 1105 55 c 1,6,7
 954 -6 954 -6 780 -6 c 2,8,-1
 519 -6 l 2,9,10
 471 -6 471 -6 412.5 17 c 128,-1,11
 354 40 354 40 316 94 c 1,12,13
 290 56 290 56 231.5 28 c 128,-1,14
 173 0 173 0 107 0 c 2,15,-1
 0 0 l 2,16,17
 -27 0 -27 0 -55 10 c 1,18,-1
 -55 150 l 1,19,-1
 107 150 l 2,20,21
 168 150 168 150 217 194.5 c 128,-1,22
 266 239 266 239 266 274 c 2,23,-1
 266 392 l 1,24,-1
 387 392 l 1,25,-1
 387 268 l 1,26,27
 388 182 388 182 458 155 c 0,28,29
 476 148 476 148 493 148 c 1,30,31
 716 440 716 440 872 548 c 0,32,33
 988 628 988 628 1089 628 c 128,-1,34
 1190 628 1190 628 1263 531 c 0,35,36
 1336 434 1336 434 1336 341.5 c 0,37,38
 1336 249 1336 249 1260 160 c 1,0,1
780 146 m 2,39,40
 992 146 992 146 1102.5 206 c 0,41,42
 1213 266 1213 266 1213 340 c 0,43,44
 1213 414 1213 414 1138 463 c 0,45,46
 1115 477 1115 477 1072 477 c 0,47,48
 914 477 914 477 656 146 c 1,49,-1
 780 146 l 2,39,40
EndSplineSet
Validated: 1
EndChar

StartChar: Ts
Encoding: 65561 -1 113
Width: 1249
VWidth: 1524
GlyphClass: 2
Flags: MW
LayerCount: 2
Back
Fore
SplineSet
252 162 m 1,0,-1
 276 191 l 1,1,-1
 276 1141 l 1,2,-1
 397 1141 l 1,3,-1
 397 325 l 1,4,5
 675 628 675 628 902 628 c 0,6,7
 974 628 974 628 1046.5 569.5 c 128,-1,8
 1119 511 1119 511 1148 402 c 0,9,10
 1156 372 1156 372 1156 328 c 128,-1,11
 1156 284 1156 284 1121 220 c 128,-1,12
 1086 156 1086 156 1016 107 c 0,13,14
 853 -6 853 -6 556 -6 c 128,-1,15
 259 -6 259 -6 123 43 c 1,16,-1
 164 185 l 1,17,18
 202 169 202 169 252 162 c 1,0,-1
415 148 m 1,19,20
 461 146 461 146 507 146 c 2,21,-1
 593 146 l 2,22,23
 806 146 806 146 919 206 c 128,-1,24
 1032 266 1032 266 1032 340 c 128,-1,25
 1032 414 1032 414 956 462 c 0,26,27
 929 478 929 478 885.5 478 c 0,28,29
 842 478 842 478 775 449 c 0,30,31
 708 420 708 420 625 356 c 128,-1,32
 542 292 542 292 415 148 c 1,19,20
EndSplineSet
Validated: 1
EndChar

StartChar: Tf
Encoding: 65562 -1 114
Width: 1302
VWidth: 1524
GlyphClass: 2
Flags: MW
LayerCount: 2
Back
Fore
SplineSet
413 148 m 1,0,1
 458 146 458 146 504 146 c 2,2,-1
 590 146 l 2,3,4
 802 146 802 146 916 206 c 128,-1,5
 1030 266 1030 266 1031 347 c 0,6,7
 1030 387 1030 387 1004 418 c 0,8,9
 952 477 952 477 894 477 c 0,10,11
 780 477 780 477 660 384.5 c 128,-1,12
 540 292 540 292 413 148 c 1,0,1
159 186 m 1,13,14
 177 178 177 178 251 162 c 1,15,16
 273 190 273 190 274 191 c 1,17,-1
 274 1141 l 1,18,-1
 395 1141 l 1,19,-1
 395 325 l 1,20,21
 673 628 673 628 900 628 c 0,22,23
 971 628 971 628 1043.5 569.5 c 128,-1,24
 1116 511 1116 511 1145 402 c 0,25,26
 1153 372 1153 372 1153 347 c 0,27,28
 1153 247 1153 247 1072 158 c 1,29,30
 1108 150 1108 150 1165 150 c 2,31,-1
 1306 150 l 1,32,-1
 1306 0 l 1,33,34
 1096 0 1096 0 1029.5 18 c 128,-1,35
 963 36 963 36 917 55 c 1,36,37
 766 -6 766 -6 577 -6 c 0,38,39
 256 -6 256 -6 120 43 c 1,40,-1
 159 186 l 1,13,14
EndSplineSet
Validated: 1
EndChar

StartChar: Ti
Encoding: 65563 -1 115
Width: 1145
VWidth: 1524
GlyphClass: 2
Flags: MW
LayerCount: 2
Back
Fore
SplineSet
489 150 m 2,0,1
 701 150 701 150 815 208 c 128,-1,2
 929 266 929 266 929 340 c 128,-1,3
 929 414 929 414 852 464 c 0,4,5
 827 479 827 479 785 479 c 0,6,7
 743 479 743 479 672 448 c 0,8,9
 514 378 514 378 312 150 c 1,10,-1
 489 150 l 2,0,1
139 150 m 1,11,-1
 173 190 l 1,12,-1
 173 1141 l 1,13,-1
 293 1141 l 1,14,-1
 293 325 l 1,15,16
 576 628 576 628 799 628 c 0,17,18
 866 628 866 628 940 570 c 128,-1,19
 1014 512 1014 512 1043 402 c 0,20,21
 1051 371 1051 371 1051 329 c 0,22,23
 1051 287 1051 287 1016.5 221.5 c 0,24,25
 982 156 982 156 912 108 c 0,26,27
 757 0 757 0 489 0 c 2,28,-1
 0 0 l 2,29,30
 -27 0 -27 0 -55 10 c 1,31,-1
 -55 150 l 1,32,-1
 139 150 l 1,11,-1
EndSplineSet
Validated: 1
EndChar

StartChar: Tm
Encoding: 65564 -1 116
Width: 1201
VWidth: 1524
GlyphClass: 2
Flags: MW
LayerCount: 2
Back
Fore
SplineSet
491 150 m 2,0,1
 704 150 704 150 817 208 c 128,-1,2
 930 266 930 266 930 341 c 128,-1,3
 930 416 930 416 859 458 c 0,4,5
 827 477 827 477 782 477 c 0,6,7
 737 477 737 477 673 448 c 0,8,9
 518 380 518 380 314 150 c 1,10,-1
 491 150 l 2,0,1
140 150 m 1,11,-1
 174 190 l 1,12,-1
 174 1141 l 1,13,-1
 295 1141 l 1,14,-1
 295 325 l 1,15,16
 428 468 428 468 513 522 c 0,17,18
 677 628 677 628 791.5 628 c 128,-1,19
 906 628 906 628 979 530 c 0,20,21
 1052 432 1052 432 1052 339 c 0,22,23
 1052 246 1052 246 972 158 c 1,24,25
 1008 150 1008 150 1064 150 c 2,26,-1
 1204 150 l 1,27,-1
 1204 0 l 1,28,29
 997 0 997 0 900 26 c 0,30,31
 859 36 859 36 812 55 c 1,32,33
 672 0 672 0 491 0 c 2,34,-1
 0 0 l 2,35,36
 -27 0 -27 0 -55 10 c 1,37,-1
 -55 150 l 1,38,-1
 140 150 l 1,11,-1
EndSplineSet
Validated: 1
EndChar

StartChar: Is
Encoding: 65565 -1 117
Width: 981
VWidth: 1524
GlyphClass: 2
Flags: MW
LayerCount: 2
Back
Fore
SplineSet
462 763 m 0,0,1
 460 763 460 763 458 763 c 0,2,3
 417 763 417 763 370.5 729.5 c 128,-1,4
 324 696 324 696 324 658 c 0,5,6
 324 543 324 543 493 473 c 1,7,8
 635 537 635 537 804 578 c 1,9,-1
 831 442 l 1,10,11
 219 279 219 279 219 -38 c 0,12,13
 219 -151 219 -151 368 -210 c 0,14,15
 476 -254 476 -254 646 -254 c 0,16,17
 700 -254 700 -254 845 -249 c 1,18,-1
 866 -365 l 1,19,20
 742 -405 742 -405 662 -405 c 128,-1,21
 582 -405 582 -405 494 -395 c 128,-1,22
 406 -385 406 -385 319 -343 c 128,-1,23
 232 -301 232 -301 190 -260 c 0,24,25
 94 -167 94 -167 94 -36 c 0,26,27
 94 206 94 206 341 391 c 1,28,29
 203 486 203 486 203 660 c 0,30,31
 203 751 203 751 291.5 830 c 128,-1,32
 380 909 380 909 447 909 c 0,33,34
 448 909 448 909 449 909 c 0,35,36
 572 909 572 909 700 857 c 1,37,-1
 660 740 l 1,38,39
 607 763 607 763 462 763 c 0,0,1
EndSplineSet
Validated: 1
EndChar

StartChar: If
Encoding: 65566 -1 118
Width: 981
VWidth: 1524
GlyphClass: 2
Flags: MW
LayerCount: 2
Back
Fore
SplineSet
637 -237 m 0,0,1
 712 -237 712 -237 860 -233 c 1,2,-1
 871 -361 l 1,3,4
 767 -388 767 -388 659 -388 c 2,5,-1
 652 -388 l 2,6,7
 344 -388 344 -388 214 -257 c 0,8,9
 120 -162 120 -162 119 -33 c 0,10,11
 119 190 119 190 352 362 c 0,12,13
 435 424 435 424 544 469 c 1,14,15
 510 537 510 537 419 537 c 1,16,-1
 413 651 l 1,17,18
 550 707 550 707 631 707 c 128,-1,19
 712 707 712 707 768.5 668 c 128,-1,20
 825 629 825 629 825 561.5 c 128,-1,21
 825 494 825 494 754 420 c 0,22,23
 732 396 732 396 701 376 c 1,24,25
 747 235 747 235 810 192.5 c 128,-1,26
 873 150 873 150 981 150 c 1,27,-1
 981 0 l 1,28,29
 820 0 820 0 750 48 c 0,30,31
 650 116 650 116 586 328 c 1,32,33
 457 280 457 280 350.5 181 c 128,-1,34
 244 82 244 82 244 -33 c 0,35,36
 244 -104 244 -104 308 -156 c 0,37,38
 407 -236 407 -236 637 -237 c 0,0,1
EndSplineSet
Validated: 1
EndChar

StartChar: Ii
Encoding: 65567 -1 119
Width: 898
VWidth: 1524
GlyphClass: 2
Flags: MW
LayerCount: 2
Back
Fore
SplineSet
468 220 m 1,0,-1
 791 326 l 1,1,-1
 826 182 l 1,2,3
 732 148 732 148 640 116 c 0,4,5
 310 0 310 0 70 0 c 2,6,-1
 0 0 l 2,7,8
 -27 0 -27 0 -55 10 c 1,9,-1
 -55 150 l 1,10,-1
 70 150 l 2,11,12
 182 150 182 150 267 167 c 1,13,14
 131 281 131 281 131 457 c 0,15,16
 131 548 131 548 218.5 628 c 128,-1,17
 306 708 306 708 429.5 708 c 128,-1,18
 553 708 553 708 695 667 c 1,19,-1
 664 522 l 1,20,21
 520 558 520 558 440.5 558 c 128,-1,22
 361 558 361 558 307.5 526 c 128,-1,23
 254 494 254 494 254 461 c 0,24,25
 254 398 254 398 301.5 331 c 0,26,27
 349 264 349 264 468 220 c 1,0,-1
EndSplineSet
Validated: 1
EndChar

StartChar: Im
Encoding: 65568 -1 120
Width: 698
VWidth: 1524
GlyphClass: 2
Flags: MW
LayerCount: 2
Back
Fore
SplineSet
125 473 m 1,0,1
 292 535 292 535 370 535 c 0,2,3
 448 535 448 535 502 497.5 c 128,-1,4
 556 460 556 460 556 394 c 128,-1,5
 556 328 556 328 499 268 c 0,6,7
 482 249 482 249 460 226 c 1,8,9
 497 182 497 182 552 166 c 128,-1,10
 607 150 607 150 701 150 c 1,11,-1
 701 0 l 1,12,13
 577 0 577 0 522 20 c 0,14,15
 422 56 422 56 370 129 c 1,16,17
 263 28 263 28 134 9 c 0,18,19
 92 0 92 0 55 0 c 2,20,-1
 0 0 l 2,21,22
 -27 0 -27 0 -55 10 c 1,23,-1
 -55 150 l 1,24,-1
 55 150 l 2,25,26
 196 150 196 150 300 246 c 1,27,28
 233 362 233 362 130 362 c 1,29,-1
 125 473 l 1,0,1
EndSplineSet
Validated: 1
EndChar

StartChar: Fs
Encoding: 65569 -1 121
Width: 1647
VWidth: 1524
GlyphClass: 2
Flags: MW
LayerCount: 2
Back
Fore
SplineSet
1187 489 m 0,0,1
 1187 454 1187 454 1323 454 c 2,2,3
 1358 454 l 2,4,5
 1390 454 1390 454 1439 476 c 1,6,7
 1411 612 1411 612 1315 654 c 0,8,9
 1291 666 1291 666 1270.5 666 c 0,10,11
 1250 666 1250 666 1236 648 c 0,12,13
 1190 588 1190 588 1187 489 c 0,0,1
1323 304 m 0,14,15
 1066 304 1066 304 1066 489 c 0,16,17
 1066 596 1066 596 1112 681 c 0,18,19
 1184 814 1184 814 1266 814 c 0,20,21
 1370 814 1370 814 1456 722 c 0,22,23
 1562 612 1562 612 1562 438 c 0,24,25
 1562 158 1562 158 1482.5 94.5 c 128,-1,26
 1403 31 1403 31 1166 1 c 0,27,28
 929 -29 929 -29 737 -29 c 0,29,30
 734 -28 734 -28 635 -28 c 0,31,32
 536 -28 536 -28 437 -10 c 0,33,34
 107 52 107 52 107 284 c 0,35,36
 107 417 107 417 178 605 c 1,37,-1
 299 579 l 1,38,39
 288 544 288 544 258 454 c 128,-1,40
 228 364 228 364 228 284 c 128,-1,41
 228 204 228 204 344 162 c 128,-1,42
 460 120 460 120 632 120 c 0,43,44
 1168 120 1168 120 1385 204 c 1,45,46
 1425 224 1425 224 1438 321 c 1,47,48
 1392 304 1392 304 1323 304 c 0,14,15
EndSplineSet
Validated: 1
EndChar

StartChar: Ff
Encoding: 65570 -1 122
Width: 1647
VWidth: 1524
GlyphClass: 2
Flags: MW
LayerCount: 2
Back
Fore
SplineSet
228 286 m 0,0,1
 228 120 228 120 683 120 c 0,2,3
 907 120 907 120 1149 182 c 1,4,5
 1083 255 1083 255 1083 376.5 c 128,-1,6
 1083 498 1083 498 1230 606 c 0,7,8
 1294 653 1294 653 1358 653 c 128,-1,9
 1422 653 1422 653 1483 570.5 c 128,-1,10
 1544 488 1544 488 1544 384 c 128,-1,11
 1544 280 1544 280 1435 177 c 1,12,13
 1547 150 1547 150 1650 150 c 1,14,-1
 1650 0 l 1,15,16
 1447 0 1447 0 1289 79 c 1,17,18
 1045 -29 1045 -29 649 -29 c 0,19,20
 646 -29 646 -29 643 -29 c 0,21,22
 410 -29 410 -29 258.5 48 c 128,-1,23
 107 125 107 125 107 283 c 0,24,25
 107 417 107 417 178 605 c 1,26,-1
 299 579 l 1,27,28
 288 544 288 544 258 453.5 c 128,-1,29
 228 363 228 363 228 286 c 0,0,1
1292 242 m 1,30,31
 1423 321 1423 321 1423 388 c 0,32,33
 1423 430 1423 430 1399.5 467 c 128,-1,34
 1376 504 1376 504 1351 505 c 0,35,36
 1303 505 1303 505 1253.5 459.5 c 128,-1,37
 1204 414 1204 414 1204 372 c 128,-1,38
 1204 330 1204 330 1225.5 302 c 128,-1,39
 1247 274 1247 274 1292 242 c 1,30,31
EndSplineSet
Validated: 1
EndChar

StartChar: Fi
Encoding: 65571 -1 123
Width: 698
VWidth: 1524
GlyphClass: 2
Flags: MW
LayerCount: 2
Back
Fore
SplineSet
366 302 m 0,0,1
 108 302 108 302 108 487 c 0,2,3
 108 598 108 598 167 705 c 128,-1,4
 226 812 226 812 318 812 c 128,-1,5
 410 812 410 812 507.5 710 c 128,-1,6
 605 608 605 608 605 421 c 0,7,8
 605 154 605 154 526 92 c 0,9,10
 407 0 407 0 51 0 c 2,11,-1
 0 0 l 2,12,13
 -27 0 -27 0 -55 10 c 1,14,-1
 -55 150 l 1,15,-1
 51 150 l 2,16,17
 257 150 257 150 342 173 c 128,-1,18
 427 196 427 196 439.5 209 c 128,-1,19
 452 222 452 222 462 240 c 128,-1,20
 472 258 472 258 481 320 c 1,21,22
 432 302 432 302 366 302 c 0,0,1
228 487 m 0,23,24
 228 452 228 452 366 452 c 0,25,26
 430 452 430 452 482 475 c 1,27,28
 455 610 455 610 358 652 c 0,29,30
 332 664 332 664 313 664 c 128,-1,31
 294 664 294 664 284 652 c 0,32,33
 228 585 228 585 228 487 c 0,23,24
EndSplineSet
Validated: 1
EndChar

StartChar: Fm
Encoding: 65572 -1 124
Width: 698
VWidth: 1524
GlyphClass: 2
Flags: MW
LayerCount: 2
Back
Fore
SplineSet
348 233 m 1,0,1
 467 305 467 305 467 389 c 0,2,3
 467 427 467 427 441.5 465.5 c 128,-1,4
 416 504 416 504 392 504 c 0,5,6
 346 504 346 504 296 459.5 c 128,-1,7
 246 415 246 415 246 371.5 c 128,-1,8
 246 328 246 328 271.5 298 c 128,-1,9
 297 268 297 268 348 233 c 1,0,1
481 176 m 1,10,11
 587 150 587 150 701 150 c 1,12,-1
 701 0 l 1,13,14
 493 0 493 0 338 74 c 1,15,16
 192 0 192 0 39 0 c 2,17,-1
 0 0 l 2,18,19
 -27 0 -27 0 -55 10 c 1,20,-1
 -55 150 l 1,21,-1
 39 150 l 2,22,23
 121 150 121 150 200 173 c 1,24,25
 124 253 124 253 124 358.5 c 128,-1,26
 124 464 124 464 217.5 559 c 128,-1,27
 311 654 311 654 385.5 654 c 128,-1,28
 460 654 460 654 522 574 c 0,29,30
 585 491 585 491 585 383 c 0,31,32
 585 278 585 278 481 176 c 1,10,11
EndSplineSet
Validated: 1
EndChar

StartChar: Gs
Encoding: 65573 -1 125
Width: 1229
VWidth: 1524
GlyphClass: 2
Flags: MW
LayerCount: 2
Back
Fore
SplineSet
881 248 m 0,0,1
 941 248 941 248 996 269 c 1,2,3
 972 356 972 356 928.5 407 c 128,-1,4
 885 458 885 458 828 458 c 0,5,6
 796 458 796 458 770.5 403 c 128,-1,7
 745 348 745 348 745 287 c 0,8,9
 745 248 745 248 881 248 c 0,0,1
320 263 m 1,10,11
 216 68 216 68 216 -42 c 0,12,13
 216 -108 216 -108 230 -135 c 128,-1,14
 244 -162 244 -162 273 -182 c 0,15,16
 336 -224 336 -224 422 -224 c 0,17,18
 879 -221 879 -221 989 -68 c 0,19,20
 1013 -33 1013 -33 1014 10 c 1,21,-1
 1014 119 l 1,22,23
 949 98 949 98 866 98 c 128,-1,24
 783 98 783 98 722 124 c 0,25,26
 624 165 624 165 624 278.5 c 128,-1,27
 624 392 624 392 684 500 c 128,-1,28
 744 608 744 608 820 608 c 0,29,30
 821 608 821 608 822 608 c 0,31,32
 967 608 967 608 1051 468 c 128,-1,33
 1135 328 1135 328 1135 109 c 2,34,-1
 1135 10 l 2,35,36
 1135 -188 1135 -188 906 -290 c 0,37,38
 722 -372 722 -372 446 -372 c 0,39,40
 277 -372 277 -372 183.5 -291 c 128,-1,41
 90 -210 90 -210 90 -61.5 c 128,-1,42
 90 87 90 87 221 308 c 1,43,-1
 320 263 l 1,10,11
EndSplineSet
Validated: 1
EndChar

StartChar: Gf
Encoding: 65574 -1 126
Width: 1290
VWidth: 1524
GlyphClass: 2
Flags: MW
LayerCount: 2
Back
Fore
SplineSet
320 263 m 1,0,1
 216 68 216 68 216 -42 c 0,2,3
 216 -108 216 -108 230 -135 c 128,-1,4
 244 -162 244 -162 273 -182 c 0,5,6
 336 -224 336 -224 422 -224 c 0,7,8
 770 -222 770 -222 928 -128 c 0,9,10
 1020 -72 1020 -72 1020 12 c 1,11,12
 857 37 857 37 791.5 71 c 128,-1,13
 726 105 726 105 695.5 143.5 c 128,-1,14
 665 182 665 182 665 235 c 0,15,16
 665 349 665 349 725 456 c 128,-1,17
 785 563 785 563 867 564 c 0,18,19
 1127 564 1127 564 1139 153 c 1,20,21
 1205 150 1205 150 1291 150 c 1,22,-1
 1291 0 l 1,23,24
 1197 0 1197 0 1140 4 c 1,25,26
 1134 -194 1134 -194 905 -292 c 0,27,28
 717 -372 717 -372 446 -372 c 0,29,30
 277 -372 277 -372 183.5 -291 c 128,-1,31
 90 -210 90 -210 90 -61.5 c 128,-1,32
 90 87 90 87 221 308 c 1,33,-1
 320 263 l 1,0,1
1019 157 m 1,34,35
 1002 413 1002 413 867 413 c 0,36,37
 835 413 835 413 810 354 c 128,-1,38
 785 295 785 295 785 237 c 0,39,40
 785 189 785 189 930 168 c 0,41,42
 972 162 972 162 1019 157 c 1,34,35
EndSplineSet
Validated: 1
EndChar

StartChar: Qs
Encoding: 65575 -1 127
Width: 1249
VWidth: 1524
GlyphClass: 2
Flags: MW
LayerCount: 2
Back
Fore
SplineSet
725 793 m 1,0,1
 620 793 620 793 568 744 c 0,2,3
 540 716 540 716 568 703 c 0,4,5
 580 697 580 697 598 687 c 258,6,7
 636 668 l 1,8,9
 716 630 716 630 716 558 c 256,10,11
 716 484 716 484 591 434 c 0,12,13
 494 395 494 395 418 395 c 0,14,15
 416 395 416 395 414 395 c 1,16,-1
 414 496 l 1,17,18
 507 496 507 496 557 513.5 c 128,-1,19
 607 531 607 531 620 539.5 c 128,-1,20
 633 548 633 548 633 558 c 0,21,22
 633 562 633 562 616 570 c 2,23,-1
 579 588 l 2,24,25
 521 617 521 617 496 643.5 c 128,-1,26
 471 670 471 670 471 708 c 0,27,28
 471 778 471 778 547 837 c 128,-1,29
 623 896 623 896 725 896 c 1,30,-1
 725 793 l 1,0,1
140 180 m 1,31,32
 253 130 253 130 467 130 c 0,33,34
 842 130 842 130 914 162.5 c 128,-1,35
 986 195 986 195 986 319 c 2,36,-1
 986 1141 l 1,37,-1
 1106 1141 l 1,38,-1
 1106 319 l 2,39,40
 1106 95 1106 95 993 39 c 0,41,42
 904 -6 904 -6 578 -20 c 0,43,44
 520 -22 520 -22 439 -22 c 0,45,46
 236 -22 236 -22 94 47 c 1,47,-1
 140 180 l 1,31,32
EndSplineSet
Validated: 1
EndChar

StartChar: Qf
Encoding: 65576 -1 128
Width: 1316
VWidth: 1524
GlyphClass: 2
Flags: MW
LayerCount: 2
Back
Fore
SplineSet
140 180 m 1,0,1
 253 130 253 130 467 130 c 0,2,3
 829 130 829 130 900.5 162.5 c 128,-1,4
 972 195 972 195 972 319 c 2,5,-1
 972 1141 l 1,6,-1
 1092 1141 l 1,7,-1
 1092 372 l 2,8,9
 1092 250 1092 250 1123 214.5 c 128,-1,10
 1154 179 1154 179 1198.5 164.5 c 128,-1,11
 1243 150 1243 150 1319 150 c 1,12,-1
 1319 0 l 1,13,14
 1204 0 1204 0 1143 26 c 0,15,16
 1082 52 1082 52 1043 99 c 1,17,18
 1000 35 1000 35 913 15 c 0,19,20
 716 -22 716 -22 537 -22 c 128,-1,21
 358 -22 358 -22 262 -5 c 128,-1,22
 166 12 166 12 94 47 c 1,23,-1
 140 180 l 1,0,1
725 793 m 1,24,25
 620 793 620 793 568 744 c 0,26,27
 540 716 540 716 568 703 c 0,28,29
 580 697 580 697 598 687 c 2,30,-1
 636 668 l 1,31,32
 716 630 716 630 716 557 c 0,33,34
 716 484 716 484 591 434 c 0,35,36
 494 395 494 395 418 395 c 0,37,38
 416 395 416 395 414 395 c 1,39,-1
 414 496 l 1,40,41
 507 496 507 496 557 513.5 c 128,-1,42
 607 531 607 531 620 539.5 c 128,-1,43
 633 548 633 548 633 558 c 0,44,45
 633 562 633 562 616 570 c 2,46,-1
 579 588 l 2,47,48
 521 617 521 617 496 643.5 c 128,-1,49
 471 670 471 670 471 708 c 0,50,51
 471 778 471 778 547 837 c 128,-1,52
 623 896 623 896 725 896 c 1,53,-1
 725 793 l 1,24,25
EndSplineSet
Validated: 1
EndChar

StartChar: Ks
Encoding: 65577 -1 129
Width: 1725
VWidth: 1524
GlyphClass: 2
Flags: MW
LayerCount: 2
Back
Fore
SplineSet
1462 289 m 0,0,1
 1462 -29 1462 -29 649 -29 c 0,2,3
 646 -29 646 -29 643 -29 c 0,4,5
 410 -29 410 -29 258.5 48 c 0,6,7
 107 125 107 125 107 283 c 0,8,9
 107 417 107 417 178 605 c 1,10,-1
 299 579 l 1,11,12
 288 544 288 544 258 454 c 128,-1,13
 228 364 228 364 228 284 c 128,-1,14
 228 204 228 204 343.5 162 c 128,-1,15
 459 120 459 120 649 120 c 0,16,17
 1340 120 1340 120 1340 289 c 0,18,19
 1340 424 1340 424 1123 556 c 0,20,21
 1058 596 1058 596 984 636 c 1,22,-1
 1003 837 l 1,23,24
 1257 1009 1257 1009 1501 1133 c 0,25,26
 1581 1173 1581 1173 1651 1196 c 1,27,-1
 1690 1053 l 1,28,29
 1452 965 1452 965 1103 734 c 1,30,31
 1276 633 1276 633 1340 562.5 c 128,-1,32
 1404 492 1404 492 1433 429 c 128,-1,33
 1462 366 1462 366 1462 289 c 0,0,1
EndSplineSet
Validated: 1
EndChar

StartChar: Kf
Encoding: 65578 -1 130
Width: 1825
VWidth: 1524
GlyphClass: 2
Flags: MW
LayerCount: 2
Back
Fore
SplineSet
649 120 m 0,0,1
 1340 120 1340 120 1340 289 c 0,2,3
 1340 424 1340 424 1123 556 c 0,4,5
 1058 596 1058 596 984 636 c 1,6,-1
 1003 837 l 1,7,8
 1257 1009 1257 1009 1501 1133 c 0,9,10
 1581 1173 1581 1173 1651 1196 c 1,11,-1
 1690 1053 l 1,12,13
 1450 964 1450 964 1102 734 c 1,14,15
 1352 585 1352 585 1467.5 470.5 c 128,-1,16
 1583 356 1583 356 1619.5 288.5 c 128,-1,17
 1656 221 1656 221 1688 197 c 0,18,19
 1752 150 1752 150 1821 150 c 2,20,-1
 1828 150 l 1,21,-1
 1828 0 l 1,22,23
 1664 0 1664 0 1566 138 c 0,24,25
 1538 176 1538 176 1521 210 c 128,-1,26
 1504 244 1504 244 1461 295 c 1,27,28
 1458 96 1458 96 1178 22 c 0,29,30
 1010 -22 1010 -22 870 -26 c 0,31,32
 758 -29 758 -29 671 -29 c 0,33,34
 649 -29 649 -29 628 -29 c 0,35,36
 408 -29 408 -29 257.5 48 c 128,-1,37
 107 125 107 125 107 283 c 0,38,39
 107 417 107 417 178 605 c 1,40,-1
 299 579 l 1,41,42
 288 544 288 544 258 454 c 128,-1,43
 228 364 228 364 228 284 c 128,-1,44
 228 204 228 204 343 162 c 128,-1,45
 458 120 458 120 649 120 c 0,0,1
EndSplineSet
Validated: 1
EndChar

StartChar: Ki
Encoding: 65579 -1 131
Width: 796
VWidth: 1524
GlyphClass: 2
Flags: MW
LayerCount: 2
Back
Fore
SplineSet
-55 10 m 1,0,-1
 -55 150 l 1,1,-1
 55 150 l 2,2,3
 285 150 285 150 376 228 c 0,4,5
 407 254 407 254 407 298 c 0,6,7
 407 386 407 386 303 475 c 0,8,9
 227 540 227 540 52 636 c 1,10,-1
 71 837 l 1,11,12
 328 1011 328 1011 568 1133 c 0,13,14
 648 1173 648 1173 719 1196 c 1,15,-1
 757 1053 l 1,16,17
 519 965 519 965 170 734 c 1,18,19
 342 634 342 634 406 563 c 0,20,21
 529 427 529 427 529 304 c 0,22,23
 529 240 529 240 510 198 c 0,24,25
 458 84 458 84 280 30 c 0,26,27
 180 0 180 0 106 0 c 2,28,-1
 2 0 l 2,29,30
 -27 0 -27 0 -55 10 c 1,0,-1
EndSplineSet
Validated: 1
EndChar

StartChar: Km
Encoding: 65580 -1 132
Width: 898
VWidth: 1524
GlyphClass: 2
Flags: MW
LayerCount: 2
Back
Fore
SplineSet
900 0 m 1,0,1
 730 0 730 0 634 136 c 0,2,3
 606 174 606 174 590 206 c 128,-1,4
 574 238 574 238 558.5 257.5 c 128,-1,5
 543 277 543 277 528 298 c 1,6,7
 528 152 528 152 378 70 c 0,8,9
 249 0 249 0 55 0 c 2,10,-1
 0 0 l 2,11,12
 -27 0 -27 0 -55 10 c 1,13,-1
 -55 150 l 1,14,-1
 55 150 l 2,15,16
 285 150 285 150 376 228 c 0,17,18
 407 254 407 254 407 298 c 0,19,20
 407 386 407 386 303 475 c 0,21,22
 227 540 227 540 52 636 c 1,23,-1
 71 837 l 1,24,25
 328 1011 328 1011 568 1133 c 0,26,27
 648 1173 648 1173 719 1196 c 1,28,-1
 757 1053 l 1,29,30
 517 964 517 964 169 734 c 1,31,32
 417 586 417 586 530.5 475.5 c 128,-1,33
 644 365 644 365 684 293 c 128,-1,34
 724 221 724 221 756 197 c 0,35,36
 820 150 820 150 900 150 c 1,37,-1
 900 0 l 1,0,1
EndSplineSet
Validated: 1
EndChar

StartChar: Ls
Encoding: 65581 -1 133
Width: 1236
VWidth: 1524
GlyphClass: 2
Flags: MW
LayerCount: 2
Back
Fore
SplineSet
320 263 m 1,0,1
 216 68 216 68 216 -42 c 0,2,3
 216 -108 216 -108 230 -135 c 128,-1,4
 244 -162 244 -162 273 -182 c 0,5,6
 336 -224 336 -224 422 -224 c 0,7,8
 850 -222 850 -222 954 -68 c 0,9,10
 976 -34 976 -34 976 -13 c 2,11,-1
 976 1141 l 1,12,-1
 1096 1141 l 1,13,-1
 1096 10 l 2,14,15
 1096 -188 1096 -188 886 -290 c 0,16,17
 717 -372 717 -372 446 -372 c 0,18,19
 277 -372 277 -372 183.5 -291 c 128,-1,20
 90 -210 90 -210 90 -61.5 c 128,-1,21
 90 87 90 87 221 308 c 1,22,-1
 320 263 l 1,0,1
EndSplineSet
Validated: 1
EndChar

StartChar: Lf
Encoding: 65582 -1 134
Width: 1316
VWidth: 1524
GlyphClass: 2
Flags: MW
LayerCount: 2
Back
Fore
SplineSet
320 263 m 1,0,1
 216 68 216 68 216 -42 c 0,2,3
 216 -108 216 -108 230 -135 c 128,-1,4
 244 -162 244 -162 273 -182 c 0,5,6
 336 -224 336 -224 422 -224 c 0,7,8
 850 -222 850 -222 954 -68 c 0,9,10
 976 -34 976 -34 976 -13 c 2,11,12
 976 1141 l 1,13,-1
 1096 1141 l 1,14,-1
 1096 282 l 2,15,16
 1096 150 1096 150 1319 150 c 1,17,-1
 1319 0 l 1,18,19
 1182 0 1182 0 1096 42 c 1,20,-1
 1096 10 l 2,21,22
 1096 -188 1096 -188 886 -290 c 0,23,24
 717 -372 717 -372 446 -372 c 0,25,26
 277 -372 277 -372 183.5 -291 c 128,-1,27
 90 -210 90 -210 90 -61.5 c 128,-1,28
 90 87 90 87 221 308 c 1,29,-1
 320 263 l 1,0,1
EndSplineSet
Validated: 1
EndChar

StartChar: Li
Encoding: 65583 -1 135
Width: 507
VWidth: 1524
GlyphClass: 2
Flags: MW
LayerCount: 2
Back
Fore
SplineSet
240 1141 m 1,0,-1
 360 1141 l 1,1,-1
 360 319 l 2,2,3
 360 128 360 128 288 64 c 0,4,5
 216 0 216 0 76 0 c 2,6,-1
 0 0 l 2,7,8
 -27 0 -27 0 -55 10 c 1,9,-1
 -55 150 l 1,10,-1
 76 150 l 2,11,12
 157 150 157 150 187 174 c 0,13,14
 240 219 240 219 240 319 c 2,15,-1
 240 1141 l 1,0,-1
EndSplineSet
Validated: 1
EndChar

StartChar: Lm
Encoding: 65584 -1 136
Width: 548
VWidth: 1524
GlyphClass: 2
Flags: MW
LayerCount: 2
Back
Fore
SplineSet
551 0 m 1,0,1
 342 0 342 0 263 91 c 1,2,3
 224 35 224 35 179 23 c 0,4,5
 99 0 99 0 27 0 c 2,6,-1
 0 0 l 2,7,8
 -27 0 -27 0 -55 10 c 1,9,-1
 -55 150 l 1,10,-1
 27 150 l 2,11,12
 109 150 109 150 139 174 c 0,13,14
 192 219 192 219 192 319 c 2,15,-1
 192 1141 l 1,16,-1
 313 1141 l 1,17,-1
 313 354 l 1,18,19
 314 250 314 250 364 200 c 0,20,21
 414 150 414 150 551 150 c 1,22,-1
 551 0 l 1,0,1
EndSplineSet
Validated: 1
EndChar

StartChar: Ms
Encoding: 65585 -1 137
Width: 1004
VWidth: 1524
GlyphClass: 2
Flags: MW
LayerCount: 2
Back
Fore
SplineSet
774 482 m 1,0,1
 780 494 780 494 780 522 c 0,2,3
 780 583 780 583 724 648.5 c 128,-1,4
 668 714 668 714 588 714 c 0,5,6
 540 714 540 714 522 642 c 0,7,8
 516 620 516 620 516 586 c 128,-1,9
 516 552 516 552 534 516 c 1,10,11
 652 514 652 514 774 482 c 1,0,1
218 320 m 0,12,13
 218 200 218 200 302 -447 c 1,14,-1
 182 -467 l 1,15,16
 98 198 98 198 98 320 c 0,17,18
 98 451 98 451 294 490 c 0,19,20
 350 501 350 501 405 508 c 1,21,22
 395 540 395 540 395 600 c 0,23,24
 395 708 395 708 452 786.5 c 128,-1,25
 509 865 509 865 587 865 c 0,26,27
 588 865 588 865 589 865 c 0,28,29
 668 864 668 864 746 808 c 0,30,31
 852 732 852 732 889 596 c 0,32,33
 900 556 900 556 900 512.5 c 128,-1,34
 900 469 900 469 884 425 c 1,35,-1
 845 302 l 1,36,37
 683 366 683 366 493.5 366 c 128,-1,38
 304 366 304 366 232 334 c 0,39,40
 218 328 218 328 218 320 c 0,12,13
EndSplineSet
Validated: 1
EndChar

StartChar: Mf
Encoding: 65586 -1 138
Width: 1145
VWidth: 1524
GlyphClass: 2
Flags: MW
LayerCount: 2
Back
Fore
SplineSet
609 532 m 1,0,-1
 570 598 l 1,1,-1
 673 674 l 1,2,-1
 898 294 l 1,3,4
 972 167 972 167 1078 154 c 0,5,6
 1112 150 1112 150 1147 150 c 1,7,-1
 1147 0 l 1,8,9
 1037 0 1037 0 975 30 c 1,10,11
 928 -78 928 -78 824 -112 c 0,12,13
 790 -123 790 -123 748 -123 c 128,-1,14
 706 -123 706 -123 668 -98 c 0,15,16
 593 -49 593 -49 558 48 c 0,17,18
 542 91 542 91 541 130 c 0,19,20
 541 261 541 261 601 376 c 1,21,22
 535 418 535 418 404 418 c 128,-1,23
 273 418 273 418 230 356 c 0,24,25
 218 338 218 338 218 320 c 0,26,27
 218 200 218 200 302 -447 c 1,28,-1
 182 -467 l 1,29,30
 98 198 98 198 98 283 c 128,-1,31
 98 368 98 368 117 413 c 128,-1,32
 136 458 136 458 175 492 c 0,33,34
 262 568 262 568 390 568 c 128,-1,35
 518 568 518 568 609 532 c 1,0,-1
725 336 m 1,36,37
 663 240 663 240 663 130 c 0,38,39
 664 98 664 98 690 62 c 0,40,41
 716 26 716 26 755 26 c 128,-1,42
 794 26 794 26 826 49 c 128,-1,43
 858 72 858 72 873 108 c 1,44,45
 833 151 833 151 805.5 197 c 128,-1,46
 778 243 778 243 760 272.5 c 128,-1,47
 742 302 742 302 725 336 c 1,36,37
EndSplineSet
Validated: 1
EndChar

StartChar: Mi
Encoding: 65587 -1 139
Width: 850
VWidth: 1524
GlyphClass: 2
Flags: MW
LayerCount: 2
Back
Fore
SplineSet
587 115 m 0,0,1
 630 115 630 115 630 178.5 c 128,-1,2
 630 242 630 242 602 281 c 0,3,4
 554 350 554 350 514 350 c 128,-1,5
 474 350 474 350 404 262 c 0,6,7
 384 236 384 236 361 210 c 1,8,9
 456 115 456 115 587 115 c 0,0,1
598 -36 m 0,10,11
 416 -36 416 -36 275 108 c 1,12,13
 224 62 224 62 146.5 31.5 c 0,14,15
 69 1 69 1 20 1 c 0,16,17
 -29 1 -29 1 -55 10 c 1,18,-1
 -55 150 l 1,19,-1
 0 150 l 2,20,21
 148 150 148 150 241.5 272 c 128,-1,22
 335 394 335 394 371 428 c 0,23,24
 449 500 449 500 521.5 500 c 128,-1,25
 594 500 594 500 673 398.5 c 128,-1,26
 752 297 752 297 752 180 c 0,27,28
 752 20 752 20 656 -23 c 0,29,30
 626 -36 626 -36 598 -36 c 0,10,11
EndSplineSet
Validated: 1
EndChar

StartChar: Mm
Encoding: 65588 -1 140
Width: 1004
VWidth: 1524
GlyphClass: 2
Flags: MW
LayerCount: 2
Back
Fore
SplineSet
703 124 m 1,0,1
 663 -64 663 -64 522 -64 c 128,-1,2
 381 -64 381 -64 252 127 c 1,3,4
 125 0 125 0 0 0 c 0,5,6
 -27 0 -27 0 -55 10 c 1,7,-1
 -55 150 l 1,8,-1
 0 150 l 2,9,10
 82 150 82 150 164 230 c 0,11,12
 186 252 186 252 249 319 c 0,13,14
 412 492 412 492 512 492 c 0,15,16
 513 492 513 492 514 492 c 0,17,18
 572 492 572 492 647 402 c 1,19,-1
 772 249 l 1,20,21
 851 150 851 150 1008 150 c 1,22,-1
 1008 0 l 1,23,24
 871 0 871 0 784 53 c 0,25,26
 745 78 745 78 703 124 c 1,0,1
342 222 m 1,27,28
 432 85 432 85 520 85 c 0,29,30
 550 85 550 85 569 115.5 c 128,-1,31
 588 146 588 146 588 198 c 128,-1,32
 588 250 588 250 565 295 c 128,-1,33
 542 340 542 340 522 340 c 0,34,35
 483 339 483 339 436.5 303.5 c 128,-1,36
 390 268 390 268 342 222 c 1,27,28
EndSplineSet
Validated: 1
EndChar

StartChar: Ns
Encoding: 65589 -1 141
Width: 1177
VWidth: 1524
GlyphClass: 2
Flags: MW
LayerCount: 2
Back
Fore
SplineSet
320 263 m 1,0,1
 216 68 216 68 216 -42 c 0,2,3
 216 -108 216 -108 230.5 -135 c 128,-1,4
 245 -162 245 -162 274 -182 c 0,5,6
 336 -224 336 -224 424 -224 c 0,7,8
 852 -222 852 -222 956 -68 c 0,9,10
 978 -34 978 -34 978 12 c 128,-1,11
 978 58 978 58 938.5 186 c 128,-1,12
 899 314 899 314 853 409 c 1,13,-1
 963 468 l 1,14,15
 1052 274 1052 274 1092 89 c 0,16,17
 1104 36 1104 36 1104 -13.5 c 128,-1,18
 1104 -63 1104 -63 1076 -118 c 0,19,20
 998 -277 998 -277 762 -336 c 0,21,22
 614 -372 614 -372 487 -372 c 128,-1,23
 360 -372 360 -372 294 -350 c 0,24,25
 90 -282 90 -282 90 -76 c 0,26,27
 90 87 90 87 221 308 c 1,28,-1
 320 263 l 1,0,1
EndSplineSet
Validated: 1
EndChar

StartChar: Nf
Encoding: 65590 -1 142
Width: 1268
VWidth: 1524
GlyphClass: 2
Flags: MW
LayerCount: 2
Back
Fore
SplineSet
975 8 m 0,0,1
 975 121 975 121 865 290 c 1,2,-1
 969 368 l 1,3,-1
 1020 288 l 2,4,5
 1076 200 1076 200 1123 175 c 128,-1,6
 1170 150 1170 150 1271 150 c 1,7,-1
 1271 0 l 1,8,9
 1150 0 1150 0 1096 39 c 1,10,-1
 1096 10 l 2,11,12
 1096 -188 1096 -188 886 -290 c 0,13,14
 717 -372 717 -372 446 -372 c 0,15,16
 277 -372 277 -372 183.5 -291 c 128,-1,17
 90 -210 90 -210 90 -61.5 c 128,-1,18
 90 87 90 87 221 308 c 1,19,-1
 320 263 l 1,20,21
 216 68 216 68 216 -42 c 0,22,23
 216 -108 216 -108 230 -135 c 128,-1,24
 244 -162 244 -162 273 -182 c 0,25,26
 336 -224 336 -224 422 -224 c 0,27,28
 849 -222 849 -222 953 -68 c 0,29,30
 975 -34 975 -34 975 8 c 0,0,1
EndSplineSet
Validated: 1
EndChar

StartChar: Vs
Encoding: 65591 -1 143
Width: 840
VWidth: 1524
GlyphClass: 2
Flags: MW
LayerCount: 2
Back
Fore
SplineSet
601 83 m 1,0,1
 549 65 549 65 503.5 65 c 128,-1,2
 458 65 458 65 432 67 c 0,3,4
 236 82 236 82 236 251 c 0,5,6
 236 359 236 359 316.5 480 c 128,-1,7
 397 601 397 601 473 601 c 0,8,9
 586 600 586 600 659.5 468.5 c 0,10,11
 733 337 733 337 733 203 c 0,12,13
 733 69 733 69 706 -6 c 0,14,15
 659 -134 659 -134 533 -239 c 128,-1,16
 407 -344 407 -344 169 -433 c 1,17,-1
 128 -294 l 1,18,-1
 130 -290 l 1,19,20
 537 -138 537 -138 601 83 c 1,0,1
356 251 m 0,21,22
 356 216 356 216 479 216 c 0,23,24
 546 216 546 216 611 244 c 1,25,26
 586 383 586 383 524 433 c 0,27,28
 502 451 502 451 477 451 c 0,29,30
 431 451 431 451 393.5 379 c 128,-1,31
 356 307 356 307 356 251 c 0,21,22
EndSplineSet
Validated: 1
EndChar

StartChar: Vf
Encoding: 65592 -1 144
Width: 981
VWidth: 1524
GlyphClass: 2
Flags: MW
LayerCount: 2
Back
Fore
SplineSet
936 0 m 2,0,1
 792 0 792 0 724 7 c 1,2,3
 682 -123 682 -123 555.5 -232 c 128,-1,4
 429 -341 429 -341 183 -433 c 1,5,-1
 141 -291 l 1,6,7
 508 -151 508 -151 592 21 c 1,8,9
 265 75 265 75 265 251 c 0,10,11
 265 354 265 354 343.5 477.5 c 128,-1,12
 422 601 422 601 500 601 c 128,-1,13
 578 601 578 601 646 525.5 c 128,-1,14
 714 450 714 450 740 286 c 0,15,16
 748 238 748 238 748 192 c 2,17,-1
 748 153 l 1,18,19
 823 150 823 150 897 150 c 2,20,-1
 981 150 l 1,21,-1
 981 0 l 1,22,-1
 936 0 l 2,0,1
626 159 m 1,23,24
 628 176 628 176 628 232 c 0,25,26
 628 288 628 288 594.5 369.5 c 128,-1,27
 561 451 561 451 501 451 c 0,28,29
 462 451 462 451 424 380 c 128,-1,30
 386 309 386 309 386 252.5 c 128,-1,31
 386 196 386 196 536 172 c 0,32,33
 580 165 580 165 626 159 c 1,23,24
EndSplineSet
Validated: 1
EndChar

StartChar: Hs
Encoding: 65593 -1 145
Width: 855
VWidth: 1524
GlyphClass: 2
Flags: MW
LayerCount: 2
Back
Fore
SplineSet
341 703 m 1,0,1
 424 674 424 674 501 624 c 0,2,3
 775 448 775 448 775 264 c 0,4,5
 775 196 775 196 700 113 c 128,-1,6
 625 30 625 30 466 -8 c 0,7,8
 420 -19 420 -19 368 -19 c 0,9,10
 255 -19 255 -19 174.5 52.5 c 128,-1,11
 94 124 94 124 94 236 c 0,12,13
 94 378 94 378 244 591 c 0,14,15
 305 678 305 678 341 703 c 1,0,1
366 535 m 1,16,17
 315 478 315 478 264.5 388 c 128,-1,18
 214 298 214 298 214 236 c 0,19,20
 214 166 214 166 313 140 c 0,21,22
 343 132 343 132 407 132 c 128,-1,23
 471 132 471 132 562.5 172 c 128,-1,24
 654 212 654 212 654 264 c 0,25,26
 654 394 654 394 366 535 c 1,16,17
EndSplineSet
Validated: 1
EndChar

StartChar: Hf
Encoding: 65594 -1 146
Width: 912
VWidth: 1524
GlyphClass: 2
Flags: MW
LayerCount: 2
Back
Fore
SplineSet
913 0 m 1,0,1
 799 0 799 0 747 22 c 128,-1,2
 695 44 695 44 661 82.5 c 128,-1,3
 627 121 627 121 602 189 c 1,4,-1
 580 89 l 1,5,6
 358 102 358 102 291 122 c 0,7,8
 114 175 114 175 114 295 c 0,9,10
 114 504 114 504 335 635 c 0,11,12
 402 676 402 676 481 703 c 1,13,-1
 455 817 l 1,14,-1
 572 850 l 1,15,-1
 702 282 l 1,16,17
 727 160 727 160 845 152 c 0,18,19
 878 150 878 150 913 150 c 1,20,-1
 913 0 l 1,0,1
514 557 m 1,21,22
 234 454 234 454 234 305 c 0,23,24
 234 258 234 258 460 246 c 0,25,26
 523 242 523 242 586 239 c 1,27,-1
 514 557 l 1,21,22
EndSplineSet
Validated: 1
EndChar

StartChar: Hi
Encoding: 65595 -1 147
Width: 981
VWidth: 1524
GlyphClass: 2
Flags: MW
LayerCount: 2
Back
Fore
SplineSet
477 393 m 0,0,1
 476 588 476 588 415 588 c 0,2,3
 396 588 396 588 362 573.5 c 128,-1,4
 328 559 328 559 297 530 c 0,5,6
 222 460 222 460 222 366 c 128,-1,7
 222 272 222 272 321 209 c 1,8,9
 477 271 477 271 477 393 c 0,0,1
598 393 m 2,10,11
 598 243 598 243 471 142 c 1,12,13
 583 107 583 107 648 107 c 0,14,15
 713 107 713 107 741.5 133.5 c 0,16,17
 770 160 770 160 770 200 c 128,-1,18
 770 240 770 240 728 308.5 c 128,-1,19
 686 377 686 377 596 461 c 1,20,21
 598 436 598 436 598 419 c 2,22,-1
 598 393 l 2,10,11
321 57 m 1,23,24
 168 0 168 0 0 0 c 0,25,26
 -27 0 -27 0 -55 10 c 1,27,-1
 -55 150 l 1,28,-1
 0 150 l 2,29,30
 91 150 91 150 178 166 c 1,31,32
 102 250 102 250 102 367 c 0,33,34
 102 559 102 559 274 684 c 1,35,36
 245 698 245 698 185 731 c 1,37,-1
 240 865 l 1,38,39
 374 795 374 795 479 724 c 1,40,41
 670 612 670 612 790 437 c 0,42,43
 890 293 890 293 890 198 c 128,-1,44
 890 103 890 103 823.5 29.5 c 128,-1,45
 757 -44 757 -44 663.5 -44 c 128,-1,46
 570 -44 570 -44 424 10 c 0,47,48
 371 28 371 28 321 57 c 1,23,24
EndSplineSet
Validated: 1
EndChar

StartChar: Hm
Encoding: 65596 -1 148
Width: 850
VWidth: 1524
GlyphClass: 2
Flags: MW
LayerCount: 2
Back
Fore
SplineSet
265 167 m 1,0,1
 381 188 381 188 438 222 c 0,2,3
 535 280 535 280 535 324 c 0,4,5
 535 412 535 412 471.5 498 c 128,-1,6
 408 584 408 584 345 584 c 0,7,8
 316 584 316 584 290.5 479.5 c 128,-1,9
 265 375 265 375 265 199 c 1,10,-1
 264 179 l 2,11,12
 264 174 264 174 265 167 c 1,0,1
630 -98 m 0,13,14
 618 -122 618 -122 618 -176 c 128,-1,15
 618 -230 618 -230 633 -265 c 1,16,-1
 591 -405 l 1,17,18
 255 -277 255 -277 172 6 c 1,19,20
 130 0 130 0 84 0 c 2,21,-1
 0 0 l 2,22,23
 -27 0 -27 0 -55 10 c 1,24,-1
 -55 150 l 1,25,-1
 84 150 l 2,26,27
 114 150 114 150 146 152 c 1,28,29
 144 162 144 162 144 174 c 2,30,-1
 144 199 l 2,31,32
 144 446 144 446 212 598 c 0,33,34
 242 666 242 666 278 700 c 128,-1,35
 314 734 314 734 346 734 c 0,36,37
 409 734 409 734 482.5 670 c 128,-1,38
 556 606 556 606 605 511 c 128,-1,39
 654 416 654 416 654 327 c 128,-1,40
 654 238 654 238 554.5 153.5 c 128,-1,41
 455 69 455 69 297 26 c 1,42,43
 352 -108 352 -108 500 -201 c 1,44,45
 499 -189 499 -189 499 -173 c 2,46,-1
 499 -140 l 2,47,48
 499 -45 499 -45 581.5 52.5 c 128,-1,49
 664 150 664 150 797 150 c 2,50,-1
 852 150 l 1,51,-1
 852 0 l 1,52,-1
 797 0 l 2,53,54
 680 0 680 0 630 -98 c 0,13,14
EndSplineSet
Validated: 1
EndChar

StartChar: Ys
Encoding: 65597 -1 149
Width: 1400
VWidth: 1524
GlyphClass: 2
Flags: MW
LayerCount: 2
Back
Fore
SplineSet
1083 -47 m 2,0,-1
 1083 -44 l 2,1,2
 1083 -22 1083 -22 1055 -5.5 c 128,-1,3
 1027 11 1027 11 918 40.5 c 128,-1,4
 809 70 809 70 769.5 110.5 c 128,-1,5
 730 151 730 151 730 247 c 128,-1,6
 730 343 730 343 856 455.5 c 128,-1,7
 982 568 982 568 1102.5 568 c 128,-1,8
 1223 568 1223 568 1323 408 c 1,9,-1
 1220 324 l 1,10,11
 1165 413 1165 413 1091.5 413 c 128,-1,12
 1018 413 1018 413 935 353.5 c 128,-1,13
 852 294 852 294 852 239 c 0,14,15
 852 222 852 222 877.5 209.5 c 128,-1,16
 903 197 903 197 1011.5 166.5 c 128,-1,17
 1120 136 1120 136 1164 90.5 c 128,-1,18
 1208 45 1208 45 1208 -46 c 0,19,20
 1208 -184 1208 -184 932 -271 c 0,21,22
 698 -345 698 -345 492 -345 c 0,23,24
 89 -345 89 -345 89 -47 c 0,25,26
 89 116 89 116 221 338 c 1,27,-1
 320 290 l 1,28,29
 305 262 305 262 286 227 c 0,30,31
 214 94 214 94 214 -47 c 0,32,33
 214 -195 214 -195 468 -195 c 0,34,35
 767 -195 767 -195 970 -130 c 0,36,37
 1083 -94 1083 -94 1083 -47 c 2,0,-1
EndSplineSet
Validated: 1
EndChar

StartChar: Yf
Encoding: 65598 -1 150
Width: 1308
VWidth: 1524
GlyphClass: 2
Flags: MW
LayerCount: 2
Back
Fore
SplineSet
214 -76 m 0,0,1
 214 -230 214 -230 558 -230 c 0,2,3
 636 -230 636 -230 760 -219.5 c 0,4,5
 884 -209 884 -209 959.5 -194.5 c 128,-1,6
 1035 -180 1035 -180 1035 -154 c 0,7,8
 1035 -90 1035 -90 831 10 c 1,9,-1
 903 173 l 1,10,11
 984 172 984 172 1096 161 c 128,-1,12
 1208 150 1208 150 1308 150 c 1,13,-1
 1308 0 l 1,14,15
 1214 0 1214 0 1129 17.5 c 128,-1,16
 1044 35 1044 35 1007 42 c 1,17,18
 1156 -57 1156 -57 1156 -154 c 0,19,20
 1156 -222 1156 -222 1044 -278 c 0,21,22
 841 -380 841 -380 498 -380 c 0,23,24
 212 -380 212 -380 120 -211 c 0,25,26
 89 -154 89 -154 89 -87 c 0,27,28
 89 90 89 90 221 308 c 1,29,-1
 320 263 l 1,30,31
 267 164 267 164 240.5 94 c 128,-1,32
 214 24 214 24 214 -76 c 0,0,1
EndSplineSet
Validated: 1
EndChar

StartChar: LAs
Encoding: 65599 -1 151
Width: 1126
VWidth: 1524
GlyphClass: 2
Flags: MW
LayerCount: 2
Back
Fore
SplineSet
391 37 m 1,0,1
 478 64 478 64 531 82 c 1,2,3
 510 336 510 336 444 503 c 0,4,5
 378 670 378 670 246 777 c 1,6,-1
 320 895 l 1,7,8
 598 674 598 674 649 122 c 1,9,10
 762 168 762 168 801 199 c 0,11,12
 876 258 876 258 876 319 c 2,13,-1
 876 1141 l 1,14,-1
 996 1141 l 1,15,-1
 996 319 l 2,16,17
 996 166 996 166 854 68 c 0,18,19
 740 -11 740 -11 545 -70 c 1,20,-1
 425 -108 l 1,21,-1
 391 37 l 1,0,1
EndSplineSet
Validated: 1
EndChar

StartChar: uniFEFB
Encoding: 65275 65275 152
Width: 1004
VWidth: 1524
GlyphClass: 3
LigCaretCntFixed: 1
Flags: MW
AnchorPoint: "Anchor-3" 739 -75 baselig 0
AnchorPoint: "Anchor-2" 703 1274 baselig 0
AnchorPoint: "Anchor-3" 234 -169 baselig 1
AnchorPoint: "Anchor-2" 164 1204 baselig 1
LayerCount: 2
Back
Fore
SplineSet
209 1087 m 1,0,1
 475 790 475 790 522 122 c 1,2,3
 632 166 632 166 673 198 c 0,4,5
 749 257 749 257 749 319 c 2,6,-1
 749 1141 l 1,7,-1
 868 1141 l 1,8,-1
 868 319 l 2,9,10
 868 128 868 128 634 14 c 0,11,12
 541 -31 541 -31 418 -70 c 2,13,-1
 298 -108 l 1,14,-1
 263 37 l 1,15,16
 375 70 375 70 404 82 c 1,17,18
 388 294 388 294 366 425 c 0,19,20
 344 556 344 556 286 711.5 c 128,-1,21
 228 867 228 867 120 987 c 1,22,-1
 209 1087 l 1,0,1
EndSplineSet
Validated: 1
Ligature2: "'rlig' Required Ligatures in Arabic lookup 2 subtable" lam.init alef.fina8E
PairPos2: "'kern' Horizontal Kerning in Arabic lookup 0 subtable" gaf_ye.farsi.isol dx=50 dy=0 dh=50 dv=0 dx=0 dy=0 dh=0 dv=0
PairPos2: "'kern' Horizontal Kerning in Arabic lookup 0 subtable" kaf.farsi_ye.farsi.isol dx=50 dy=0 dh=50 dv=0 dx=0 dy=0 dh=0 dv=0
PairPos2: "'kern' Horizontal Kerning in Arabic lookup 0 subtable" uniFEDB dx=50 dy=0 dh=50 dv=0 dx=0 dy=0 dh=0 dv=0
PairPos2: "'kern' Horizontal Kerning in Arabic lookup 0 subtable" uniFE83 dx=62 dy=0 dh=62 dv=0 dx=0 dy=0 dh=0 dv=0
PairPos2: "'kern' Horizontal Kerning in Arabic lookup 0 subtable" uniFE81 dx=62 dy=0 dh=62 dv=0 dx=0 dy=0 dh=0 dv=0
PairPos2: "'kern' Horizontal Kerning in Arabic lookup 0 subtable" kaf.init dx=50 dy=0 dh=50 dv=0 dx=0 dy=0 dh=0 dv=0
PairPos2: "'kern' Horizontal Kerning in Arabic lookup 0 subtable" uniFB8E dx=50 dy=0 dh=50 dv=0 dx=0 dy=0 dh=0 dv=0
PairPos2: "'kern' Horizontal Kerning in Arabic lookup 0 subtable" uniFB50 dx=62 dy=0 dh=62 dv=0 dx=0 dy=0 dh=0 dv=0
PairPos2: "'kern' Horizontal Kerning in Arabic lookup 0 subtable" gaf.init dx=50 dy=0 dh=50 dv=0 dx=0 dy=0 dh=0 dv=0
PairPos2: "'kern' Horizontal Kerning in Arabic lookup 0 subtable" uniFB92 dx=50 dy=0 dh=50 dv=0 dx=0 dy=0 dh=0 dv=0
LCarets2: 1 496
EndChar

StartChar: LAf
Encoding: 65600 -1 153
Width: 1229
VWidth: 1524
GlyphClass: 2
Flags: MW
LayerCount: 2
Back
Fore
SplineSet
340 46 m 1,0,-1
 564 85 l 1,1,2
 542 320 542 320 496.5 442 c 128,-1,3
 451 564 451 564 395 650 c 0,4,5
 338 736 338 736 250 806 c 1,6,-1
 322 925 l 1,7,8
 580 713 580 713 650 337 c 0,9,10
 670 228 670 228 681 122 c 1,11,12
 873 195 873 195 873 319 c 2,13,-1
 873 1141 l 1,14,-1
 994 1141 l 1,15,-1
 994 319 l 2,16,17
 994 222 994 222 1047 186 c 0,18,19
 1100 150 1100 150 1231 150 c 1,20,-1
 1231 0 l 1,21,22
 1097 0 1097 0 1045.5 19 c 128,-1,23
 994 38 994 38 963 60 c 0,24,25
 935 83 935 83 915 116 c 1,26,27
 793 -25 793 -25 534 -72 c 1,28,-1
 359 -102 l 1,29,-1
 340 46 l 1,0,-1
EndSplineSet
Validated: 1
EndChar

StartChar: uniFEFC
Encoding: 65276 65276 154
Width: 1077
VWidth: 1524
GlyphClass: 3
LigCaretCntFixed: 1
Flags: MW
AnchorPoint: "Anchor-3" 739 -75 baselig 0
AnchorPoint: "Anchor-2" 703 1274 baselig 0
AnchorPoint: "Anchor-3" 234 -169 baselig 1
AnchorPoint: "Anchor-2" 164 1204 baselig 1
LayerCount: 2
Back
Fore
SplineSet
208 1087 m 1,0,1
 485 773 485 773 521 119 c 1,2,3
 720 193 720 193 720 319 c 2,4,-1
 720 1141 l 1,5,-1
 841 1141 l 1,6,-1
 841 319 l 1,7,8
 842 178 842 178 972 157 c 0,9,10
 1016 150 1016 150 1079 150 c 1,11,-1
 1079 0 l 1,12,13
 947 0 947 0 894 19 c 0,14,15
 799 53 799 53 763 116 c 1,16,17
 640 -26 640 -26 382 -72 c 1,18,-1
 208 -102 l 1,19,-1
 189 46 l 1,20,21
 404 84 l 1,22,23
 398 150 398 150 392 226 c 0,24,25
 355 731 355 731 119 987 c 1,26,-1
 208 1087 l 1,0,1
EndSplineSet
Validated: 1
Ligature2: "'rlig' Required Ligatures in Arabic lookup 2 subtable" lam.medi alef.fina8E
PairPos2: "'kern' Horizontal Kerning in Arabic lookup 0 subtable" gaf_ye.farsi.isol dx=50 dy=0 dh=50 dv=0 dx=0 dy=0 dh=0 dv=0
PairPos2: "'kern' Horizontal Kerning in Arabic lookup 0 subtable" kaf.farsi_ye.farsi.isol dx=50 dy=0 dh=50 dv=0 dx=0 dy=0 dh=0 dv=0
PairPos2: "'kern' Horizontal Kerning in Arabic lookup 0 subtable" uniFEDB dx=50 dy=0 dh=50 dv=0 dx=0 dy=0 dh=0 dv=0
PairPos2: "'kern' Horizontal Kerning in Arabic lookup 0 subtable" uniFE83 dx=62 dy=0 dh=62 dv=0 dx=0 dy=0 dh=0 dv=0
PairPos2: "'kern' Horizontal Kerning in Arabic lookup 0 subtable" uniFE81 dx=62 dy=0 dh=62 dv=0 dx=0 dy=0 dh=0 dv=0
PairPos2: "'kern' Horizontal Kerning in Arabic lookup 0 subtable" kaf.init dx=50 dy=0 dh=50 dv=0 dx=0 dy=0 dh=0 dv=0
PairPos2: "'kern' Horizontal Kerning in Arabic lookup 0 subtable" uniFB8E dx=50 dy=0 dh=50 dv=0 dx=0 dy=0 dh=0 dv=0
PairPos2: "'kern' Horizontal Kerning in Arabic lookup 0 subtable" uniFB50 dx=62 dy=0 dh=62 dv=0 dx=0 dy=0 dh=0 dv=0
PairPos2: "'kern' Horizontal Kerning in Arabic lookup 0 subtable" gaf.init dx=50 dy=0 dh=50 dv=0 dx=0 dy=0 dh=0 dv=0
PairPos2: "'kern' Horizontal Kerning in Arabic lookup 0 subtable" uniFB92 dx=50 dy=0 dh=50 dv=0 dx=0 dy=0 dh=0 dv=0
LCarets2: 1 579
EndChar

StartChar: D1
Encoding: 65601 -1 155
Width: 495
VWidth: 1524
GlyphClass: 5
Flags: MW
LayerCount: 2
Back
Fore
SplineSet
278 828 m 1,0,-1
 122 828 l 1,1,-1
 122 983 l 1,2,-1
 278 983 l 1,3,-1
 278 828 l 1,0,-1
EndSplineSet
Validated: 1
EndChar

StartChar: D2
Encoding: 65602 -1 156
Width: 548
VWidth: 1524
GlyphClass: 5
Flags: MW
LayerCount: 2
Back
Fore
SplineSet
163 828 m 1,0,-1
 8 828 l 1,1,-1
 8 983 l 1,2,-1
 163 983 l 1,3,-1
 163 828 l 1,0,-1
393 828 m 1,4,-1
 237 828 l 1,5,-1
 237 983 l 1,6,-1
 393 983 l 1,7,-1
 393 828 l 1,4,-1
EndSplineSet
Validated: 1
EndChar

StartChar: D3
Encoding: 65603 -1 157
Width: 548
VWidth: 1524
GlyphClass: 5
Flags: MW
LayerCount: 2
Back
Fore
SplineSet
156 828 m 1,0,-1
 0 828 l 1,1,-1
 0 983 l 1,2,-1
 156 983 l 1,3,-1
 156 828 l 1,0,-1
399 828 m 1,4,-1
 243 828 l 1,5,-1
 243 983 l 1,6,-1
 399 983 l 1,7,-1
 399 828 l 1,4,-1
277 1065 m 1,8,-1
 121 1065 l 1,9,-1
 121 1221 l 1,10,-1
 277 1221 l 1,11,-1
 277 1065 l 1,8,-1
EndSplineSet
Validated: 1
EndChar

StartChar: D1b
Encoding: 65604 -1 158
Width: 495
VWidth: 1524
GlyphClass: 5
Flags: MW
LayerCount: 2
Back
Fore
SplineSet
278 -361 m 1,0,-1
 122 -361 l 1,1,-1
 122 -205 l 1,2,-1
 278 -205 l 1,3,-1
 278 -361 l 1,0,-1
EndSplineSet
Validated: 1
EndChar

StartChar: D2b
Encoding: 65605 -1 159
Width: 548
VWidth: 1524
GlyphClass: 5
Flags: MW
LayerCount: 2
Back
Fore
SplineSet
163 -361 m 1,0,-1
 8 -361 l 1,1,-1
 8 -205 l 1,2,-1
 163 -205 l 1,3,-1
 163 -361 l 1,0,-1
393 -361 m 1,4,-1
 237 -361 l 1,5,-1
 237 -205 l 1,6,-1
 393 -205 l 1,7,-1
 393 -361 l 1,4,-1
EndSplineSet
Validated: 1
EndChar

StartChar: D3b
Encoding: 65606 -1 160
Width: 548
VWidth: 1524
GlyphClass: 5
Flags: MW
LayerCount: 2
Back
Fore
SplineSet
156 -330 m 1,0,-1
 0 -330 l 1,1,-1
 0 -173 l 1,2,-1
 156 -173 l 1,3,-1
 156 -330 l 1,0,-1
399 -330 m 1,4,-1
 243 -330 l 1,5,-1
 243 -173 l 1,6,-1
 399 -173 l 1,7,-1
 399 -330 l 1,4,-1
277 -567 m 1,8,-1
 121 -567 l 1,9,-1
 121 -411 l 1,10,-1
 277 -411 l 1,11,-1
 277 -567 l 1,8,-1
EndSplineSet
Validated: 1
EndChar

StartChar: mA
Encoding: 65607 -1 161
Width: 0
VWidth: 1524
GlyphClass: 5
Flags: MW
LayerCount: 2
Back
Fore
SplineSet
160 893 m 1,0,1
 244 900 244 900 298 923 c 0,2,3
 419 974 419 974 419 1030 c 0,4,5
 419 1066 419 1066 349 1066 c 0,6,7
 249 1066 249 1066 160 893 c 1,0,1
46 824 m 0,8,9
 36 834 36 834 25 844 c 128,-1,10
 14 854 14 854 -3 854 c 128,-1,11
 -20 854 -20 854 -38 831 c 1,12,-1
 -99 897 l 1,13,14
 -53 957 -53 957 5 957 c 0,15,16
 30 957 30 957 46 944.5 c 128,-1,17
 62 932 62 932 79 917 c 1,18,19
 122 1016 122 1016 176 1076 c 0,20,21
 258 1168 258 1168 333 1168 c 0,22,23
 498 1168 498 1168 498 1032 c 0,24,25
 498 930 498 930 370.5 860 c 128,-1,26
 243 790 243 790 163 790 c 0,27,28
 162 790 162 790 161 790 c 0,29,30
 82 790 82 790 46 824 c 0,8,9
EndSplineSet
Validated: 1
EndChar

StartChar: mH
Encoding: 65608 -1 162
Width: 0
VWidth: 1524
GlyphClass: 5
Flags: MW
LayerCount: 2
Back
Fore
SplineSet
137 850 m 1,0,1
 60 892 60 892 60 973 c 128,-1,2
 60 1054 60 1054 119.5 1111 c 128,-1,3
 179 1168 179 1168 275 1168 c 0,4,5
 333 1168 333 1168 403 1144 c 1,6,-1
 377 1048 l 1,7,8
 320 1067 320 1067 270 1067 c 0,9,10
 220 1067 220 1067 180 1040 c 128,-1,11
 140 1013 140 1013 140 972 c 0,12,13
 140 938 140 938 212 927 c 0,14,15
 232 924 232 924 255.5 924 c 128,-1,16
 279 924 279 924 321 936 c 1,17,-1
 354 852 l 1,18,19
 195 742 195 742 4 728 c 1,20,-1
 -4 829 l 1,21,22
 85 837 85 837 137 850 c 1,0,1
EndSplineSet
Validated: 1
EndChar

StartChar: earab.tanvin_fatheh
Encoding: 1611 1611 163
Width: 0
VWidth: 1524
GlyphClass: 4
Flags: MW
AnchorPoint: "Anchor-4" 223 746 mark 0
AnchorPoint: "Anchor-2" 223 746 mark 0
AnchorPoint: "Anchor-0" 223 746 mark 0
LayerCount: 2
Back
Fore
SplineSet
392 1102 m 1,0,-1
 10 948 l 1,1,-1
 10 1021 l 1,2,-1
 392 1174 l 1,3,-1
 392 1102 l 1,0,-1
392 898 m 1,4,-1
 10 744 l 1,5,-1
 10 816 l 1,6,-1
 392 969 l 1,7,-1
 392 898 l 1,4,-1
EndSplineSet
Validated: 1
EndChar

StartChar: earab.tanvin_kasreh
Encoding: 1612 1612 164
Width: 0
VWidth: 1524
GlyphClass: 4
Flags: MW
AnchorPoint: "Anchor-4" 176 630 mark 0
AnchorPoint: "Anchor-2" 176 630 mark 0
AnchorPoint: "Anchor-0" 176 630 mark 0
LayerCount: 2
Back
Fore
SplineSet
318 1000 m 0,0,1
 318 1073 318 1073 260 1097 c 1,2,3
 170 1097 170 1097 142 981 c 1,4,5
 171 952 171 952 215.5 939 c 128,-1,6
 260 926 260 926 285 916 c 1,7,8
 318 977 318 977 318 1000 c 0,0,1
335 900 m 1,9,10
 352 890 352 890 393 883 c 1,11,-1
 393 822 l 1,12,-1
 305 851 l 1,13,14
 221 720 221 720 -27 631 c 1,15,16
 -31 641 -31 641 -33.5 650 c 128,-1,17
 -36 659 -36 659 -40.5 672.5 c 128,-1,18
 -45 686 -45 686 -48 700 c 1,19,20
 -21 703 -21 703 27 725 c 1,21,22
 29 736 29 736 29 742 c 2,23,-1
 29 754 l 1,24,25
 28 824 28 824 -14 847 c 0,26,27
 -39 861 -39 861 -61 861 c 128,-1,28
 -83 861 -83 861 -101 855 c 1,29,30
 -108 865 -108 865 -111.5 872.5 c 128,-1,31
 -115 880 -115 880 -119 886.5 c 128,-1,32
 -123 893 -123 893 -128 899.5 c 128,-1,33
 -133 906 -133 906 -137 916 c 1,34,35
 -115 925 -115 925 -81 925 c 0,36,37
 -10 925 -10 925 30 875 c 128,-1,38
 70 825 70 825 74 739 c 1,39,40
 156 778 156 778 201.5 816.5 c 128,-1,41
 247 855 247 855 258 870 c 1,42,43
 239 877 239 877 215.5 881 c 128,-1,44
 192 885 192 885 153 898 c 128,-1,45
 114 911 114 911 86 952 c 1,46,47
 112 1100 112 1100 223 1150 c 0,48,49
 256 1165 256 1165 276 1165 c 2,50,-1
 298 1165 l 1,51,52
 372 1114 372 1114 372 1044 c 128,-1,53
 372 974 372 974 355.5 943.5 c 128,-1,54
 339 913 339 913 335 900 c 1,9,10
EndSplineSet
Validated: 1
EndChar

StartChar: earab.tanvin_zameh
Encoding: 1613 1613 165
Width: 0
VWidth: 1524
GlyphClass: 4
Flags: MW
AnchorPoint: "Anchor-5" 188 -52 mark 0
AnchorPoint: "Anchor-3" 188 -52 mark 0
AnchorPoint: "Anchor-1" 188 -52 mark 0
LayerCount: 2
Back
Fore
SplineSet
372 -140 m 1,0,-1
 -12 -295 l 1,1,-1
 -12 -223 l 1,2,-1
 372 -68 l 1,3,-1
 372 -140 l 1,0,-1
372 -338 m 1,4,-1
 -12 -492 l 1,5,-1
 -12 -420 l 1,6,-1
 372 -266 l 1,7,-1
 372 -338 l 1,4,-1
EndSplineSet
Validated: 1
EndChar

StartChar: earab.fatheh
Encoding: 1614 1614 166
Width: 0
VWidth: 1524
GlyphClass: 4
Flags: MW
AnchorPoint: "Anchor-4" 199 933 mark 0
AnchorPoint: "Anchor-2" 199 933 mark 0
AnchorPoint: "Anchor-0" 199 933 mark 0
LayerCount: 2
Back
Fore
SplineSet
372 1092 m 1,0,-1
 -12 937 l 1,1,-1
 -12 1010 l 1,2,-1
 372 1163 l 1,3,-1
 372 1092 l 1,0,-1
EndSplineSet
Validated: 1
EndChar

StartChar: earab.zameh
Encoding: 1615 1615 167
Width: 0
VWidth: 1524
GlyphClass: 4
Flags: MW
AnchorPoint: "Anchor-4" 210 630 mark 0
AnchorPoint: "Anchor-2" 210 630 mark 0
AnchorPoint: "Anchor-0" 210 630 mark 0
LayerCount: 2
Back
Fore
SplineSet
319 895 m 1,0,1
 335 884 335 884 390 869 c 1,2,-1
 374 812 l 1,3,-1
 285 850 l 1,4,5
 185 707 185 707 -12 633 c 1,6,-1
 -12 713 l 1,7,8
 156 758 156 758 237 864 c 1,9,10
 218 872 218 872 196 878 c 0,11,12
 174 884 174 884 134 906 c 0,13,14
 94 928 94 928 80 945 c 1,15,16
 88 1106 88 1106 200 1148 c 0,17,18
 234 1161 234 1161 274 1162 c 1,19,20
 348 1111 348 1111 348 1024 c 0,21,22
 348 1014 348 1014 344.5 996.5 c 128,-1,23
 341 979 341 979 338 962 c 128,-1,24
 335 945 335 945 327.5 927 c 128,-1,25
 320 909 320 909 319 895 c 1,0,1
295 994 m 0,26,27
 295 1064 295 1064 239 1089 c 1,28,29
 193 1089 193 1089 166.5 1065 c 128,-1,30
 140 1041 140 1041 126 984 c 1,31,32
 153 957 153 957 200 940.5 c 128,-1,33
 247 924 247 924 272 914 c 1,34,35
 295 960 295 960 295 994 c 0,26,27
EndSplineSet
Validated: 1
EndChar

StartChar: earab.kasreh
Encoding: 1616 1616 168
Width: 0
VWidth: 1524
GlyphClass: 4
Flags: MW
AnchorPoint: "Anchor-5" 199 -216 mark 0
AnchorPoint: "Anchor-3" 199 -216 mark 0
AnchorPoint: "Anchor-1" 199 -216 mark 0
LayerCount: 2
Back
Fore
SplineSet
372 -336 m 1,0,-1
 -12 -487 l 1,1,-1
 -12 -415 l 1,2,-1
 372 -263 l 1,3,-1
 372 -336 l 1,0,-1
EndSplineSet
Validated: 1
EndChar

StartChar: earab.tashdid
Encoding: 1617 1617 169
Width: 0
VWidth: 1524
GlyphClass: 4
Flags: MW
AnchorPoint: "Anchor-4" 199 781 mark 0
AnchorPoint: "Anchor-2" 199 781 mark 0
AnchorPoint: "Anchor-0" 199 781 mark 0
LayerCount: 2
Back
Fore
SplineSet
280 926 m 0,0,1
 350 926 350 926 350 1057 c 0,2,3
 350 1090 350 1090 341 1153 c 1,4,-1
 391 1165 l 1,5,-1
 398 1019 l 1,6,7
 398 917 398 917 334 880 c 0,8,9
 312 867 312 867 285 867 c 128,-1,10
 258 867 258 867 232 890 c 128,-1,11
 206 913 206 913 192 954 c 1,12,13
 159 808 159 808 82 806 c 2,14,-1
 75 806 l 2,15,16
 -7 806 -7 806 -29 896 c 0,17,18
 -40 940 -40 940 -40 956 c 128,-1,19
 -40 972 -40 972 -40 974 c 2,20,-1
 -42 1033 l 1,21,-1
 3 1045 l 1,22,-1
 6 973 l 2,23,24
 11 866 11 866 71 866 c 0,25,26
 157 866 157 866 157 1034 c 2,27,-1
 157 1090 l 1,28,-1
 200 1105 l 1,29,30
 200 1007 200 1007 243 947 c 0,31,32
 258 926 258 926 280 926 c 0,0,1
EndSplineSet
Validated: 1
EndChar

StartChar: earab.sokon
Encoding: 1618 1618 170
Width: 0
VWidth: 1524
GlyphClass: 4
Flags: MW
AnchorPoint: "Anchor-4" 188 770 mark 0
AnchorPoint: "Anchor-2" 188 770 mark 0
AnchorPoint: "Anchor-0" 188 770 mark 0
LayerCount: 2
Back
Fore
SplineSet
133 1093 m 1,0,1
 59 1046 59 1046 59 943 c 0,2,3
 59 876 59 876 165 876 c 0,4,5
 239 876 239 876 278 922 c 1,6,-1
 282 933 l 1,7,8
 260 1028 260 1028 194 1072 c 0,9,10
 168 1090 168 1090 133 1093 c 1,0,1
326 958 m 0,11,12
 326 936 326 936 304 869 c 1,13,14
 230 800 230 800 165 800 c 128,-1,15
 100 800 100 800 53.5 840.5 c 128,-1,16
 7 881 7 881 7 942 c 0,17,18
 7 1092 7 1092 133 1166 c 1,19,20
 226 1146 226 1146 276 1082 c 128,-1,21
 326 1018 326 1018 326 958 c 0,11,12
EndSplineSet
Validated: 1
EndChar

StartChar: uni0653
Encoding: 1619 1619 171
Width: 0
VWidth: 1524
GlyphClass: 4
Flags: MW
AnchorPoint: "Anchor-4" 199 793 mark 0
AnchorPoint: "Anchor-2" 199 793 mark 0
AnchorPoint: "Anchor-0" 199 793 mark 0
LayerCount: 2
Back
Fore
SplineSet
492 929 m 1,0,1
 298 810 298 810 133 810 c 0,2,3
 84 810 84 810 -2 825 c 1,4,5
 -12 800 -12 800 -12 770 c 2,6,-1
 -12 716 l 1,7,-1
 -93 716 l 1,8,9
 -93 807 -93 807 -69 864.5 c 128,-1,10
 -45 922 -45 922 -26 945 c 1,11,12
 24 912 24 912 152 912 c 128,-1,13
 280 912 280 912 449 1015 c 1,14,-1
 492 929 l 1,0,1
EndSplineSet
Validated: 1
EndChar

StartChar: uni0654
Encoding: 1620 1620 172
Width: 0
VWidth: 1524
GlyphClass: 4
Flags: MW
AnchorPoint: "Anchor-4" 188 734 mark 0
AnchorPoint: "Anchor-2" 188 734 mark 0
AnchorPoint: "Anchor-0" 188 734 mark 0
LayerCount: 2
Back
Fore
SplineSet
103 855 m 1,0,1
 36 913 36 913 36 979.5 c 128,-1,2
 36 1046 36 1046 96 1106 c 128,-1,3
 156 1166 156 1166 222 1166 c 0,4,5
 223 1166 223 1166 223 1167 c 1,6,7
 288 1167 288 1167 342 1116 c 0,8,9
 356 1101 356 1101 372 1082 c 1,10,-1
 314 1015 l 1,11,12
 304 1026 304 1026 286 1046 c 128,-1,13
 268 1066 268 1066 234 1066 c 128,-1,14
 200 1066 200 1066 182 1058 c 0,15,16
 116 1026 116 1026 116 978 c 0,17,18
 116 943 116 943 218 901 c 1,19,20
 267 917 267 917 310 925.5 c 128,-1,21
 353 934 353 934 394 945 c 1,22,-1
 409 843 l 1,23,24
 367 833 367 833 331 827 c 0,25,26
 226 809 226 809 25 709 c 1,27,-1
 -10 802 l 1,28,29
 77 844 77 844 103 855 c 1,0,1
EndSplineSet
Validated: 1
EndChar

StartChar: uni0655
Encoding: 1621 1621 173
Width: 0
VWidth: 1524
GlyphClass: 4
Flags: MW
AnchorPoint: "Anchor-5" 176 -52 mark 0
AnchorPoint: "Anchor-3" 176 -52 mark 0
AnchorPoint: "Anchor-1" 176 -52 mark 0
LayerCount: 2
Back
Fore
SplineSet
64 -412 m 1,0,1
 -3 -354 -3 -354 -3 -289 c 128,-1,2
 -3 -224 -3 -224 57 -162 c 128,-1,3
 117 -100 117 -100 174.5 -100 c 128,-1,4
 232 -100 232 -100 264 -120.5 c 128,-1,5
 296 -141 296 -141 336 -186 c 1,6,-1
 275 -252 l 1,7,8
 264 -242 264 -242 246.5 -222 c 0,9,10
 229 -202 229 -202 187 -202 c 128,-1,11
 145 -202 145 -202 111.5 -230.5 c 128,-1,12
 78 -259 78 -259 78 -284.5 c 128,-1,13
 78 -310 78 -310 106.5 -329 c 128,-1,14
 135 -348 135 -348 180 -367 c 1,15,16
 233 -347 233 -347 271.5 -341 c 128,-1,17
 310 -335 310 -335 355 -323 c 1,18,-1
 372 -425 l 1,19,20
 348 -431 348 -431 326 -434 c 0,21,22
 205 -451 205 -451 -12 -558 c 1,23,-1
 -47 -466 l 1,24,25
 -14 -450 -14 -450 13 -436.5 c 128,-1,26
 40 -423 40 -423 64 -412 c 1,0,1
EndSplineSet
Validated: 1
EndChar

StartChar: uni0656
Encoding: 1622 1622 174
Width: 0
VWidth: 1524
GlyphClass: 4
Flags: MW
AnchorPoint: "Anchor-5" 188 -133 mark 0
AnchorPoint: "Anchor-3" 188 -133 mark 0
AnchorPoint: "Anchor-1" 188 -133 mark 0
LayerCount: 2
Back
Fore
SplineSet
265 -378 m 0,0,1
 265 -410 265 -410 254 -476 c 1,2,-1
 210 -476 l 1,3,4
 210 -321 210 -321 132 -204 c 1,5,-1
 195 -147 l 1,6,7
 265 -270 265 -270 265 -378 c 0,0,1
EndSplineSet
Validated: 1
EndChar

StartChar: uni0670
Encoding: 1648 1648 175
Width: 0
VWidth: 1524
GlyphClass: 4
Flags: MW
AnchorPoint: "Anchor-4" 176 852 mark 0
AnchorPoint: "Anchor-2" 176 852 mark 0
AnchorPoint: "Anchor-0" 176 852 mark 0
LayerCount: 2
Back
Fore
SplineSet
156 1175 m 1,0,1
 226 1051 226 1051 226 948 c 0,2,3
 226 921 226 921 224.5 910.5 c 128,-1,4
 223 900 223 900 221.5 888 c 128,-1,5
 220 876 220 876 218.5 864 c 128,-1,6
 217 852 217 852 216 846 c 1,7,-1
 173 846 l 1,8,9
 172 971 172 971 122 1065 c 0,10,11
 108 1092 108 1092 93 1118 c 1,12,-1
 156 1175 l 1,0,1
EndSplineSet
Validated: 1
EndChar

StartChar: uniFD3E
Encoding: 64830 64830 176
Width: 1233
VWidth: 1524
GlyphClass: 2
Flags: MW
LayerCount: 2
Back
Fore
SplineSet
1005 -561 m 1,0,1
 523 -399 523 -399 321 14 c 1,2,-1
 220 14 l 1,3,-1
 220 244 l 1,4,-1
 62 402 l 1,5,-1
 220 560 l 1,6,-1
 220 789 l 1,7,-1
 321 789 l 1,8,9
 456 1086 456 1086 774 1264 c 0,10,11
 880 1324 880 1324 1005 1364 c 1,12,-1
 1205 1364 l 1,13,14
 925 1088 925 1088 811 789 c 1,15,-1
 995 789 l 1,16,-1
 995 560 l 1,17,-1
 1152 402 l 1,18,-1
 995 244 l 1,19,-1
 995 14 l 1,20,-1
 811 14 l 1,21,22
 922 -283 922 -283 1205 -561 c 1,23,-1
 1005 -561 l 1,0,1
916 92 m 1,24,-1
 916 275 l 1,25,-1
 1044 402 l 1,26,-1
 916 529 l 1,27,-1
 916 711 l 1,28,-1
 734 711 l 1,29,-1
 607 838 l 1,30,-1
 480 711 l 1,31,-1
 298 711 l 1,32,-1
 298 529 l 1,33,-1
 171 402 l 1,34,-1
 298 275 l 1,35,-1
 298 92 l 1,36,-1
 480 92 l 1,37,-1
 607 -35 l 1,38,-1
 734 92 l 1,39,-1
 916 92 l 1,24,-1
865 404 m 256,40,41
 864 298 864 298 789 223 c 128,-1,42
 714 148 714 148 607 147 c 256,43,44
 500 148 500 148 426 222 c 128,-1,45
 352 296 352 296 350 404 c 256,46,47
 350 511 350 511 426 586 c 128,-1,48
 502 661 502 661 607 661 c 258,49,50
 610 661 l 2,51,52
 711 661 711 661 787.5 585.5 c 0,53,54
 864 510 864 510 865 404 c 256,40,41
735 818 m 1,55,56
 830 1077 830 1077 1023 1289 c 1,57,-1
 1019 1289 l 1,58,59
 692 1176 692 1176 506 946 c 0,60,61
 446 872 446 872 405 789 c 1,62,-1
 447 789 l 1,63,-1
 607 946 l 1,64,-1
 735 818 l 1,55,56
1023 -485 m 1,65,66
 829 -269 829 -269 735 -15 c 1,67,-1
 607 -143 l 1,68,-1
 447 14 l 1,69,-1
 405 14 l 1,70,71
 489 -151 489 -151 644 -279.5 c 128,-1,72
 799 -408 799 -408 1019 -485 c 1,73,-1
 1023 -485 l 1,65,66
607 228 m 1,74,-1
 783 404 l 1,75,-1
 607 582 l 1,76,-1
 428 404 l 1,77,-1
 607 228 l 1,74,-1
EndSplineSet
Validated: 1
EndChar

StartChar: uniFD3F
Encoding: 64831 64831 177
Width: 1233
VWidth: 1524
GlyphClass: 2
Flags: MW
LayerCount: 2
Back
Fore
SplineSet
1016 14 m 1,0,-1
 915 14 l 1,1,2
 778 -282 778 -282 462 -458 c 0,3,4
 356 -518 356 -518 231 -561 c 1,5,-1
 31 -561 l 1,6,7
 309 -287 309 -287 425 14 c 1,8,-1
 242 14 l 1,9,-1
 242 244 l 1,10,-1
 84 402 l 1,11,-1
 242 560 l 1,12,-1
 242 789 l 1,13,-1
 425 789 l 1,14,15
 344 1004 344 1004 152 1234 c 0,16,17
 94 1303 94 1303 31 1364 c 1,18,-1
 231 1364 l 1,19,20
 600 1240 600 1240 806 970 c 0,21,22
 872 884 872 884 915 789 c 1,23,-1
 1016 789 l 1,24,-1
 1016 560 l 1,25,-1
 1174 402 l 1,26,-1
 1016 244 l 1,27,-1
 1016 14 l 1,0,-1
939 92 m 1,28,-1
 939 275 l 1,29,-1
 1066 402 l 1,30,-1
 939 529 l 1,31,-1
 939 711 l 1,32,-1
 756 711 l 1,33,-1
 630 838 l 1,34,-1
 502 711 l 1,35,-1
 321 711 l 1,36,-1
 321 529 l 1,37,-1
 193 402 l 1,38,-1
 321 275 l 1,39,-1
 321 92 l 1,40,-1
 502 92 l 1,41,-1
 630 -35 l 1,42,-1
 756 92 l 1,43,-1
 939 92 l 1,28,-1
886 404 m 256,44,45
 886 294 886 294 810.5 220.5 c 0,46,47
 735 147 735 147 633 147 c 2,48,49
 630 147 l 257,50,51
 524 148 524 148 448 222 c 128,-1,52
 372 296 372 296 372 403.5 c 128,-1,53
 372 511 372 511 449 586 c 128,-1,54
 526 661 526 661 630 661 c 258,55,56
 633 661 l 2,57,58
 733 661 733 661 809.5 587.5 c 0,59,60
 886 514 886 514 886 404 c 256,44,45
213 1289 m 1,61,62
 406 1073 406 1073 501 818 c 1,63,-1
 630 946 l 1,64,-1
 788 789 l 1,65,-1
 831 789 l 1,66,67
 655 1136 655 1136 217 1289 c 1,68,-1
 213 1289 l 1,61,62
788 14 m 1,69,-1
 630 -143 l 1,70,-1
 501 -15 l 1,71,72
 407 -269 407 -269 213 -485 c 1,73,-1
 217 -485 l 1,74,75
 438 -408 438 -408 593.5 -279 c 128,-1,76
 749 -150 749 -150 831 14 c 1,77,-1
 788 14 l 1,69,-1
807 404 m 1,78,-1
 630 582 l 1,79,-1
 452 404 l 1,80,-1
 630 228 l 1,81,-1
 807 404 l 1,78,-1
EndSplineSet
Validated: 1
EndChar

StartChar: uniFDFC
Encoding: 65020 65020 178
Width: 2263
VWidth: 1524
GlyphClass: 2
Flags: MW
LayerCount: 2
Back
Fore
SplineSet
1212 -120 m 1,0,-1
 1055 -120 l 1,1,-1
 1055 36 l 1,2,-1
 1212 36 l 1,3,-1
 1212 -120 l 1,0,-1
1462 -120 m 1,4,-1
 1306 -120 l 1,5,-1
 1306 36 l 1,6,-1
 1462 36 l 1,7,-1
 1462 -120 l 1,4,-1
1007 1203 m 1,8,-1
 1007 363 l 2,9,10
 1007 -89 1007 -89 686 -188 c 0,11,12
 582 -220 582 -220 472 -220 c 0,13,14
 277 -220 277 -220 185.5 -138.5 c 128,-1,15
 94 -57 94 -57 94 89.5 c 128,-1,16
 94 236 94 236 224 462 c 1,17,-1
 321 416 l 1,18,19
 249 282 249 282 234 208 c 128,-1,20
 219 134 219 134 219 90 c 0,21,22
 219 -70 219 -70 451 -70 c 128,-1,23
 683 -70 683 -70 784 21.5 c 128,-1,24
 885 113 885 113 885 352 c 2,25,-1
 885 1203 l 1,26,-1
 1007 1203 l 1,8,-1
1606 731 m 1,27,-1
 1721 785 l 1,28,29
 1800 560 1800 560 1800 449 c 128,-1,30
 1800 338 1800 338 1715.5 264 c 128,-1,31
 1631 190 1631 190 1471.5 190 c 128,-1,32
 1312 190 1312 190 1247 255 c 128,-1,33
 1182 320 1182 320 1182 468 c 2,34,-1
 1182 1203 l 1,35,-1
 1304 1203 l 1,36,-1
 1304 468 l 2,37,38
 1304 400 1304 400 1342 369 c 128,-1,39
 1380 338 1380 338 1482 338 c 2,40,-1
 1485 338 l 2,41,42
 1584 338 1584 338 1630.5 369 c 128,-1,43
 1677 400 1677 400 1677 443 c 0,44,45
 1677 532 1677 532 1606 731 c 1,27,-1
1564 -10 m 1,46,47
 1901 111 1901 111 2010 282 c 0,48,49
 2047 340 2047 340 2047 410 c 128,-1,50
 2047 480 2047 480 2016.5 571 c 128,-1,51
 1986 662 1986 662 1957 697 c 1,52,-1
 2052 790 l 1,53,54
 2120 706 2120 706 2160 508 c 0,55,56
 2172 452 2172 452 2172 382.5 c 128,-1,57
 2172 313 2172 313 2128 230.5 c 128,-1,58
 2084 148 2084 148 2008 78 c 0,59,60
 1853 -66 1853 -66 1603 -155 c 1,61,-1
 1564 -10 l 1,46,47
EndSplineSet
Validated: 1
EndChar

StartChar: mG
Encoding: 65609 -1 179
Width: 786
VWidth: 1524
GlyphClass: 5
Flags: MW
LayerCount: 2
Back
Fore
SplineSet
725 1171 m 1,0,1
 367 1056 367 1056 121 930 c 1,2,-1
 86 1024 l 1,3,4
 415 1179 415 1179 701 1269 c 1,5,-1
 725 1171 l 1,0,1
EndSplineSet
Validated: 1
EndChar

StartChar: uniFB92
Encoding: 64402 64402 180
Width: 1725
VWidth: 1524
GlyphClass: 2
Flags: MW
AnchorPoint: "Anchor-1" 234 -161 basechar 0
AnchorPoint: "Anchor-0" 353 902 basechar 0
LayerCount: 2
Back
Fore
SplineSet
1664 1169 m 1,0,1
 1328 1061 1328 1061 1060 929 c 1,2,-1
 1025 1022 l 1,3,4
 1156 1084 1156 1084 1230 1113.5 c 128,-1,5
 1304 1143 1304 1143 1400 1183 c 128,-1,6
 1496 1223 1496 1223 1638 1267 c 1,7,-1
 1664 1169 l 1,0,1
1459 289 m 0,8,9
 1459 -29 1459 -29 647 -29 c 0,10,11
 644 -29 644 -29 641 -29 c 0,12,13
 410 -29 410 -29 259 48.5 c 0,14,15
 108 126 108 126 107 285 c 0,16,17
 107 417 107 417 178 605 c 1,18,-1
 299 579 l 1,19,20
 289 544 289 544 275.5 504 c 128,-1,21
 262 464 262 464 245 397.5 c 128,-1,22
 228 331 228 331 228 286.5 c 128,-1,23
 228 242 228 242 260 211 c 0,24,25
 355 120 355 120 647 120 c 0,26,27
 1339 120 1339 120 1339 289 c 0,28,29
 1338 381 1338 381 1234 463 c 0,30,31
 1170 513 1170 513 980 616 c 1,32,-1
 996 804 l 1,33,34
 1207 920 1207 920 1500 1023 c 0,35,36
 1576 1050 1576 1050 1629 1063 c 1,37,-1
 1656 916 l 1,38,39
 1530 887 1530 887 1360 813 c 128,-1,40
 1190 739 1190 739 1120 704 c 1,41,42
 1291 608 1291 608 1348.5 546.5 c 128,-1,43
 1406 485 1406 485 1432.5 426.5 c 128,-1,44
 1459 368 1459 368 1459 289 c 0,8,9
EndSplineSet
Validated: 1
PairPos2: "'kern' Horizontal Kerning in Arabic lookup 0 subtable" gaf_ye.farsi.isol dx=75 dy=0 dh=75 dv=0 dx=0 dy=0 dh=0 dv=0
PairPos2: "'kern' Horizontal Kerning in Arabic lookup 0 subtable" kaf.farsi_ye.farsi.isol dx=75 dy=0 dh=75 dv=0 dx=0 dy=0 dh=0 dv=0
PairPos2: "'kern' Horizontal Kerning in Arabic lookup 0 subtable" uniFB6C dx=100 dy=0 dh=100 dv=0 dx=0 dy=0 dh=0 dv=0
PairPos2: "'kern' Horizontal Kerning in Arabic lookup 0 subtable" uniFB6A dx=100 dy=0 dh=100 dv=0 dx=0 dy=0 dh=0 dv=0
PairPos2: "'kern' Horizontal Kerning in Arabic lookup 0 subtable" lam_ye.farsi.isol dx=100 dy=0 dh=100 dv=0 dx=0 dy=0 dh=0 dv=0
PairPos2: "'kern' Horizontal Kerning in Arabic lookup 0 subtable" mim_ye.farsi.isol dx=100 dy=0 dh=100 dv=0 dx=0 dy=0 dh=0 dv=0
PairPos2: "'kern' Horizontal Kerning in Arabic lookup 0 subtable" zad_ye.farsi.isol dx=100 dy=0 dh=100 dv=0 dx=0 dy=0 dh=0 dv=0
PairPos2: "'kern' Horizontal Kerning in Arabic lookup 0 subtable" shin_ye.farsi.isol dx=100 dy=0 dh=100 dv=0 dx=0 dy=0 dh=0 dv=0
PairPos2: "'kern' Horizontal Kerning in Arabic lookup 0 subtable" sad_ye.farsi.isol dx=100 dy=0 dh=100 dv=0 dx=0 dy=0 dh=0 dv=0
PairPos2: "'kern' Horizontal Kerning in Arabic lookup 0 subtable" sin_ye.farsi.isol dx=100 dy=0 dh=100 dv=0 dx=0 dy=0 dh=0 dv=0
PairPos2: "'kern' Horizontal Kerning in Arabic lookup 0 subtable" uniFEFB_earab.tanvin_fatheh dx=100 dy=0 dh=100 dv=0 dx=0 dy=0 dh=0 dv=0
PairPos2: "'kern' Horizontal Kerning in Arabic lookup 0 subtable" uniFEF7 dx=100 dy=0 dh=100 dv=0 dx=0 dy=0 dh=0 dv=0
PairPos2: "'kern' Horizontal Kerning in Arabic lookup 0 subtable" uniFEF5 dx=100 dy=0 dh=100 dv=0 dx=0 dy=0 dh=0 dv=0
PairPos2: "'kern' Horizontal Kerning in Arabic lookup 0 subtable" uniFEED dx=100 dy=0 dh=100 dv=0 dx=0 dy=0 dh=0 dv=0
PairPos2: "'kern' Horizontal Kerning in Arabic lookup 0 subtable" he8_uni0654.init dx=100 dy=0 dh=100 dv=0 dx=0 dy=0 dh=0 dv=0
PairPos2: "'kern' Horizontal Kerning in Arabic lookup 0 subtable" he8_uni0654.isol dx=100 dy=0 dh=100 dv=0 dx=0 dy=0 dh=0 dv=0
PairPos2: "'kern' Horizontal Kerning in Arabic lookup 0 subtable" he8.init dx=100 dy=0 dh=100 dv=0 dx=0 dy=0 dh=0 dv=0
PairPos2: "'kern' Horizontal Kerning in Arabic lookup 0 subtable" uniFEE9 dx=100 dy=0 dh=100 dv=0 dx=0 dy=0 dh=0 dv=0
PairPos2: "'kern' Horizontal Kerning in Arabic lookup 0 subtable" nun.init dx=100 dy=0 dh=100 dv=0 dx=0 dy=0 dh=0 dv=0
PairPos2: "'kern' Horizontal Kerning in Arabic lookup 0 subtable" mim.init dx=100 dy=0 dh=100 dv=0 dx=0 dy=0 dh=0 dv=0
PairPos2: "'kern' Horizontal Kerning in Arabic lookup 0 subtable" uniFEE1 dx=100 dy=0 dh=100 dv=0 dx=0 dy=0 dh=0 dv=0
PairPos2: "'kern' Horizontal Kerning in Arabic lookup 0 subtable" lam.init dx=100 dy=0 dh=100 dv=0 dx=0 dy=0 dh=0 dv=0
PairPos2: "'kern' Horizontal Kerning in Arabic lookup 0 subtable" uniFEDD dx=100 dy=0 dh=100 dv=0 dx=0 dy=0 dh=0 dv=0
PairPos2: "'kern' Horizontal Kerning in Arabic lookup 0 subtable" uniFEDB dx=75 dy=0 dh=75 dv=0 dx=0 dy=0 dh=0 dv=0
PairPos2: "'kern' Horizontal Kerning in Arabic lookup 0 subtable" uniFED9 dx=100 dy=0 dh=100 dv=0 dx=0 dy=0 dh=0 dv=0
PairPos2: "'kern' Horizontal Kerning in Arabic lookup 0 subtable" qaf.init dx=100 dy=0 dh=100 dv=0 dx=0 dy=0 dh=0 dv=0
PairPos2: "'kern' Horizontal Kerning in Arabic lookup 0 subtable" fe.init dx=100 dy=0 dh=100 dv=0 dx=0 dy=0 dh=0 dv=0
PairPos2: "'kern' Horizontal Kerning in Arabic lookup 0 subtable" uniFED1 dx=100 dy=0 dh=100 dv=0 dx=0 dy=0 dh=0 dv=0
PairPos2: "'kern' Horizontal Kerning in Arabic lookup 0 subtable" qein.init dx=100 dy=0 dh=100 dv=0 dx=0 dy=0 dh=0 dv=0
PairPos2: "'kern' Horizontal Kerning in Arabic lookup 0 subtable" uniFECD dx=100 dy=0 dh=100 dv=0 dx=0 dy=0 dh=0 dv=0
PairPos2: "'kern' Horizontal Kerning in Arabic lookup 0 subtable" ein.init dx=100 dy=0 dh=100 dv=0 dx=0 dy=0 dh=0 dv=0
PairPos2: "'kern' Horizontal Kerning in Arabic lookup 0 subtable" uniFEC9 dx=100 dy=0 dh=100 dv=0 dx=0 dy=0 dh=0 dv=0
PairPos2: "'kern' Horizontal Kerning in Arabic lookup 0 subtable" za.init dx=100 dy=0 dh=100 dv=0 dx=0 dy=0 dh=0 dv=0
PairPos2: "'kern' Horizontal Kerning in Arabic lookup 0 subtable" uniFEC5 dx=100 dy=0 dh=100 dv=0 dx=0 dy=0 dh=0 dv=0
PairPos2: "'kern' Horizontal Kerning in Arabic lookup 0 subtable" ta.init dx=100 dy=0 dh=100 dv=0 dx=0 dy=0 dh=0 dv=0
PairPos2: "'kern' Horizontal Kerning in Arabic lookup 0 subtable" uniFEC1 dx=100 dy=0 dh=100 dv=0 dx=0 dy=0 dh=0 dv=0
PairPos2: "'kern' Horizontal Kerning in Arabic lookup 0 subtable" zad.init dx=100 dy=0 dh=100 dv=0 dx=0 dy=0 dh=0 dv=0
PairPos2: "'kern' Horizontal Kerning in Arabic lookup 0 subtable" uniFEBD dx=100 dy=0 dh=100 dv=0 dx=0 dy=0 dh=0 dv=0
PairPos2: "'kern' Horizontal Kerning in Arabic lookup 0 subtable" sad.init dx=100 dy=0 dh=100 dv=0 dx=0 dy=0 dh=0 dv=0
PairPos2: "'kern' Horizontal Kerning in Arabic lookup 0 subtable" uniFEB9 dx=100 dy=0 dh=100 dv=0 dx=0 dy=0 dh=0 dv=0
PairPos2: "'kern' Horizontal Kerning in Arabic lookup 0 subtable" shin.init dx=100 dy=0 dh=100 dv=0 dx=0 dy=0 dh=0 dv=0
PairPos2: "'kern' Horizontal Kerning in Arabic lookup 0 subtable" uniFEB5 dx=100 dy=0 dh=100 dv=0 dx=0 dy=0 dh=0 dv=0
PairPos2: "'kern' Horizontal Kerning in Arabic lookup 0 subtable" sin.init dx=100 dy=0 dh=100 dv=0 dx=0 dy=0 dh=0 dv=0
PairPos2: "'kern' Horizontal Kerning in Arabic lookup 0 subtable" uniFEB1 dx=100 dy=0 dh=100 dv=0 dx=0 dy=0 dh=0 dv=0
PairPos2: "'kern' Horizontal Kerning in Arabic lookup 0 subtable" uniFEAF dx=100 dy=0 dh=100 dv=0 dx=0 dy=0 dh=0 dv=0
PairPos2: "'kern' Horizontal Kerning in Arabic lookup 0 subtable" uniFEAD dx=100 dy=0 dh=100 dv=0 dx=0 dy=0 dh=0 dv=0
PairPos2: "'kern' Horizontal Kerning in Arabic lookup 0 subtable" uniFEAB dx=100 dy=0 dh=100 dv=0 dx=0 dy=0 dh=0 dv=0
PairPos2: "'kern' Horizontal Kerning in Arabic lookup 0 subtable" uniFEA9 dx=100 dy=0 dh=100 dv=0 dx=0 dy=0 dh=0 dv=0
PairPos2: "'kern' Horizontal Kerning in Arabic lookup 0 subtable" khe.init dx=100 dy=0 dh=100 dv=0 dx=0 dy=0 dh=0 dv=0
PairPos2: "'kern' Horizontal Kerning in Arabic lookup 0 subtable" uniFEA5 dx=100 dy=0 dh=100 dv=0 dx=0 dy=0 dh=0 dv=0
PairPos2: "'kern' Horizontal Kerning in Arabic lookup 0 subtable" him.init dx=100 dy=0 dh=100 dv=0 dx=0 dy=0 dh=0 dv=0
PairPos2: "'kern' Horizontal Kerning in Arabic lookup 0 subtable" uniFEA1 dx=100 dy=0 dh=100 dv=0 dx=0 dy=0 dh=0 dv=0
PairPos2: "'kern' Horizontal Kerning in Arabic lookup 0 subtable" jim.init dx=100 dy=0 dh=100 dv=0 dx=0 dy=0 dh=0 dv=0
PairPos2: "'kern' Horizontal Kerning in Arabic lookup 0 subtable" uniFE9D dx=100 dy=0 dh=100 dv=0 dx=0 dy=0 dh=0 dv=0
PairPos2: "'kern' Horizontal Kerning in Arabic lookup 0 subtable" the.init dx=100 dy=0 dh=100 dv=0 dx=0 dy=0 dh=0 dv=0
PairPos2: "'kern' Horizontal Kerning in Arabic lookup 0 subtable" te.init dx=100 dy=0 dh=100 dv=0 dx=0 dy=0 dh=0 dv=0
PairPos2: "'kern' Horizontal Kerning in Arabic lookup 0 subtable" uniFE95 dx=100 dy=0 dh=100 dv=0 dx=0 dy=0 dh=0 dv=0
PairPos2: "'kern' Horizontal Kerning in Arabic lookup 0 subtable" uniFE93 dx=100 dy=0 dh=100 dv=0 dx=0 dy=0 dh=0 dv=0
PairPos2: "'kern' Horizontal Kerning in Arabic lookup 0 subtable" ye.hamze.init dx=100 dy=0 dh=100 dv=0 dx=0 dy=0 dh=0 dv=0
PairPos2: "'kern' Horizontal Kerning in Arabic lookup 0 subtable" uniFE83 dx=100 dy=0 dh=100 dv=0 dx=0 dy=0 dh=0 dv=0
PairPos2: "'kern' Horizontal Kerning in Arabic lookup 0 subtable" uniFE81 dx=100 dy=0 dh=100 dv=0 dx=0 dy=0 dh=0 dv=0
PairPos2: "'kern' Horizontal Kerning in Arabic lookup 0 subtable" uniFE80 dx=100 dy=0 dh=100 dv=0 dx=0 dy=0 dh=0 dv=0
PairPos2: "'kern' Horizontal Kerning in Arabic lookup 0 subtable" uniFD3D dx=100 dy=0 dh=100 dv=0 dx=0 dy=0 dh=0 dv=0
PairPos2: "'kern' Horizontal Kerning in Arabic lookup 0 subtable" uniFBE8 dx=100 dy=0 dh=100 dv=0 dx=0 dy=0 dh=0 dv=0
PairPos2: "'kern' Horizontal Kerning in Arabic lookup 0 subtable" heye dx=100 dy=0 dh=100 dv=0 dx=0 dy=0 dh=0 dv=0
PairPos2: "'kern' Horizontal Kerning in Arabic lookup 0 subtable" kaf.init dx=75 dy=0 dh=75 dv=0 dx=0 dy=0 dh=0 dv=0
PairPos2: "'kern' Horizontal Kerning in Arabic lookup 0 subtable" uniFB8E dx=75 dy=0 dh=75 dv=0 dx=0 dy=0 dh=0 dv=0
PairPos2: "'kern' Horizontal Kerning in Arabic lookup 0 subtable" uniFB8A dx=100 dy=0 dh=100 dv=0 dx=0 dy=0 dh=0 dv=0
PairPos2: "'kern' Horizontal Kerning in Arabic lookup 0 subtable" che.init dx=100 dy=0 dh=100 dv=0 dx=0 dy=0 dh=0 dv=0
PairPos2: "'kern' Horizontal Kerning in Arabic lookup 0 subtable" uniFB7A dx=100 dy=0 dh=100 dv=0 dx=0 dy=0 dh=0 dv=0
PairPos2: "'kern' Horizontal Kerning in Arabic lookup 0 subtable" uniFB56 dx=100 dy=0 dh=100 dv=0 dx=0 dy=0 dh=0 dv=0
PairPos2: "'kern' Horizontal Kerning in Arabic lookup 0 subtable" uniFB50 dx=100 dy=0 dh=100 dv=0 dx=0 dy=0 dh=0 dv=0
PairPos2: "'kern' Horizontal Kerning in Arabic lookup 0 subtable" gaf.init dx=75 dy=0 dh=75 dv=0 dx=0 dy=0 dh=0 dv=0
PairPos2: "'kern' Horizontal Kerning in Arabic lookup 0 subtable" uniFB92 dx=75 dy=0 dh=75 dv=0 dx=0 dy=0 dh=0 dv=0
PairPos2: "'kern' Horizontal Kerning in Arabic lookup 0 subtable" uniFEFB dx=100 dy=0 dh=100 dv=0 dx=0 dy=0 dh=0 dv=0
PairPos2: "'kern' Horizontal Kerning in Arabic lookup 0 subtable" uniFE8D dx=100 dy=0 dh=100 dv=0 dx=0 dy=0 dh=0 dv=0
EndChar

StartChar: gaf.fina
Encoding: 64403 64403 181
Width: 1825
VWidth: 1524
GlyphClass: 2
Flags: MW
AnchorPoint: "Anchor-1" 234 -161 basechar 0
AnchorPoint: "Anchor-0" 353 902 basechar 0
LayerCount: 2
Back
Fore
SplineSet
649 120 m 0,0,1
 1340 120 1340 120 1340 289 c 0,2,3
 1340 381 1340 381 1236 463 c 0,4,5
 1174 511 1174 511 982 616 c 1,6,-1
 997 804 l 1,7,8
 1206 919 1206 919 1502 1023 c 0,9,10
 1578 1050 1578 1050 1631 1063 c 1,11,-1
 1658 916 l 1,12,13
 1532 887 1532 887 1362 813 c 128,-1,14
 1192 739 1192 739 1121 704 c 1,15,16
 1305 597 1305 597 1387 534 c 0,17,18
 1563 398 1563 398 1625 282 c 0,19,20
 1655 222 1655 222 1688 197 c 0,21,22
 1751 150 1751 150 1828 150 c 1,23,-1
 1828 0 l 1,24,25
 1664 0 1664 0 1568 136 c 0,26,27
 1541 174 1541 174 1518 216 c 128,-1,28
 1495 258 1495 258 1461 295 c 1,29,30
 1458 96 1458 96 1178 22 c 0,31,32
 1010 -22 1010 -22 870 -26 c 0,33,34
 758 -29 758 -29 671 -29 c 0,35,36
 649 -29 649 -29 628 -29 c 0,37,38
 408 -29 408 -29 257.5 48 c 128,-1,39
 107 125 107 125 107 283 c 0,40,41
 107 417 107 417 178 605 c 1,42,-1
 299 579 l 1,43,44
 288 544 288 544 258 454 c 128,-1,45
 228 364 228 364 228 284 c 128,-1,46
 228 204 228 204 343 162 c 128,-1,47
 458 120 458 120 649 120 c 0,0,1
1666 1171 m 1,48,49
 1299 1053 1299 1053 1062 930 c 1,50,-1
 1027 1024 l 1,51,52
 1362 1182 1362 1182 1639 1269 c 1,53,-1
 1666 1171 l 1,48,49
EndSplineSet
Validated: 1
PairPos2: "'kern' Horizontal Kerning in Arabic lookup 0 subtable" gaf_ye.farsi.isol dx=75 dy=0 dh=75 dv=0 dx=0 dy=0 dh=0 dv=0
PairPos2: "'kern' Horizontal Kerning in Arabic lookup 0 subtable" kaf.farsi_ye.farsi.isol dx=75 dy=0 dh=75 dv=0 dx=0 dy=0 dh=0 dv=0
PairPos2: "'kern' Horizontal Kerning in Arabic lookup 0 subtable" uniFB6C dx=100 dy=0 dh=100 dv=0 dx=0 dy=0 dh=0 dv=0
PairPos2: "'kern' Horizontal Kerning in Arabic lookup 0 subtable" uniFB6A dx=100 dy=0 dh=100 dv=0 dx=0 dy=0 dh=0 dv=0
PairPos2: "'kern' Horizontal Kerning in Arabic lookup 0 subtable" lam_ye.farsi.isol dx=100 dy=0 dh=100 dv=0 dx=0 dy=0 dh=0 dv=0
PairPos2: "'kern' Horizontal Kerning in Arabic lookup 0 subtable" mim_ye.farsi.isol dx=100 dy=0 dh=100 dv=0 dx=0 dy=0 dh=0 dv=0
PairPos2: "'kern' Horizontal Kerning in Arabic lookup 0 subtable" zad_ye.farsi.isol dx=100 dy=0 dh=100 dv=0 dx=0 dy=0 dh=0 dv=0
PairPos2: "'kern' Horizontal Kerning in Arabic lookup 0 subtable" shin_ye.farsi.isol dx=100 dy=0 dh=100 dv=0 dx=0 dy=0 dh=0 dv=0
PairPos2: "'kern' Horizontal Kerning in Arabic lookup 0 subtable" sad_ye.farsi.isol dx=100 dy=0 dh=100 dv=0 dx=0 dy=0 dh=0 dv=0
PairPos2: "'kern' Horizontal Kerning in Arabic lookup 0 subtable" sin_ye.farsi.isol dx=100 dy=0 dh=100 dv=0 dx=0 dy=0 dh=0 dv=0
PairPos2: "'kern' Horizontal Kerning in Arabic lookup 0 subtable" uniFEFB_earab.tanvin_fatheh dx=100 dy=0 dh=100 dv=0 dx=0 dy=0 dh=0 dv=0
PairPos2: "'kern' Horizontal Kerning in Arabic lookup 0 subtable" uniFEF7 dx=100 dy=0 dh=100 dv=0 dx=0 dy=0 dh=0 dv=0
PairPos2: "'kern' Horizontal Kerning in Arabic lookup 0 subtable" uniFEF5 dx=100 dy=0 dh=100 dv=0 dx=0 dy=0 dh=0 dv=0
PairPos2: "'kern' Horizontal Kerning in Arabic lookup 0 subtable" uniFEED dx=100 dy=0 dh=100 dv=0 dx=0 dy=0 dh=0 dv=0
PairPos2: "'kern' Horizontal Kerning in Arabic lookup 0 subtable" he8_uni0654.init dx=100 dy=0 dh=100 dv=0 dx=0 dy=0 dh=0 dv=0
PairPos2: "'kern' Horizontal Kerning in Arabic lookup 0 subtable" he8_uni0654.isol dx=100 dy=0 dh=100 dv=0 dx=0 dy=0 dh=0 dv=0
PairPos2: "'kern' Horizontal Kerning in Arabic lookup 0 subtable" he8.init dx=100 dy=0 dh=100 dv=0 dx=0 dy=0 dh=0 dv=0
PairPos2: "'kern' Horizontal Kerning in Arabic lookup 0 subtable" uniFEE9 dx=100 dy=0 dh=100 dv=0 dx=0 dy=0 dh=0 dv=0
PairPos2: "'kern' Horizontal Kerning in Arabic lookup 0 subtable" nun.init dx=100 dy=0 dh=100 dv=0 dx=0 dy=0 dh=0 dv=0
PairPos2: "'kern' Horizontal Kerning in Arabic lookup 0 subtable" mim.init dx=100 dy=0 dh=100 dv=0 dx=0 dy=0 dh=0 dv=0
PairPos2: "'kern' Horizontal Kerning in Arabic lookup 0 subtable" uniFEE1 dx=100 dy=0 dh=100 dv=0 dx=0 dy=0 dh=0 dv=0
PairPos2: "'kern' Horizontal Kerning in Arabic lookup 0 subtable" lam.init dx=100 dy=0 dh=100 dv=0 dx=0 dy=0 dh=0 dv=0
PairPos2: "'kern' Horizontal Kerning in Arabic lookup 0 subtable" uniFEDD dx=100 dy=0 dh=100 dv=0 dx=0 dy=0 dh=0 dv=0
PairPos2: "'kern' Horizontal Kerning in Arabic lookup 0 subtable" uniFEDB dx=75 dy=0 dh=75 dv=0 dx=0 dy=0 dh=0 dv=0
PairPos2: "'kern' Horizontal Kerning in Arabic lookup 0 subtable" uniFED9 dx=100 dy=0 dh=100 dv=0 dx=0 dy=0 dh=0 dv=0
PairPos2: "'kern' Horizontal Kerning in Arabic lookup 0 subtable" qaf.init dx=100 dy=0 dh=100 dv=0 dx=0 dy=0 dh=0 dv=0
PairPos2: "'kern' Horizontal Kerning in Arabic lookup 0 subtable" fe.init dx=100 dy=0 dh=100 dv=0 dx=0 dy=0 dh=0 dv=0
PairPos2: "'kern' Horizontal Kerning in Arabic lookup 0 subtable" uniFED1 dx=100 dy=0 dh=100 dv=0 dx=0 dy=0 dh=0 dv=0
PairPos2: "'kern' Horizontal Kerning in Arabic lookup 0 subtable" qein.init dx=100 dy=0 dh=100 dv=0 dx=0 dy=0 dh=0 dv=0
PairPos2: "'kern' Horizontal Kerning in Arabic lookup 0 subtable" uniFECD dx=100 dy=0 dh=100 dv=0 dx=0 dy=0 dh=0 dv=0
PairPos2: "'kern' Horizontal Kerning in Arabic lookup 0 subtable" ein.init dx=100 dy=0 dh=100 dv=0 dx=0 dy=0 dh=0 dv=0
PairPos2: "'kern' Horizontal Kerning in Arabic lookup 0 subtable" uniFEC9 dx=100 dy=0 dh=100 dv=0 dx=0 dy=0 dh=0 dv=0
PairPos2: "'kern' Horizontal Kerning in Arabic lookup 0 subtable" za.init dx=100 dy=0 dh=100 dv=0 dx=0 dy=0 dh=0 dv=0
PairPos2: "'kern' Horizontal Kerning in Arabic lookup 0 subtable" uniFEC5 dx=100 dy=0 dh=100 dv=0 dx=0 dy=0 dh=0 dv=0
PairPos2: "'kern' Horizontal Kerning in Arabic lookup 0 subtable" ta.init dx=100 dy=0 dh=100 dv=0 dx=0 dy=0 dh=0 dv=0
PairPos2: "'kern' Horizontal Kerning in Arabic lookup 0 subtable" uniFEC1 dx=100 dy=0 dh=100 dv=0 dx=0 dy=0 dh=0 dv=0
PairPos2: "'kern' Horizontal Kerning in Arabic lookup 0 subtable" zad.init dx=100 dy=0 dh=100 dv=0 dx=0 dy=0 dh=0 dv=0
PairPos2: "'kern' Horizontal Kerning in Arabic lookup 0 subtable" uniFEBD dx=100 dy=0 dh=100 dv=0 dx=0 dy=0 dh=0 dv=0
PairPos2: "'kern' Horizontal Kerning in Arabic lookup 0 subtable" sad.init dx=100 dy=0 dh=100 dv=0 dx=0 dy=0 dh=0 dv=0
PairPos2: "'kern' Horizontal Kerning in Arabic lookup 0 subtable" uniFEB9 dx=100 dy=0 dh=100 dv=0 dx=0 dy=0 dh=0 dv=0
PairPos2: "'kern' Horizontal Kerning in Arabic lookup 0 subtable" shin.init dx=100 dy=0 dh=100 dv=0 dx=0 dy=0 dh=0 dv=0
PairPos2: "'kern' Horizontal Kerning in Arabic lookup 0 subtable" uniFEB5 dx=100 dy=0 dh=100 dv=0 dx=0 dy=0 dh=0 dv=0
PairPos2: "'kern' Horizontal Kerning in Arabic lookup 0 subtable" sin.init dx=100 dy=0 dh=100 dv=0 dx=0 dy=0 dh=0 dv=0
PairPos2: "'kern' Horizontal Kerning in Arabic lookup 0 subtable" uniFEB1 dx=100 dy=0 dh=100 dv=0 dx=0 dy=0 dh=0 dv=0
PairPos2: "'kern' Horizontal Kerning in Arabic lookup 0 subtable" uniFEAF dx=100 dy=0 dh=100 dv=0 dx=0 dy=0 dh=0 dv=0
PairPos2: "'kern' Horizontal Kerning in Arabic lookup 0 subtable" uniFEAD dx=100 dy=0 dh=100 dv=0 dx=0 dy=0 dh=0 dv=0
PairPos2: "'kern' Horizontal Kerning in Arabic lookup 0 subtable" uniFEAB dx=100 dy=0 dh=100 dv=0 dx=0 dy=0 dh=0 dv=0
PairPos2: "'kern' Horizontal Kerning in Arabic lookup 0 subtable" uniFEA9 dx=100 dy=0 dh=100 dv=0 dx=0 dy=0 dh=0 dv=0
PairPos2: "'kern' Horizontal Kerning in Arabic lookup 0 subtable" khe.init dx=100 dy=0 dh=100 dv=0 dx=0 dy=0 dh=0 dv=0
PairPos2: "'kern' Horizontal Kerning in Arabic lookup 0 subtable" uniFEA5 dx=100 dy=0 dh=100 dv=0 dx=0 dy=0 dh=0 dv=0
PairPos2: "'kern' Horizontal Kerning in Arabic lookup 0 subtable" him.init dx=100 dy=0 dh=100 dv=0 dx=0 dy=0 dh=0 dv=0
PairPos2: "'kern' Horizontal Kerning in Arabic lookup 0 subtable" uniFEA1 dx=100 dy=0 dh=100 dv=0 dx=0 dy=0 dh=0 dv=0
PairPos2: "'kern' Horizontal Kerning in Arabic lookup 0 subtable" jim.init dx=100 dy=0 dh=100 dv=0 dx=0 dy=0 dh=0 dv=0
PairPos2: "'kern' Horizontal Kerning in Arabic lookup 0 subtable" uniFE9D dx=100 dy=0 dh=100 dv=0 dx=0 dy=0 dh=0 dv=0
PairPos2: "'kern' Horizontal Kerning in Arabic lookup 0 subtable" the.init dx=100 dy=0 dh=100 dv=0 dx=0 dy=0 dh=0 dv=0
PairPos2: "'kern' Horizontal Kerning in Arabic lookup 0 subtable" te.init dx=100 dy=0 dh=100 dv=0 dx=0 dy=0 dh=0 dv=0
PairPos2: "'kern' Horizontal Kerning in Arabic lookup 0 subtable" uniFE95 dx=100 dy=0 dh=100 dv=0 dx=0 dy=0 dh=0 dv=0
PairPos2: "'kern' Horizontal Kerning in Arabic lookup 0 subtable" uniFE93 dx=100 dy=0 dh=100 dv=0 dx=0 dy=0 dh=0 dv=0
PairPos2: "'kern' Horizontal Kerning in Arabic lookup 0 subtable" ye.hamze.init dx=100 dy=0 dh=100 dv=0 dx=0 dy=0 dh=0 dv=0
PairPos2: "'kern' Horizontal Kerning in Arabic lookup 0 subtable" uniFE83 dx=100 dy=0 dh=100 dv=0 dx=0 dy=0 dh=0 dv=0
PairPos2: "'kern' Horizontal Kerning in Arabic lookup 0 subtable" uniFE81 dx=100 dy=0 dh=100 dv=0 dx=0 dy=0 dh=0 dv=0
PairPos2: "'kern' Horizontal Kerning in Arabic lookup 0 subtable" uniFE80 dx=100 dy=0 dh=100 dv=0 dx=0 dy=0 dh=0 dv=0
PairPos2: "'kern' Horizontal Kerning in Arabic lookup 0 subtable" uniFD3D dx=100 dy=0 dh=100 dv=0 dx=0 dy=0 dh=0 dv=0
PairPos2: "'kern' Horizontal Kerning in Arabic lookup 0 subtable" uniFBE8 dx=100 dy=0 dh=100 dv=0 dx=0 dy=0 dh=0 dv=0
PairPos2: "'kern' Horizontal Kerning in Arabic lookup 0 subtable" heye dx=100 dy=0 dh=100 dv=0 dx=0 dy=0 dh=0 dv=0
PairPos2: "'kern' Horizontal Kerning in Arabic lookup 0 subtable" kaf.init dx=75 dy=0 dh=75 dv=0 dx=0 dy=0 dh=0 dv=0
PairPos2: "'kern' Horizontal Kerning in Arabic lookup 0 subtable" uniFB8E dx=75 dy=0 dh=75 dv=0 dx=0 dy=0 dh=0 dv=0
PairPos2: "'kern' Horizontal Kerning in Arabic lookup 0 subtable" uniFB8A dx=100 dy=0 dh=100 dv=0 dx=0 dy=0 dh=0 dv=0
PairPos2: "'kern' Horizontal Kerning in Arabic lookup 0 subtable" che.init dx=100 dy=0 dh=100 dv=0 dx=0 dy=0 dh=0 dv=0
PairPos2: "'kern' Horizontal Kerning in Arabic lookup 0 subtable" uniFB7A dx=100 dy=0 dh=100 dv=0 dx=0 dy=0 dh=0 dv=0
PairPos2: "'kern' Horizontal Kerning in Arabic lookup 0 subtable" uniFB56 dx=100 dy=0 dh=100 dv=0 dx=0 dy=0 dh=0 dv=0
PairPos2: "'kern' Horizontal Kerning in Arabic lookup 0 subtable" uniFB50 dx=100 dy=0 dh=100 dv=0 dx=0 dy=0 dh=0 dv=0
PairPos2: "'kern' Horizontal Kerning in Arabic lookup 0 subtable" gaf.init dx=75 dy=0 dh=75 dv=0 dx=0 dy=0 dh=0 dv=0
PairPos2: "'kern' Horizontal Kerning in Arabic lookup 0 subtable" uniFB92 dx=75 dy=0 dh=75 dv=0 dx=0 dy=0 dh=0 dv=0
PairPos2: "'kern' Horizontal Kerning in Arabic lookup 0 subtable" uniFEFB dx=100 dy=0 dh=100 dv=0 dx=0 dy=0 dh=0 dv=0
PairPos2: "'kern' Horizontal Kerning in Arabic lookup 0 subtable" uniFE8D dx=100 dy=0 dh=100 dv=0 dx=0 dy=0 dh=0 dv=0
EndChar

StartChar: gaf.init
Encoding: 64404 64404 182
Width: 796
VWidth: 1524
GlyphClass: 2
Flags: MW
AnchorPoint: "Anchor-1" 234 -161 basechar 0
AnchorPoint: "Anchor-0" 210 1134 basechar 0
LayerCount: 2
Back
Fore
SplineSet
725 1171 m 1,0,1
 367 1056 367 1056 121 930 c 1,2,-1
 86 1024 l 1,3,4
 415 1179 415 1179 701 1269 c 1,5,-1
 725 1171 l 1,0,1
0 0 m 2,6,7
 -27 0 -27 0 -55 10 c 1,8,-1
 -55 150 l 1,9,-1
 55 150 l 2,10,11
 282 150 282 150 370 228 c 0,12,13
 400 254 400 254 400 296 c 0,14,15
 400 418 400 418 182 539 c 0,16,17
 118 575 118 575 43 616 c 1,18,-1
 59 804 l 1,19,20
 283 927 283 927 563 1023 c 0,21,22
 639 1050 639 1050 690 1063 c 1,23,-1
 719 916 l 1,24,25
 596 887 596 887 424 813 c 128,-1,26
 252 739 252 739 182 704 c 1,27,28
 350 609 350 609 409 547 c 0,29,30
 520 430 520 430 520 304 c 0,31,32
 520 106 520 106 284 32 c 0,33,34
 178 0 178 0 55 0 c 2,35,-1
 0 0 l 2,6,7
EndSplineSet
Validated: 1
EndChar

StartChar: gaf.medi
Encoding: 64405 64405 183
Width: 898
VWidth: 1524
GlyphClass: 2
Flags: MW
AnchorPoint: "Anchor-1" 234 -161 basechar 0
AnchorPoint: "Anchor-0" 210 1134 basechar 0
LayerCount: 2
Back
Fore
SplineSet
725 1171 m 1,0,1
 367 1056 367 1056 121 930 c 1,2,-1
 86 1024 l 1,3,4
 415 1179 415 1179 701 1269 c 1,5,-1
 725 1171 l 1,0,1
900 0 m 1,6,7
 687 0 687 0 583 208 c 0,8,9
 566 242 566 242 520 297 c 1,10,11
 520 150 520 150 382.5 75 c 128,-1,12
 245 0 245 0 55 0 c 2,13,-1
 0 0 l 2,14,15
 -27 0 -27 0 -55 10 c 1,16,-1
 -55 150 l 1,17,-1
 55 150 l 2,18,19
 282 150 282 150 370 228 c 0,20,21
 400 254 400 254 400 296 c 0,22,23
 400 418 400 418 182 539 c 0,24,25
 118 575 118 575 43 616 c 1,26,-1
 59 804 l 1,27,28
 283 927 283 927 563 1023 c 0,29,30
 639 1050 639 1050 690 1063 c 1,31,-1
 719 916 l 1,32,33
 596 887 596 887 424 813 c 128,-1,34
 252 739 252 739 182 704 c 1,35,36
 367 596 367 596 448 534 c 0,37,38
 625 397 625 397 684 282 c 0,39,40
 750 150 750 150 900 150 c 1,41,-1
 900 0 l 1,6,7
EndSplineSet
Validated: 1
EndChar

StartChar: khe.medi
Encoding: 65192 65192 298
Width: 1201
VWidth: 1524
GlyphClass: 2
Flags: MW
AnchorPoint: "Anchor-1" 344 -161 basechar 0
AnchorPoint: "Anchor-0" 318 1180 basechar 0
LayerCount: 2
Back
Fore
SplineSet
29 209 m 1053
EndSplineSet
Refer: 100 -1 N 1 0 0 1 0 0 3
Refer: 155 -1 N 1 0 0 1 344 71 2
Validated: 1
EndChar

StartChar: sin_ye.farsi.isol
Encoding: 65636 -1 406
Width: 2445
VWidth: 1524
GlyphClass: 3
LigCaretCntFixed: 1
Flags: MW
AnchorPoint: "Anchor-3" 1559 -204 baselig 0
AnchorPoint: "Anchor-2" 1478 946 baselig 0
AnchorPoint: "Anchor-3" 328 -439 baselig 1
AnchorPoint: "Anchor-2" 398 722 baselig 1
LayerCount: 2
Back
Fore
SplineSet
1853 98 m 1,0,1
 1779 0 1779 0 1663 0 c 0,2,3
 1483 0 1483 0 1412 146 c 0,4,5
 1392 188 1392 188 1370.5 243.5 c 128,-1,6
 1349 299 1349 299 1304.5 340.5 c 128,-1,7
 1260 382 1260 382 1187 382 c 0,8,9
 1058 382 1058 382 955 341 c 128,-1,10
 852 300 852 300 851 239 c 0,11,12
 852 222 852 222 868 214 c 0,13,14
 906 196 906 196 1015.5 165.5 c 128,-1,15
 1125 135 1125 135 1163 94 c 128,-1,16
 1201 53 1201 53 1201 -46 c 0,17,18
 1200 -209 1200 -209 810 -304 c 0,19,20
 642 -345 642 -345 463.5 -345 c 128,-1,21
 285 -345 285 -345 190 -268 c 128,-1,22
 95 -191 95 -191 95 -37.5 c 128,-1,23
 95 116 95 116 222 337 c 1,24,-1
 319 290 l 1,25,26
 304 262 304 262 284 227 c 0,27,28
 212 97 212 97 212 -49 c 128,-1,29
 212 -195 212 -195 468 -195 c 0,30,31
 664 -195 664 -195 793 -170.5 c 128,-1,32
 922 -146 922 -146 972 -130 c 0,33,34
 1084 -93 1084 -93 1084 -46 c 0,35,36
 1084 -22 1084 -22 1057 -6.5 c 128,-1,37
 1030 9 1030 9 920 39.5 c 128,-1,38
 810 70 810 70 771.5 111 c 128,-1,39
 733 152 733 152 733 217.5 c 128,-1,40
 733 283 733 283 752 322 c 0,41,42
 807 435 807 435 965 494 c 0,43,44
 1067 532 1067 532 1158 532 c 0,45,46
 1313 532 1313 532 1388 455 c 0,47,48
 1437 406 1437 406 1473.5 311.5 c 128,-1,49
 1510 217 1510 217 1533 195 c 0,50,51
 1579 150 1579 150 1650.5 150 c 128,-1,52
 1722 150 1722 150 1763 194 c 128,-1,53
 1804 238 1804 238 1804 278 c 2,54,-1
 1804 392 l 1,55,-1
 1924 392 l 1,56,-1
 1924 272 l 2,57,58
 1924 212 1924 212 1966 179 c 0,59,60
 2008 146 2008 146 2042 146 c 0,61,62
 2076 146 2076 146 2103 153 c 0,63,64
 2180 174 2180 174 2214 217 c 0,65,66
 2228 238 2228 238 2228 258 c 0,67,68
 2228 351 2228 351 2156 575 c 1,69,-1
 2280 586 l 1,70,71
 2339 405 2339 405 2344.5 347.5 c 128,-1,72
 2350 290 2350 290 2350 248 c 0,73,74
 2350 156 2350 156 2261 78 c 0,75,76
 2172 0 2172 0 2068 0 c 0,77,78
 2067 0 2067 0 2066 0 c 0,79,80
 1964 0 1964 0 1894 53 c 0,81,82
 1870 71 1870 71 1853 98 c 1,0,1
EndSplineSet
Validated: 1
Ligature2: "'liga' Standard Ligatures in Arabic lookup 7 subtable" sin.init uniFEF0
Ligature2: "'liga' Standard Ligatures in Arabic lookup 7 subtable" sin.init ye.fina.farsiina
PairPos2: "'kern' Horizontal Kerning in Arabic lookup 0 subtable" gaf_ye.farsi.isol dx=75 dy=0 dh=75 dv=0 dx=0 dy=0 dh=0 dv=0
PairPos2: "'kern' Horizontal Kerning in Arabic lookup 0 subtable" kaf.farsi_ye.farsi.isol dx=75 dy=0 dh=75 dv=0 dx=0 dy=0 dh=0 dv=0
PairPos2: "'kern' Horizontal Kerning in Arabic lookup 0 subtable" uniFB6C dx=100 dy=0 dh=100 dv=0 dx=0 dy=0 dh=0 dv=0
PairPos2: "'kern' Horizontal Kerning in Arabic lookup 0 subtable" uniFB6A dx=100 dy=0 dh=100 dv=0 dx=0 dy=0 dh=0 dv=0
PairPos2: "'kern' Horizontal Kerning in Arabic lookup 0 subtable" lam_ye.farsi.isol dx=100 dy=0 dh=100 dv=0 dx=0 dy=0 dh=0 dv=0
PairPos2: "'kern' Horizontal Kerning in Arabic lookup 0 subtable" mim_ye.farsi.isol dx=100 dy=0 dh=100 dv=0 dx=0 dy=0 dh=0 dv=0
PairPos2: "'kern' Horizontal Kerning in Arabic lookup 0 subtable" zad_ye.farsi.isol dx=100 dy=0 dh=100 dv=0 dx=0 dy=0 dh=0 dv=0
PairPos2: "'kern' Horizontal Kerning in Arabic lookup 0 subtable" shin_ye.farsi.isol dx=100 dy=0 dh=100 dv=0 dx=0 dy=0 dh=0 dv=0
PairPos2: "'kern' Horizontal Kerning in Arabic lookup 0 subtable" sad_ye.farsi.isol dx=100 dy=0 dh=100 dv=0 dx=0 dy=0 dh=0 dv=0
PairPos2: "'kern' Horizontal Kerning in Arabic lookup 0 subtable" sin_ye.farsi.isol dx=100 dy=0 dh=100 dv=0 dx=0 dy=0 dh=0 dv=0
PairPos2: "'kern' Horizontal Kerning in Arabic lookup 0 subtable" uniFEFB_earab.tanvin_fatheh dx=100 dy=0 dh=100 dv=0 dx=0 dy=0 dh=0 dv=0
PairPos2: "'kern' Horizontal Kerning in Arabic lookup 0 subtable" uniFEF7 dx=100 dy=0 dh=100 dv=0 dx=0 dy=0 dh=0 dv=0
PairPos2: "'kern' Horizontal Kerning in Arabic lookup 0 subtable" uniFEF5 dx=100 dy=0 dh=100 dv=0 dx=0 dy=0 dh=0 dv=0
PairPos2: "'kern' Horizontal Kerning in Arabic lookup 0 subtable" uniFEED dx=100 dy=0 dh=100 dv=0 dx=0 dy=0 dh=0 dv=0
PairPos2: "'kern' Horizontal Kerning in Arabic lookup 0 subtable" he8_uni0654.init dx=100 dy=0 dh=100 dv=0 dx=0 dy=0 dh=0 dv=0
PairPos2: "'kern' Horizontal Kerning in Arabic lookup 0 subtable" he8_uni0654.isol dx=100 dy=0 dh=100 dv=0 dx=0 dy=0 dh=0 dv=0
PairPos2: "'kern' Horizontal Kerning in Arabic lookup 0 subtable" he8.init dx=100 dy=0 dh=100 dv=0 dx=0 dy=0 dh=0 dv=0
PairPos2: "'kern' Horizontal Kerning in Arabic lookup 0 subtable" uniFEE9 dx=100 dy=0 dh=100 dv=0 dx=0 dy=0 dh=0 dv=0
PairPos2: "'kern' Horizontal Kerning in Arabic lookup 0 subtable" nun.init dx=100 dy=0 dh=100 dv=0 dx=0 dy=0 dh=0 dv=0
PairPos2: "'kern' Horizontal Kerning in Arabic lookup 0 subtable" mim.init dx=100 dy=0 dh=100 dv=0 dx=0 dy=0 dh=0 dv=0
PairPos2: "'kern' Horizontal Kerning in Arabic lookup 0 subtable" uniFEE1 dx=100 dy=0 dh=100 dv=0 dx=0 dy=0 dh=0 dv=0
PairPos2: "'kern' Horizontal Kerning in Arabic lookup 0 subtable" lam.init dx=100 dy=0 dh=100 dv=0 dx=0 dy=0 dh=0 dv=0
PairPos2: "'kern' Horizontal Kerning in Arabic lookup 0 subtable" uniFEDD dx=100 dy=0 dh=100 dv=0 dx=0 dy=0 dh=0 dv=0
PairPos2: "'kern' Horizontal Kerning in Arabic lookup 0 subtable" uniFEDB dx=75 dy=0 dh=75 dv=0 dx=0 dy=0 dh=0 dv=0
PairPos2: "'kern' Horizontal Kerning in Arabic lookup 0 subtable" uniFED9 dx=100 dy=0 dh=100 dv=0 dx=0 dy=0 dh=0 dv=0
PairPos2: "'kern' Horizontal Kerning in Arabic lookup 0 subtable" qaf.init dx=100 dy=0 dh=100 dv=0 dx=0 dy=0 dh=0 dv=0
PairPos2: "'kern' Horizontal Kerning in Arabic lookup 0 subtable" fe.init dx=100 dy=0 dh=100 dv=0 dx=0 dy=0 dh=0 dv=0
PairPos2: "'kern' Horizontal Kerning in Arabic lookup 0 subtable" uniFED1 dx=100 dy=0 dh=100 dv=0 dx=0 dy=0 dh=0 dv=0
PairPos2: "'kern' Horizontal Kerning in Arabic lookup 0 subtable" qein.init dx=100 dy=0 dh=100 dv=0 dx=0 dy=0 dh=0 dv=0
PairPos2: "'kern' Horizontal Kerning in Arabic lookup 0 subtable" uniFECD dx=100 dy=0 dh=100 dv=0 dx=0 dy=0 dh=0 dv=0
PairPos2: "'kern' Horizontal Kerning in Arabic lookup 0 subtable" ein.init dx=100 dy=0 dh=100 dv=0 dx=0 dy=0 dh=0 dv=0
PairPos2: "'kern' Horizontal Kerning in Arabic lookup 0 subtable" uniFEC9 dx=100 dy=0 dh=100 dv=0 dx=0 dy=0 dh=0 dv=0
PairPos2: "'kern' Horizontal Kerning in Arabic lookup 0 subtable" za.init dx=100 dy=0 dh=100 dv=0 dx=0 dy=0 dh=0 dv=0
PairPos2: "'kern' Horizontal Kerning in Arabic lookup 0 subtable" uniFEC5 dx=100 dy=0 dh=100 dv=0 dx=0 dy=0 dh=0 dv=0
PairPos2: "'kern' Horizontal Kerning in Arabic lookup 0 subtable" ta.init dx=100 dy=0 dh=100 dv=0 dx=0 dy=0 dh=0 dv=0
PairPos2: "'kern' Horizontal Kerning in Arabic lookup 0 subtable" uniFEC1 dx=100 dy=0 dh=100 dv=0 dx=0 dy=0 dh=0 dv=0
PairPos2: "'kern' Horizontal Kerning in Arabic lookup 0 subtable" zad.init dx=100 dy=0 dh=100 dv=0 dx=0 dy=0 dh=0 dv=0
PairPos2: "'kern' Horizontal Kerning in Arabic lookup 0 subtable" uniFEBD dx=100 dy=0 dh=100 dv=0 dx=0 dy=0 dh=0 dv=0
PairPos2: "'kern' Horizontal Kerning in Arabic lookup 0 subtable" sad.init dx=100 dy=0 dh=100 dv=0 dx=0 dy=0 dh=0 dv=0
PairPos2: "'kern' Horizontal Kerning in Arabic lookup 0 subtable" uniFEB9 dx=100 dy=0 dh=100 dv=0 dx=0 dy=0 dh=0 dv=0
PairPos2: "'kern' Horizontal Kerning in Arabic lookup 0 subtable" shin.init dx=100 dy=0 dh=100 dv=0 dx=0 dy=0 dh=0 dv=0
PairPos2: "'kern' Horizontal Kerning in Arabic lookup 0 subtable" uniFEB5 dx=100 dy=0 dh=100 dv=0 dx=0 dy=0 dh=0 dv=0
PairPos2: "'kern' Horizontal Kerning in Arabic lookup 0 subtable" sin.init dx=100 dy=0 dh=100 dv=0 dx=0 dy=0 dh=0 dv=0
PairPos2: "'kern' Horizontal Kerning in Arabic lookup 0 subtable" uniFEB1 dx=100 dy=0 dh=100 dv=0 dx=0 dy=0 dh=0 dv=0
PairPos2: "'kern' Horizontal Kerning in Arabic lookup 0 subtable" uniFEAF dx=100 dy=0 dh=100 dv=0 dx=0 dy=0 dh=0 dv=0
PairPos2: "'kern' Horizontal Kerning in Arabic lookup 0 subtable" uniFEAD dx=100 dy=0 dh=100 dv=0 dx=0 dy=0 dh=0 dv=0
PairPos2: "'kern' Horizontal Kerning in Arabic lookup 0 subtable" uniFEAB dx=100 dy=0 dh=100 dv=0 dx=0 dy=0 dh=0 dv=0
PairPos2: "'kern' Horizontal Kerning in Arabic lookup 0 subtable" uniFEA9 dx=100 dy=0 dh=100 dv=0 dx=0 dy=0 dh=0 dv=0
PairPos2: "'kern' Horizontal Kerning in Arabic lookup 0 subtable" khe.init dx=100 dy=0 dh=100 dv=0 dx=0 dy=0 dh=0 dv=0
PairPos2: "'kern' Horizontal Kerning in Arabic lookup 0 subtable" uniFEA5 dx=100 dy=0 dh=100 dv=0 dx=0 dy=0 dh=0 dv=0
PairPos2: "'kern' Horizontal Kerning in Arabic lookup 0 subtable" him.init dx=100 dy=0 dh=100 dv=0 dx=0 dy=0 dh=0 dv=0
PairPos2: "'kern' Horizontal Kerning in Arabic lookup 0 subtable" uniFEA1 dx=100 dy=0 dh=100 dv=0 dx=0 dy=0 dh=0 dv=0
PairPos2: "'kern' Horizontal Kerning in Arabic lookup 0 subtable" jim.init dx=100 dy=0 dh=100 dv=0 dx=0 dy=0 dh=0 dv=0
PairPos2: "'kern' Horizontal Kerning in Arabic lookup 0 subtable" uniFE9D dx=100 dy=0 dh=100 dv=0 dx=0 dy=0 dh=0 dv=0
PairPos2: "'kern' Horizontal Kerning in Arabic lookup 0 subtable" the.init dx=100 dy=0 dh=100 dv=0 dx=0 dy=0 dh=0 dv=0
PairPos2: "'kern' Horizontal Kerning in Arabic lookup 0 subtable" te.init dx=100 dy=0 dh=100 dv=0 dx=0 dy=0 dh=0 dv=0
PairPos2: "'kern' Horizontal Kerning in Arabic lookup 0 subtable" uniFE95 dx=100 dy=0 dh=100 dv=0 dx=0 dy=0 dh=0 dv=0
PairPos2: "'kern' Horizontal Kerning in Arabic lookup 0 subtable" uniFE93 dx=100 dy=0 dh=100 dv=0 dx=0 dy=0 dh=0 dv=0
PairPos2: "'kern' Horizontal Kerning in Arabic lookup 0 subtable" ye.hamze.init dx=100 dy=0 dh=100 dv=0 dx=0 dy=0 dh=0 dv=0
PairPos2: "'kern' Horizontal Kerning in Arabic lookup 0 subtable" uniFE83 dx=100 dy=0 dh=100 dv=0 dx=0 dy=0 dh=0 dv=0
PairPos2: "'kern' Horizontal Kerning in Arabic lookup 0 subtable" uniFE81 dx=100 dy=0 dh=100 dv=0 dx=0 dy=0 dh=0 dv=0
PairPos2: "'kern' Horizontal Kerning in Arabic lookup 0 subtable" uniFE80 dx=100 dy=0 dh=100 dv=0 dx=0 dy=0 dh=0 dv=0
PairPos2: "'kern' Horizontal Kerning in Arabic lookup 0 subtable" uniFD3D dx=100 dy=0 dh=100 dv=0 dx=0 dy=0 dh=0 dv=0
PairPos2: "'kern' Horizontal Kerning in Arabic lookup 0 subtable" uniFBE8 dx=100 dy=0 dh=100 dv=0 dx=0 dy=0 dh=0 dv=0
PairPos2: "'kern' Horizontal Kerning in Arabic lookup 0 subtable" heye dx=100 dy=0 dh=100 dv=0 dx=0 dy=0 dh=0 dv=0
PairPos2: "'kern' Horizontal Kerning in Arabic lookup 0 subtable" kaf.init dx=75 dy=0 dh=75 dv=0 dx=0 dy=0 dh=0 dv=0
PairPos2: "'kern' Horizontal Kerning in Arabic lookup 0 subtable" uniFB8E dx=75 dy=0 dh=75 dv=0 dx=0 dy=0 dh=0 dv=0
PairPos2: "'kern' Horizontal Kerning in Arabic lookup 0 subtable" uniFB8A dx=100 dy=0 dh=100 dv=0 dx=0 dy=0 dh=0 dv=0
PairPos2: "'kern' Horizontal Kerning in Arabic lookup 0 subtable" che.init dx=100 dy=0 dh=100 dv=0 dx=0 dy=0 dh=0 dv=0
PairPos2: "'kern' Horizontal Kerning in Arabic lookup 0 subtable" uniFB7A dx=100 dy=0 dh=100 dv=0 dx=0 dy=0 dh=0 dv=0
PairPos2: "'kern' Horizontal Kerning in Arabic lookup 0 subtable" uniFB56 dx=100 dy=0 dh=100 dv=0 dx=0 dy=0 dh=0 dv=0
PairPos2: "'kern' Horizontal Kerning in Arabic lookup 0 subtable" uniFB50 dx=100 dy=0 dh=100 dv=0 dx=0 dy=0 dh=0 dv=0
PairPos2: "'kern' Horizontal Kerning in Arabic lookup 0 subtable" gaf.init dx=75 dy=0 dh=75 dv=0 dx=0 dy=0 dh=0 dv=0
PairPos2: "'kern' Horizontal Kerning in Arabic lookup 0 subtable" uniFB92 dx=75 dy=0 dh=75 dv=0 dx=0 dy=0 dh=0 dv=0
PairPos2: "'kern' Horizontal Kerning in Arabic lookup 0 subtable" uniFEFB dx=100 dy=0 dh=100 dv=0 dx=0 dy=0 dh=0 dv=0
PairPos2: "'kern' Horizontal Kerning in Arabic lookup 0 subtable" uniFE8D dx=100 dy=0 dh=100 dv=0 dx=0 dy=0 dh=0 dv=0
LCarets2: 1 1318
EndChar

StartChar: sin_ye.farsi.fina
Encoding: 65637 -1 407
Width: 2532
VWidth: 1524
GlyphClass: 3
LigCaretCntFixed: 1
Flags: MW
AnchorPoint: "Anchor-3" 1559 -204 baselig 0
AnchorPoint: "Anchor-2" 1478 946 baselig 0
AnchorPoint: "Anchor-3" 328 -439 baselig 1
AnchorPoint: "Anchor-2" 398 722 baselig 1
LayerCount: 2
Back
Fore
SplineSet
468 -195 m 0,0,1
 664 -195 664 -195 793 -170.5 c 128,-1,2
 922 -146 922 -146 972 -130 c 0,3,4
 1084 -93 1084 -93 1084 -46 c 0,5,6
 1084 -22 1084 -22 1057 -6.5 c 128,-1,7
 1030 9 1030 9 920 39.5 c 128,-1,8
 810 70 810 70 771.5 111 c 128,-1,9
 733 152 733 152 733 217.5 c 128,-1,10
 733 283 733 283 752 322 c 0,11,12
 807 435 807 435 965 494 c 0,13,14
 1067 532 1067 532 1158 532 c 0,15,16
 1313 532 1313 532 1386 455 c 0,17,18
 1436 402 1436 402 1470.5 310.5 c 128,-1,19
 1505 219 1505 219 1529 196 c 0,20,21
 1577 150 1577 150 1647 150 c 128,-1,22
 1717 150 1717 150 1759.5 194 c 128,-1,23
 1802 238 1802 238 1802 278 c 2,24,-1
 1802 392 l 1,25,-1
 1919 392 l 1,26,-1
 1919 272 l 1,27,28
 1920 212 1920 212 1960.5 181 c 128,-1,29
 2001 150 2001 150 2058.5 150 c 128,-1,30
 2116 150 2116 150 2156 196 c 128,-1,31
 2196 242 2196 242 2197 282 c 1,32,-1
 2197 392 l 1,33,-1
 2314 392 l 1,34,-1
 2314 275 l 2,35,36
 2314 213 2314 213 2356 181.5 c 128,-1,37
 2398 150 2398 150 2449 150 c 2,38,-1
 2534 150 l 1,39,-1
 2534 0 l 1,40,-1
 2449 0 l 2,41,42
 2320 0 2320 0 2244 104 c 1,43,44
 2172 0 2172 0 2053 0 c 0,45,46
 1961 0 1961 0 1892 55 c 0,47,48
 1868 73 1868 73 1851 100 c 1,49,50
 1776 0 1776 0 1659 0 c 0,51,52
 1482 0 1482 0 1408 146 c 0,53,54
 1387 188 1387 188 1365 245 c 0,55,56
 1311 382 1311 382 1184.5 382 c 128,-1,57
 1058 382 1058 382 955 341 c 128,-1,58
 852 300 852 300 851 239 c 0,59,60
 852 222 852 222 868 214 c 0,61,62
 906 196 906 196 1015.5 165.5 c 128,-1,63
 1125 135 1125 135 1163 94 c 128,-1,64
 1201 53 1201 53 1201 -46 c 0,65,66
 1200 -209 1200 -209 810 -304 c 0,67,68
 642 -345 642 -345 463.5 -345 c 128,-1,69
 285 -345 285 -345 190 -268 c 128,-1,70
 95 -191 95 -191 95 -37.5 c 128,-1,71
 95 116 95 116 222 337 c 1,72,-1
 319 290 l 1,73,74
 304 262 304 262 284 227 c 0,75,76
 212 97 212 97 212 -49 c 128,-1,77
 212 -195 212 -195 468 -195 c 0,0,1
EndSplineSet
Validated: 1
Ligature2: "'liga' Standard Ligatures in Arabic lookup 7 subtable" sin.medi uniFEF0
Ligature2: "'liga' Standard Ligatures in Arabic lookup 7 subtable" sin.medi ye.fina.farsiina
PairPos2: "'kern' Horizontal Kerning in Arabic lookup 0 subtable" gaf_ye.farsi.isol dx=75 dy=0 dh=75 dv=0 dx=0 dy=0 dh=0 dv=0
PairPos2: "'kern' Horizontal Kerning in Arabic lookup 0 subtable" kaf.farsi_ye.farsi.isol dx=75 dy=0 dh=75 dv=0 dx=0 dy=0 dh=0 dv=0
PairPos2: "'kern' Horizontal Kerning in Arabic lookup 0 subtable" uniFB6C dx=100 dy=0 dh=100 dv=0 dx=0 dy=0 dh=0 dv=0
PairPos2: "'kern' Horizontal Kerning in Arabic lookup 0 subtable" uniFB6A dx=100 dy=0 dh=100 dv=0 dx=0 dy=0 dh=0 dv=0
PairPos2: "'kern' Horizontal Kerning in Arabic lookup 0 subtable" lam_ye.farsi.isol dx=100 dy=0 dh=100 dv=0 dx=0 dy=0 dh=0 dv=0
PairPos2: "'kern' Horizontal Kerning in Arabic lookup 0 subtable" mim_ye.farsi.isol dx=100 dy=0 dh=100 dv=0 dx=0 dy=0 dh=0 dv=0
PairPos2: "'kern' Horizontal Kerning in Arabic lookup 0 subtable" zad_ye.farsi.isol dx=100 dy=0 dh=100 dv=0 dx=0 dy=0 dh=0 dv=0
PairPos2: "'kern' Horizontal Kerning in Arabic lookup 0 subtable" shin_ye.farsi.isol dx=100 dy=0 dh=100 dv=0 dx=0 dy=0 dh=0 dv=0
PairPos2: "'kern' Horizontal Kerning in Arabic lookup 0 subtable" sad_ye.farsi.isol dx=100 dy=0 dh=100 dv=0 dx=0 dy=0 dh=0 dv=0
PairPos2: "'kern' Horizontal Kerning in Arabic lookup 0 subtable" sin_ye.farsi.isol dx=100 dy=0 dh=100 dv=0 dx=0 dy=0 dh=0 dv=0
PairPos2: "'kern' Horizontal Kerning in Arabic lookup 0 subtable" uniFEFB_earab.tanvin_fatheh dx=100 dy=0 dh=100 dv=0 dx=0 dy=0 dh=0 dv=0
PairPos2: "'kern' Horizontal Kerning in Arabic lookup 0 subtable" uniFEF7 dx=100 dy=0 dh=100 dv=0 dx=0 dy=0 dh=0 dv=0
PairPos2: "'kern' Horizontal Kerning in Arabic lookup 0 subtable" uniFEF5 dx=100 dy=0 dh=100 dv=0 dx=0 dy=0 dh=0 dv=0
PairPos2: "'kern' Horizontal Kerning in Arabic lookup 0 subtable" uniFEED dx=100 dy=0 dh=100 dv=0 dx=0 dy=0 dh=0 dv=0
PairPos2: "'kern' Horizontal Kerning in Arabic lookup 0 subtable" he8_uni0654.init dx=100 dy=0 dh=100 dv=0 dx=0 dy=0 dh=0 dv=0
PairPos2: "'kern' Horizontal Kerning in Arabic lookup 0 subtable" he8_uni0654.isol dx=100 dy=0 dh=100 dv=0 dx=0 dy=0 dh=0 dv=0
PairPos2: "'kern' Horizontal Kerning in Arabic lookup 0 subtable" he8.init dx=100 dy=0 dh=100 dv=0 dx=0 dy=0 dh=0 dv=0
PairPos2: "'kern' Horizontal Kerning in Arabic lookup 0 subtable" uniFEE9 dx=100 dy=0 dh=100 dv=0 dx=0 dy=0 dh=0 dv=0
PairPos2: "'kern' Horizontal Kerning in Arabic lookup 0 subtable" nun.init dx=100 dy=0 dh=100 dv=0 dx=0 dy=0 dh=0 dv=0
PairPos2: "'kern' Horizontal Kerning in Arabic lookup 0 subtable" mim.init dx=100 dy=0 dh=100 dv=0 dx=0 dy=0 dh=0 dv=0
PairPos2: "'kern' Horizontal Kerning in Arabic lookup 0 subtable" uniFEE1 dx=100 dy=0 dh=100 dv=0 dx=0 dy=0 dh=0 dv=0
PairPos2: "'kern' Horizontal Kerning in Arabic lookup 0 subtable" lam.init dx=100 dy=0 dh=100 dv=0 dx=0 dy=0 dh=0 dv=0
PairPos2: "'kern' Horizontal Kerning in Arabic lookup 0 subtable" uniFEDD dx=100 dy=0 dh=100 dv=0 dx=0 dy=0 dh=0 dv=0
PairPos2: "'kern' Horizontal Kerning in Arabic lookup 0 subtable" uniFEDB dx=75 dy=0 dh=75 dv=0 dx=0 dy=0 dh=0 dv=0
PairPos2: "'kern' Horizontal Kerning in Arabic lookup 0 subtable" uniFED9 dx=100 dy=0 dh=100 dv=0 dx=0 dy=0 dh=0 dv=0
PairPos2: "'kern' Horizontal Kerning in Arabic lookup 0 subtable" qaf.init dx=100 dy=0 dh=100 dv=0 dx=0 dy=0 dh=0 dv=0
PairPos2: "'kern' Horizontal Kerning in Arabic lookup 0 subtable" fe.init dx=100 dy=0 dh=100 dv=0 dx=0 dy=0 dh=0 dv=0
PairPos2: "'kern' Horizontal Kerning in Arabic lookup 0 subtable" uniFED1 dx=100 dy=0 dh=100 dv=0 dx=0 dy=0 dh=0 dv=0
PairPos2: "'kern' Horizontal Kerning in Arabic lookup 0 subtable" qein.init dx=100 dy=0 dh=100 dv=0 dx=0 dy=0 dh=0 dv=0
PairPos2: "'kern' Horizontal Kerning in Arabic lookup 0 subtable" uniFECD dx=100 dy=0 dh=100 dv=0 dx=0 dy=0 dh=0 dv=0
PairPos2: "'kern' Horizontal Kerning in Arabic lookup 0 subtable" ein.init dx=100 dy=0 dh=100 dv=0 dx=0 dy=0 dh=0 dv=0
PairPos2: "'kern' Horizontal Kerning in Arabic lookup 0 subtable" uniFEC9 dx=100 dy=0 dh=100 dv=0 dx=0 dy=0 dh=0 dv=0
PairPos2: "'kern' Horizontal Kerning in Arabic lookup 0 subtable" za.init dx=100 dy=0 dh=100 dv=0 dx=0 dy=0 dh=0 dv=0
PairPos2: "'kern' Horizontal Kerning in Arabic lookup 0 subtable" uniFEC5 dx=100 dy=0 dh=100 dv=0 dx=0 dy=0 dh=0 dv=0
PairPos2: "'kern' Horizontal Kerning in Arabic lookup 0 subtable" ta.init dx=100 dy=0 dh=100 dv=0 dx=0 dy=0 dh=0 dv=0
PairPos2: "'kern' Horizontal Kerning in Arabic lookup 0 subtable" uniFEC1 dx=100 dy=0 dh=100 dv=0 dx=0 dy=0 dh=0 dv=0
PairPos2: "'kern' Horizontal Kerning in Arabic lookup 0 subtable" zad.init dx=100 dy=0 dh=100 dv=0 dx=0 dy=0 dh=0 dv=0
PairPos2: "'kern' Horizontal Kerning in Arabic lookup 0 subtable" uniFEBD dx=100 dy=0 dh=100 dv=0 dx=0 dy=0 dh=0 dv=0
PairPos2: "'kern' Horizontal Kerning in Arabic lookup 0 subtable" sad.init dx=100 dy=0 dh=100 dv=0 dx=0 dy=0 dh=0 dv=0
PairPos2: "'kern' Horizontal Kerning in Arabic lookup 0 subtable" uniFEB9 dx=100 dy=0 dh=100 dv=0 dx=0 dy=0 dh=0 dv=0
PairPos2: "'kern' Horizontal Kerning in Arabic lookup 0 subtable" shin.init dx=100 dy=0 dh=100 dv=0 dx=0 dy=0 dh=0 dv=0
PairPos2: "'kern' Horizontal Kerning in Arabic lookup 0 subtable" uniFEB5 dx=100 dy=0 dh=100 dv=0 dx=0 dy=0 dh=0 dv=0
PairPos2: "'kern' Horizontal Kerning in Arabic lookup 0 subtable" sin.init dx=100 dy=0 dh=100 dv=0 dx=0 dy=0 dh=0 dv=0
PairPos2: "'kern' Horizontal Kerning in Arabic lookup 0 subtable" uniFEB1 dx=100 dy=0 dh=100 dv=0 dx=0 dy=0 dh=0 dv=0
PairPos2: "'kern' Horizontal Kerning in Arabic lookup 0 subtable" uniFEAF dx=100 dy=0 dh=100 dv=0 dx=0 dy=0 dh=0 dv=0
PairPos2: "'kern' Horizontal Kerning in Arabic lookup 0 subtable" uniFEAD dx=100 dy=0 dh=100 dv=0 dx=0 dy=0 dh=0 dv=0
PairPos2: "'kern' Horizontal Kerning in Arabic lookup 0 subtable" uniFEAB dx=100 dy=0 dh=100 dv=0 dx=0 dy=0 dh=0 dv=0
PairPos2: "'kern' Horizontal Kerning in Arabic lookup 0 subtable" uniFEA9 dx=100 dy=0 dh=100 dv=0 dx=0 dy=0 dh=0 dv=0
PairPos2: "'kern' Horizontal Kerning in Arabic lookup 0 subtable" khe.init dx=100 dy=0 dh=100 dv=0 dx=0 dy=0 dh=0 dv=0
PairPos2: "'kern' Horizontal Kerning in Arabic lookup 0 subtable" uniFEA5 dx=100 dy=0 dh=100 dv=0 dx=0 dy=0 dh=0 dv=0
PairPos2: "'kern' Horizontal Kerning in Arabic lookup 0 subtable" him.init dx=100 dy=0 dh=100 dv=0 dx=0 dy=0 dh=0 dv=0
PairPos2: "'kern' Horizontal Kerning in Arabic lookup 0 subtable" uniFEA1 dx=100 dy=0 dh=100 dv=0 dx=0 dy=0 dh=0 dv=0
PairPos2: "'kern' Horizontal Kerning in Arabic lookup 0 subtable" jim.init dx=100 dy=0 dh=100 dv=0 dx=0 dy=0 dh=0 dv=0
PairPos2: "'kern' Horizontal Kerning in Arabic lookup 0 subtable" uniFE9D dx=100 dy=0 dh=100 dv=0 dx=0 dy=0 dh=0 dv=0
PairPos2: "'kern' Horizontal Kerning in Arabic lookup 0 subtable" the.init dx=100 dy=0 dh=100 dv=0 dx=0 dy=0 dh=0 dv=0
PairPos2: "'kern' Horizontal Kerning in Arabic lookup 0 subtable" te.init dx=100 dy=0 dh=100 dv=0 dx=0 dy=0 dh=0 dv=0
PairPos2: "'kern' Horizontal Kerning in Arabic lookup 0 subtable" uniFE95 dx=100 dy=0 dh=100 dv=0 dx=0 dy=0 dh=0 dv=0
PairPos2: "'kern' Horizontal Kerning in Arabic lookup 0 subtable" uniFE93 dx=100 dy=0 dh=100 dv=0 dx=0 dy=0 dh=0 dv=0
PairPos2: "'kern' Horizontal Kerning in Arabic lookup 0 subtable" ye.hamze.init dx=100 dy=0 dh=100 dv=0 dx=0 dy=0 dh=0 dv=0
PairPos2: "'kern' Horizontal Kerning in Arabic lookup 0 subtable" uniFE83 dx=100 dy=0 dh=100 dv=0 dx=0 dy=0 dh=0 dv=0
PairPos2: "'kern' Horizontal Kerning in Arabic lookup 0 subtable" uniFE81 dx=100 dy=0 dh=100 dv=0 dx=0 dy=0 dh=0 dv=0
PairPos2: "'kern' Horizontal Kerning in Arabic lookup 0 subtable" uniFE80 dx=100 dy=0 dh=100 dv=0 dx=0 dy=0 dh=0 dv=0
PairPos2: "'kern' Horizontal Kerning in Arabic lookup 0 subtable" uniFD3D dx=100 dy=0 dh=100 dv=0 dx=0 dy=0 dh=0 dv=0
PairPos2: "'kern' Horizontal Kerning in Arabic lookup 0 subtable" uniFBE8 dx=100 dy=0 dh=100 dv=0 dx=0 dy=0 dh=0 dv=0
PairPos2: "'kern' Horizontal Kerning in Arabic lookup 0 subtable" heye dx=100 dy=0 dh=100 dv=0 dx=0 dy=0 dh=0 dv=0
PairPos2: "'kern' Horizontal Kerning in Arabic lookup 0 subtable" kaf.init dx=75 dy=0 dh=75 dv=0 dx=0 dy=0 dh=0 dv=0
PairPos2: "'kern' Horizontal Kerning in Arabic lookup 0 subtable" uniFB8E dx=75 dy=0 dh=75 dv=0 dx=0 dy=0 dh=0 dv=0
PairPos2: "'kern' Horizontal Kerning in Arabic lookup 0 subtable" uniFB8A dx=100 dy=0 dh=100 dv=0 dx=0 dy=0 dh=0 dv=0
PairPos2: "'kern' Horizontal Kerning in Arabic lookup 0 subtable" che.init dx=100 dy=0 dh=100 dv=0 dx=0 dy=0 dh=0 dv=0
PairPos2: "'kern' Horizontal Kerning in Arabic lookup 0 subtable" uniFB7A dx=100 dy=0 dh=100 dv=0 dx=0 dy=0 dh=0 dv=0
PairPos2: "'kern' Horizontal Kerning in Arabic lookup 0 subtable" uniFB56 dx=100 dy=0 dh=100 dv=0 dx=0 dy=0 dh=0 dv=0
PairPos2: "'kern' Horizontal Kerning in Arabic lookup 0 subtable" uniFB50 dx=100 dy=0 dh=100 dv=0 dx=0 dy=0 dh=0 dv=0
PairPos2: "'kern' Horizontal Kerning in Arabic lookup 0 subtable" gaf.init dx=75 dy=0 dh=75 dv=0 dx=0 dy=0 dh=0 dv=0
PairPos2: "'kern' Horizontal Kerning in Arabic lookup 0 subtable" uniFB92 dx=75 dy=0 dh=75 dv=0 dx=0 dy=0 dh=0 dv=0
PairPos2: "'kern' Horizontal Kerning in Arabic lookup 0 subtable" uniFEFB dx=100 dy=0 dh=100 dv=0 dx=0 dy=0 dh=0 dv=0
PairPos2: "'kern' Horizontal Kerning in Arabic lookup 0 subtable" uniFE8D dx=100 dy=0 dh=100 dv=0 dx=0 dy=0 dh=0 dv=0
LCarets2: 1 1412
EndChar

StartChar: sad_ye.farsi.isol
Encoding: 65638 -1 408
Width: 2592
VWidth: 1524
GlyphClass: 3
LigCaretCntFixed: 1
Flags: MW
AnchorPoint: "Anchor-3" 1559 -204 baselig 0
AnchorPoint: "Anchor-2" 1478 946 baselig 0
AnchorPoint: "Anchor-3" 328 -439 baselig 1
AnchorPoint: "Anchor-2" 398 722 baselig 1
LayerCount: 2
Back
Fore
SplineSet
468 -195 m 0,0,1
 664 -195 664 -195 793 -170.5 c 128,-1,2
 922 -146 922 -146 972 -130 c 0,3,4
 1084 -93 1084 -93 1084 -46 c 0,5,6
 1084 -22 1084 -22 1057 -6.5 c 128,-1,7
 1030 9 1030 9 920 39.5 c 128,-1,8
 810 70 810 70 771.5 111 c 128,-1,9
 733 152 733 152 733 217.5 c 128,-1,10
 733 283 733 283 752 322 c 0,11,12
 807 435 807 435 965 494 c 0,13,14
 1067 532 1067 532 1158 532 c 0,15,16
 1313 532 1313 532 1386 455 c 0,17,18
 1436 402 1436 402 1483.5 278.5 c 128,-1,19
 1531 155 1531 155 1661 152 c 1,20,21
 1886 452 1886 452 2035 553 c 0,22,23
 2151 632 2151 632 2233.5 632 c 0,24,25
 2316 632 2316 632 2374 586 c 128,-1,26
 2432 540 2432 540 2465.5 473.5 c 128,-1,27
 2499 407 2499 407 2499 348 c 128,-1,28
 2499 289 2499 289 2465.5 225 c 128,-1,29
 2432 161 2432 161 2364 111 c 0,30,31
 2212 0 2212 0 1946 0 c 2,32,-1
 1684 0 l 2,33,34
 1496 0 1496 0 1411 146 c 0,35,36
 1387 188 1387 188 1365 245 c 0,37,38
 1311 382 1311 382 1184.5 382 c 128,-1,39
 1058 382 1058 382 955 341 c 128,-1,40
 852 300 852 300 851 239 c 0,41,42
 852 222 852 222 868 214 c 0,43,44
 906 196 906 196 1015.5 165.5 c 128,-1,45
 1125 135 1125 135 1163 94 c 128,-1,46
 1201 53 1201 53 1201 -46 c 0,47,48
 1200 -209 1200 -209 810 -304 c 0,49,50
 642 -345 642 -345 463.5 -345 c 128,-1,51
 285 -345 285 -345 190 -268 c 128,-1,52
 95 -191 95 -191 95 -37.5 c 128,-1,53
 95 116 95 116 222 337 c 1,54,-1
 319 290 l 1,55,56
 304 262 304 262 284 227 c 0,57,58
 212 97 212 97 212 -49 c 128,-1,59
 212 -195 212 -195 468 -195 c 0,0,1
1946 150 m 2,60,61
 2156 150 2156 150 2269 210 c 128,-1,62
 2382 270 2382 270 2382 352 c 0,63,64
 2382 392 2382 392 2356 423 c 0,65,66
 2304 482 2304 482 2257.5 482 c 128,-1,67
 2211 482 2211 482 2157.5 462 c 128,-1,68
 2104 442 2104 442 2047.5 393 c 128,-1,69
 1991 344 1991 344 1946 298.5 c 128,-1,70
 1901 253 1901 253 1820 150 c 1,71,-1
 1946 150 l 2,60,61
EndSplineSet
Validated: 1
Ligature2: "'liga' Standard Ligatures in Arabic lookup 7 subtable" sad.init ye.fina.farsiina
PairPos2: "'kern' Horizontal Kerning in Arabic lookup 0 subtable" gaf_ye.farsi.isol dx=75 dy=0 dh=75 dv=0 dx=0 dy=0 dh=0 dv=0
PairPos2: "'kern' Horizontal Kerning in Arabic lookup 0 subtable" kaf.farsi_ye.farsi.isol dx=75 dy=0 dh=75 dv=0 dx=0 dy=0 dh=0 dv=0
PairPos2: "'kern' Horizontal Kerning in Arabic lookup 0 subtable" uniFB6C dx=100 dy=0 dh=100 dv=0 dx=0 dy=0 dh=0 dv=0
PairPos2: "'kern' Horizontal Kerning in Arabic lookup 0 subtable" uniFB6A dx=100 dy=0 dh=100 dv=0 dx=0 dy=0 dh=0 dv=0
PairPos2: "'kern' Horizontal Kerning in Arabic lookup 0 subtable" lam_ye.farsi.isol dx=100 dy=0 dh=100 dv=0 dx=0 dy=0 dh=0 dv=0
PairPos2: "'kern' Horizontal Kerning in Arabic lookup 0 subtable" mim_ye.farsi.isol dx=100 dy=0 dh=100 dv=0 dx=0 dy=0 dh=0 dv=0
PairPos2: "'kern' Horizontal Kerning in Arabic lookup 0 subtable" zad_ye.farsi.isol dx=100 dy=0 dh=100 dv=0 dx=0 dy=0 dh=0 dv=0
PairPos2: "'kern' Horizontal Kerning in Arabic lookup 0 subtable" shin_ye.farsi.isol dx=100 dy=0 dh=100 dv=0 dx=0 dy=0 dh=0 dv=0
PairPos2: "'kern' Horizontal Kerning in Arabic lookup 0 subtable" sad_ye.farsi.isol dx=100 dy=0 dh=100 dv=0 dx=0 dy=0 dh=0 dv=0
PairPos2: "'kern' Horizontal Kerning in Arabic lookup 0 subtable" sin_ye.farsi.isol dx=100 dy=0 dh=100 dv=0 dx=0 dy=0 dh=0 dv=0
PairPos2: "'kern' Horizontal Kerning in Arabic lookup 0 subtable" uniFEFB_earab.tanvin_fatheh dx=100 dy=0 dh=100 dv=0 dx=0 dy=0 dh=0 dv=0
PairPos2: "'kern' Horizontal Kerning in Arabic lookup 0 subtable" uniFEF7 dx=100 dy=0 dh=100 dv=0 dx=0 dy=0 dh=0 dv=0
PairPos2: "'kern' Horizontal Kerning in Arabic lookup 0 subtable" uniFEF5 dx=100 dy=0 dh=100 dv=0 dx=0 dy=0 dh=0 dv=0
PairPos2: "'kern' Horizontal Kerning in Arabic lookup 0 subtable" uniFEED dx=100 dy=0 dh=100 dv=0 dx=0 dy=0 dh=0 dv=0
PairPos2: "'kern' Horizontal Kerning in Arabic lookup 0 subtable" he8_uni0654.init dx=100 dy=0 dh=100 dv=0 dx=0 dy=0 dh=0 dv=0
PairPos2: "'kern' Horizontal Kerning in Arabic lookup 0 subtable" he8_uni0654.isol dx=100 dy=0 dh=100 dv=0 dx=0 dy=0 dh=0 dv=0
PairPos2: "'kern' Horizontal Kerning in Arabic lookup 0 subtable" he8.init dx=100 dy=0 dh=100 dv=0 dx=0 dy=0 dh=0 dv=0
PairPos2: "'kern' Horizontal Kerning in Arabic lookup 0 subtable" uniFEE9 dx=100 dy=0 dh=100 dv=0 dx=0 dy=0 dh=0 dv=0
PairPos2: "'kern' Horizontal Kerning in Arabic lookup 0 subtable" nun.init dx=100 dy=0 dh=100 dv=0 dx=0 dy=0 dh=0 dv=0
PairPos2: "'kern' Horizontal Kerning in Arabic lookup 0 subtable" mim.init dx=100 dy=0 dh=100 dv=0 dx=0 dy=0 dh=0 dv=0
PairPos2: "'kern' Horizontal Kerning in Arabic lookup 0 subtable" uniFEE1 dx=100 dy=0 dh=100 dv=0 dx=0 dy=0 dh=0 dv=0
PairPos2: "'kern' Horizontal Kerning in Arabic lookup 0 subtable" lam.init dx=100 dy=0 dh=100 dv=0 dx=0 dy=0 dh=0 dv=0
PairPos2: "'kern' Horizontal Kerning in Arabic lookup 0 subtable" uniFEDD dx=100 dy=0 dh=100 dv=0 dx=0 dy=0 dh=0 dv=0
PairPos2: "'kern' Horizontal Kerning in Arabic lookup 0 subtable" uniFEDB dx=75 dy=0 dh=75 dv=0 dx=0 dy=0 dh=0 dv=0
PairPos2: "'kern' Horizontal Kerning in Arabic lookup 0 subtable" uniFED9 dx=100 dy=0 dh=100 dv=0 dx=0 dy=0 dh=0 dv=0
PairPos2: "'kern' Horizontal Kerning in Arabic lookup 0 subtable" qaf.init dx=100 dy=0 dh=100 dv=0 dx=0 dy=0 dh=0 dv=0
PairPos2: "'kern' Horizontal Kerning in Arabic lookup 0 subtable" fe.init dx=100 dy=0 dh=100 dv=0 dx=0 dy=0 dh=0 dv=0
PairPos2: "'kern' Horizontal Kerning in Arabic lookup 0 subtable" uniFED1 dx=100 dy=0 dh=100 dv=0 dx=0 dy=0 dh=0 dv=0
PairPos2: "'kern' Horizontal Kerning in Arabic lookup 0 subtable" qein.init dx=100 dy=0 dh=100 dv=0 dx=0 dy=0 dh=0 dv=0
PairPos2: "'kern' Horizontal Kerning in Arabic lookup 0 subtable" uniFECD dx=100 dy=0 dh=100 dv=0 dx=0 dy=0 dh=0 dv=0
PairPos2: "'kern' Horizontal Kerning in Arabic lookup 0 subtable" ein.init dx=100 dy=0 dh=100 dv=0 dx=0 dy=0 dh=0 dv=0
PairPos2: "'kern' Horizontal Kerning in Arabic lookup 0 subtable" uniFEC9 dx=100 dy=0 dh=100 dv=0 dx=0 dy=0 dh=0 dv=0
PairPos2: "'kern' Horizontal Kerning in Arabic lookup 0 subtable" za.init dx=100 dy=0 dh=100 dv=0 dx=0 dy=0 dh=0 dv=0
PairPos2: "'kern' Horizontal Kerning in Arabic lookup 0 subtable" uniFEC5 dx=100 dy=0 dh=100 dv=0 dx=0 dy=0 dh=0 dv=0
PairPos2: "'kern' Horizontal Kerning in Arabic lookup 0 subtable" ta.init dx=100 dy=0 dh=100 dv=0 dx=0 dy=0 dh=0 dv=0
PairPos2: "'kern' Horizontal Kerning in Arabic lookup 0 subtable" uniFEC1 dx=100 dy=0 dh=100 dv=0 dx=0 dy=0 dh=0 dv=0
PairPos2: "'kern' Horizontal Kerning in Arabic lookup 0 subtable" zad.init dx=100 dy=0 dh=100 dv=0 dx=0 dy=0 dh=0 dv=0
PairPos2: "'kern' Horizontal Kerning in Arabic lookup 0 subtable" uniFEBD dx=100 dy=0 dh=100 dv=0 dx=0 dy=0 dh=0 dv=0
PairPos2: "'kern' Horizontal Kerning in Arabic lookup 0 subtable" sad.init dx=100 dy=0 dh=100 dv=0 dx=0 dy=0 dh=0 dv=0
PairPos2: "'kern' Horizontal Kerning in Arabic lookup 0 subtable" uniFEB9 dx=100 dy=0 dh=100 dv=0 dx=0 dy=0 dh=0 dv=0
PairPos2: "'kern' Horizontal Kerning in Arabic lookup 0 subtable" shin.init dx=100 dy=0 dh=100 dv=0 dx=0 dy=0 dh=0 dv=0
PairPos2: "'kern' Horizontal Kerning in Arabic lookup 0 subtable" uniFEB5 dx=100 dy=0 dh=100 dv=0 dx=0 dy=0 dh=0 dv=0
PairPos2: "'kern' Horizontal Kerning in Arabic lookup 0 subtable" sin.init dx=100 dy=0 dh=100 dv=0 dx=0 dy=0 dh=0 dv=0
PairPos2: "'kern' Horizontal Kerning in Arabic lookup 0 subtable" uniFEB1 dx=100 dy=0 dh=100 dv=0 dx=0 dy=0 dh=0 dv=0
PairPos2: "'kern' Horizontal Kerning in Arabic lookup 0 subtable" uniFEAF dx=100 dy=0 dh=100 dv=0 dx=0 dy=0 dh=0 dv=0
PairPos2: "'kern' Horizontal Kerning in Arabic lookup 0 subtable" uniFEAD dx=100 dy=0 dh=100 dv=0 dx=0 dy=0 dh=0 dv=0
PairPos2: "'kern' Horizontal Kerning in Arabic lookup 0 subtable" uniFEAB dx=100 dy=0 dh=100 dv=0 dx=0 dy=0 dh=0 dv=0
PairPos2: "'kern' Horizontal Kerning in Arabic lookup 0 subtable" uniFEA9 dx=100 dy=0 dh=100 dv=0 dx=0 dy=0 dh=0 dv=0
PairPos2: "'kern' Horizontal Kerning in Arabic lookup 0 subtable" khe.init dx=100 dy=0 dh=100 dv=0 dx=0 dy=0 dh=0 dv=0
PairPos2: "'kern' Horizontal Kerning in Arabic lookup 0 subtable" uniFEA5 dx=100 dy=0 dh=100 dv=0 dx=0 dy=0 dh=0 dv=0
PairPos2: "'kern' Horizontal Kerning in Arabic lookup 0 subtable" him.init dx=100 dy=0 dh=100 dv=0 dx=0 dy=0 dh=0 dv=0
PairPos2: "'kern' Horizontal Kerning in Arabic lookup 0 subtable" uniFEA1 dx=100 dy=0 dh=100 dv=0 dx=0 dy=0 dh=0 dv=0
PairPos2: "'kern' Horizontal Kerning in Arabic lookup 0 subtable" jim.init dx=100 dy=0 dh=100 dv=0 dx=0 dy=0 dh=0 dv=0
PairPos2: "'kern' Horizontal Kerning in Arabic lookup 0 subtable" uniFE9D dx=100 dy=0 dh=100 dv=0 dx=0 dy=0 dh=0 dv=0
PairPos2: "'kern' Horizontal Kerning in Arabic lookup 0 subtable" the.init dx=100 dy=0 dh=100 dv=0 dx=0 dy=0 dh=0 dv=0
PairPos2: "'kern' Horizontal Kerning in Arabic lookup 0 subtable" te.init dx=100 dy=0 dh=100 dv=0 dx=0 dy=0 dh=0 dv=0
PairPos2: "'kern' Horizontal Kerning in Arabic lookup 0 subtable" uniFE95 dx=100 dy=0 dh=100 dv=0 dx=0 dy=0 dh=0 dv=0
PairPos2: "'kern' Horizontal Kerning in Arabic lookup 0 subtable" uniFE93 dx=100 dy=0 dh=100 dv=0 dx=0 dy=0 dh=0 dv=0
PairPos2: "'kern' Horizontal Kerning in Arabic lookup 0 subtable" ye.hamze.init dx=100 dy=0 dh=100 dv=0 dx=0 dy=0 dh=0 dv=0
PairPos2: "'kern' Horizontal Kerning in Arabic lookup 0 subtable" uniFE83 dx=100 dy=0 dh=100 dv=0 dx=0 dy=0 dh=0 dv=0
PairPos2: "'kern' Horizontal Kerning in Arabic lookup 0 subtable" uniFE81 dx=100 dy=0 dh=100 dv=0 dx=0 dy=0 dh=0 dv=0
PairPos2: "'kern' Horizontal Kerning in Arabic lookup 0 subtable" uniFE80 dx=100 dy=0 dh=100 dv=0 dx=0 dy=0 dh=0 dv=0
PairPos2: "'kern' Horizontal Kerning in Arabic lookup 0 subtable" uniFD3D dx=100 dy=0 dh=100 dv=0 dx=0 dy=0 dh=0 dv=0
PairPos2: "'kern' Horizontal Kerning in Arabic lookup 0 subtable" uniFBE8 dx=100 dy=0 dh=100 dv=0 dx=0 dy=0 dh=0 dv=0
PairPos2: "'kern' Horizontal Kerning in Arabic lookup 0 subtable" heye dx=100 dy=0 dh=100 dv=0 dx=0 dy=0 dh=0 dv=0
PairPos2: "'kern' Horizontal Kerning in Arabic lookup 0 subtable" kaf.init dx=75 dy=0 dh=75 dv=0 dx=0 dy=0 dh=0 dv=0
PairPos2: "'kern' Horizontal Kerning in Arabic lookup 0 subtable" uniFB8E dx=75 dy=0 dh=75 dv=0 dx=0 dy=0 dh=0 dv=0
PairPos2: "'kern' Horizontal Kerning in Arabic lookup 0 subtable" uniFB8A dx=100 dy=0 dh=100 dv=0 dx=0 dy=0 dh=0 dv=0
PairPos2: "'kern' Horizontal Kerning in Arabic lookup 0 subtable" che.init dx=100 dy=0 dh=100 dv=0 dx=0 dy=0 dh=0 dv=0
PairPos2: "'kern' Horizontal Kerning in Arabic lookup 0 subtable" uniFB7A dx=100 dy=0 dh=100 dv=0 dx=0 dy=0 dh=0 dv=0
PairPos2: "'kern' Horizontal Kerning in Arabic lookup 0 subtable" uniFB56 dx=100 dy=0 dh=100 dv=0 dx=0 dy=0 dh=0 dv=0
PairPos2: "'kern' Horizontal Kerning in Arabic lookup 0 subtable" uniFB50 dx=100 dy=0 dh=100 dv=0 dx=0 dy=0 dh=0 dv=0
PairPos2: "'kern' Horizontal Kerning in Arabic lookup 0 subtable" gaf.init dx=75 dy=0 dh=75 dv=0 dx=0 dy=0 dh=0 dv=0
PairPos2: "'kern' Horizontal Kerning in Arabic lookup 0 subtable" uniFB92 dx=75 dy=0 dh=75 dv=0 dx=0 dy=0 dh=0 dv=0
PairPos2: "'kern' Horizontal Kerning in Arabic lookup 0 subtable" uniFEFB dx=100 dy=0 dh=100 dv=0 dx=0 dy=0 dh=0 dv=0
PairPos2: "'kern' Horizontal Kerning in Arabic lookup 0 subtable" uniFE8D dx=100 dy=0 dh=100 dv=0 dx=0 dy=0 dh=0 dv=0
LCarets2: 1 1481
EndChar

StartChar: sad_ye.farsi.fina
Encoding: 65639 -1 409
Width: 2633
VWidth: 1524
GlyphClass: 3
LigCaretCntFixed: 1
Flags: MW
AnchorPoint: "Anchor-3" 1559 -204 baselig 0
AnchorPoint: "Anchor-2" 1478 946 baselig 0
AnchorPoint: "Anchor-3" 328 -439 baselig 1
AnchorPoint: "Anchor-2" 398 722 baselig 1
LayerCount: 2
Back
Fore
SplineSet
1921 146 m 2,0,1
 2133 146 2133 146 2245.5 205.5 c 128,-1,2
 2358 265 2358 265 2358 347 c 0,3,4
 2358 387 2358 387 2332 418 c 0,5,6
 2280 477 2280 477 2234 477 c 0,7,8
 2158 477 2158 477 2063.5 419 c 128,-1,9
 1969 361 1969 361 1796 146 c 1,10,-1
 1921 146 l 2,0,1
2400 160 m 1,11,12
 2441 150 2441 150 2636 150 c 1,13,-1
 2636 0 l 1,14,15
 2419 0 2419 0 2357.5 18 c 128,-1,16
 2296 36 2296 36 2247 55 c 1,17,18
 2099 -6 2099 -6 1921 -6 c 2,19,-1
 1659 -6 l 2,20,21
 1483 -6 1483 -6 1408 146 c 0,22,23
 1387 188 1387 188 1365 245 c 0,24,25
 1311 382 1311 382 1184.5 382 c 128,-1,26
 1058 382 1058 382 955 341 c 128,-1,27
 852 300 852 300 851 239 c 0,28,29
 852 222 852 222 868 214 c 0,30,31
 906 196 906 196 1015.5 165.5 c 128,-1,32
 1125 135 1125 135 1163 94 c 128,-1,33
 1201 53 1201 53 1201 -46 c 0,34,35
 1200 -209 1200 -209 810 -304 c 0,36,37
 642 -345 642 -345 463.5 -345 c 128,-1,38
 285 -345 285 -345 190 -268 c 128,-1,39
 95 -191 95 -191 95 -37.5 c 128,-1,40
 95 116 95 116 222 337 c 1,41,-1
 319 290 l 1,42,43
 304 262 304 262 284 227 c 0,44,45
 212 97 212 97 212 -49 c 128,-1,46
 212 -195 212 -195 468 -195 c 0,47,48
 664 -195 664 -195 793 -170.5 c 128,-1,49
 922 -146 922 -146 972 -130 c 0,50,51
 1084 -93 1084 -93 1084 -46 c 0,52,53
 1084 -22 1084 -22 1057 -6.5 c 128,-1,54
 1030 9 1030 9 920 39.5 c 128,-1,55
 810 70 810 70 771.5 111 c 128,-1,56
 733 152 733 152 733 217.5 c 128,-1,57
 733 283 733 283 752 322 c 0,58,59
 807 435 807 435 965 494 c 0,60,61
 1067 532 1067 532 1158 532 c 0,62,63
 1313 532 1313 532 1386 455 c 0,64,65
 1436 402 1436 402 1470.5 311 c 128,-1,66
 1505 220 1505 220 1526 198 c 0,67,68
 1569 151 1569 151 1637 148 c 1,69,70
 1859 444 1859 444 2011 548 c 0,71,72
 2126 628 2126 628 2225 628 c 0,73,74
 2362 628 2362 628 2444 463 c 0,75,76
 2474 402 2474 402 2475 347 c 0,77,78
 2475 252 2475 252 2400 160 c 1,11,12
EndSplineSet
Validated: 1
Ligature2: "'liga' Standard Ligatures in Arabic lookup 7 subtable" sad.medi ye.fina.farsiina
PairPos2: "'kern' Horizontal Kerning in Arabic lookup 0 subtable" gaf_ye.farsi.isol dx=75 dy=0 dh=75 dv=0 dx=0 dy=0 dh=0 dv=0
PairPos2: "'kern' Horizontal Kerning in Arabic lookup 0 subtable" kaf.farsi_ye.farsi.isol dx=75 dy=0 dh=75 dv=0 dx=0 dy=0 dh=0 dv=0
PairPos2: "'kern' Horizontal Kerning in Arabic lookup 0 subtable" uniFB6C dx=100 dy=0 dh=100 dv=0 dx=0 dy=0 dh=0 dv=0
PairPos2: "'kern' Horizontal Kerning in Arabic lookup 0 subtable" uniFB6A dx=100 dy=0 dh=100 dv=0 dx=0 dy=0 dh=0 dv=0
PairPos2: "'kern' Horizontal Kerning in Arabic lookup 0 subtable" lam_ye.farsi.isol dx=100 dy=0 dh=100 dv=0 dx=0 dy=0 dh=0 dv=0
PairPos2: "'kern' Horizontal Kerning in Arabic lookup 0 subtable" mim_ye.farsi.isol dx=100 dy=0 dh=100 dv=0 dx=0 dy=0 dh=0 dv=0
PairPos2: "'kern' Horizontal Kerning in Arabic lookup 0 subtable" zad_ye.farsi.isol dx=100 dy=0 dh=100 dv=0 dx=0 dy=0 dh=0 dv=0
PairPos2: "'kern' Horizontal Kerning in Arabic lookup 0 subtable" shin_ye.farsi.isol dx=100 dy=0 dh=100 dv=0 dx=0 dy=0 dh=0 dv=0
PairPos2: "'kern' Horizontal Kerning in Arabic lookup 0 subtable" sad_ye.farsi.isol dx=100 dy=0 dh=100 dv=0 dx=0 dy=0 dh=0 dv=0
PairPos2: "'kern' Horizontal Kerning in Arabic lookup 0 subtable" sin_ye.farsi.isol dx=100 dy=0 dh=100 dv=0 dx=0 dy=0 dh=0 dv=0
PairPos2: "'kern' Horizontal Kerning in Arabic lookup 0 subtable" uniFEFB_earab.tanvin_fatheh dx=100 dy=0 dh=100 dv=0 dx=0 dy=0 dh=0 dv=0
PairPos2: "'kern' Horizontal Kerning in Arabic lookup 0 subtable" uniFEF7 dx=100 dy=0 dh=100 dv=0 dx=0 dy=0 dh=0 dv=0
PairPos2: "'kern' Horizontal Kerning in Arabic lookup 0 subtable" uniFEF5 dx=100 dy=0 dh=100 dv=0 dx=0 dy=0 dh=0 dv=0
PairPos2: "'kern' Horizontal Kerning in Arabic lookup 0 subtable" uniFEED dx=100 dy=0 dh=100 dv=0 dx=0 dy=0 dh=0 dv=0
PairPos2: "'kern' Horizontal Kerning in Arabic lookup 0 subtable" he8_uni0654.init dx=100 dy=0 dh=100 dv=0 dx=0 dy=0 dh=0 dv=0
PairPos2: "'kern' Horizontal Kerning in Arabic lookup 0 subtable" he8_uni0654.isol dx=100 dy=0 dh=100 dv=0 dx=0 dy=0 dh=0 dv=0
PairPos2: "'kern' Horizontal Kerning in Arabic lookup 0 subtable" he8.init dx=100 dy=0 dh=100 dv=0 dx=0 dy=0 dh=0 dv=0
PairPos2: "'kern' Horizontal Kerning in Arabic lookup 0 subtable" uniFEE9 dx=100 dy=0 dh=100 dv=0 dx=0 dy=0 dh=0 dv=0
PairPos2: "'kern' Horizontal Kerning in Arabic lookup 0 subtable" nun.init dx=100 dy=0 dh=100 dv=0 dx=0 dy=0 dh=0 dv=0
PairPos2: "'kern' Horizontal Kerning in Arabic lookup 0 subtable" mim.init dx=100 dy=0 dh=100 dv=0 dx=0 dy=0 dh=0 dv=0
PairPos2: "'kern' Horizontal Kerning in Arabic lookup 0 subtable" uniFEE1 dx=100 dy=0 dh=100 dv=0 dx=0 dy=0 dh=0 dv=0
PairPos2: "'kern' Horizontal Kerning in Arabic lookup 0 subtable" lam.init dx=100 dy=0 dh=100 dv=0 dx=0 dy=0 dh=0 dv=0
PairPos2: "'kern' Horizontal Kerning in Arabic lookup 0 subtable" uniFEDD dx=100 dy=0 dh=100 dv=0 dx=0 dy=0 dh=0 dv=0
PairPos2: "'kern' Horizontal Kerning in Arabic lookup 0 subtable" uniFEDB dx=75 dy=0 dh=75 dv=0 dx=0 dy=0 dh=0 dv=0
PairPos2: "'kern' Horizontal Kerning in Arabic lookup 0 subtable" uniFED9 dx=100 dy=0 dh=100 dv=0 dx=0 dy=0 dh=0 dv=0
PairPos2: "'kern' Horizontal Kerning in Arabic lookup 0 subtable" qaf.init dx=100 dy=0 dh=100 dv=0 dx=0 dy=0 dh=0 dv=0
PairPos2: "'kern' Horizontal Kerning in Arabic lookup 0 subtable" fe.init dx=100 dy=0 dh=100 dv=0 dx=0 dy=0 dh=0 dv=0
PairPos2: "'kern' Horizontal Kerning in Arabic lookup 0 subtable" uniFED1 dx=100 dy=0 dh=100 dv=0 dx=0 dy=0 dh=0 dv=0
PairPos2: "'kern' Horizontal Kerning in Arabic lookup 0 subtable" qein.init dx=100 dy=0 dh=100 dv=0 dx=0 dy=0 dh=0 dv=0
PairPos2: "'kern' Horizontal Kerning in Arabic lookup 0 subtable" uniFECD dx=100 dy=0 dh=100 dv=0 dx=0 dy=0 dh=0 dv=0
PairPos2: "'kern' Horizontal Kerning in Arabic lookup 0 subtable" ein.init dx=100 dy=0 dh=100 dv=0 dx=0 dy=0 dh=0 dv=0
PairPos2: "'kern' Horizontal Kerning in Arabic lookup 0 subtable" uniFEC9 dx=100 dy=0 dh=100 dv=0 dx=0 dy=0 dh=0 dv=0
PairPos2: "'kern' Horizontal Kerning in Arabic lookup 0 subtable" za.init dx=100 dy=0 dh=100 dv=0 dx=0 dy=0 dh=0 dv=0
PairPos2: "'kern' Horizontal Kerning in Arabic lookup 0 subtable" uniFEC5 dx=100 dy=0 dh=100 dv=0 dx=0 dy=0 dh=0 dv=0
PairPos2: "'kern' Horizontal Kerning in Arabic lookup 0 subtable" ta.init dx=100 dy=0 dh=100 dv=0 dx=0 dy=0 dh=0 dv=0
PairPos2: "'kern' Horizontal Kerning in Arabic lookup 0 subtable" uniFEC1 dx=100 dy=0 dh=100 dv=0 dx=0 dy=0 dh=0 dv=0
PairPos2: "'kern' Horizontal Kerning in Arabic lookup 0 subtable" zad.init dx=100 dy=0 dh=100 dv=0 dx=0 dy=0 dh=0 dv=0
PairPos2: "'kern' Horizontal Kerning in Arabic lookup 0 subtable" uniFEBD dx=100 dy=0 dh=100 dv=0 dx=0 dy=0 dh=0 dv=0
PairPos2: "'kern' Horizontal Kerning in Arabic lookup 0 subtable" sad.init dx=100 dy=0 dh=100 dv=0 dx=0 dy=0 dh=0 dv=0
PairPos2: "'kern' Horizontal Kerning in Arabic lookup 0 subtable" uniFEB9 dx=100 dy=0 dh=100 dv=0 dx=0 dy=0 dh=0 dv=0
PairPos2: "'kern' Horizontal Kerning in Arabic lookup 0 subtable" shin.init dx=100 dy=0 dh=100 dv=0 dx=0 dy=0 dh=0 dv=0
PairPos2: "'kern' Horizontal Kerning in Arabic lookup 0 subtable" uniFEB5 dx=100 dy=0 dh=100 dv=0 dx=0 dy=0 dh=0 dv=0
PairPos2: "'kern' Horizontal Kerning in Arabic lookup 0 subtable" sin.init dx=100 dy=0 dh=100 dv=0 dx=0 dy=0 dh=0 dv=0
PairPos2: "'kern' Horizontal Kerning in Arabic lookup 0 subtable" uniFEB1 dx=100 dy=0 dh=100 dv=0 dx=0 dy=0 dh=0 dv=0
PairPos2: "'kern' Horizontal Kerning in Arabic lookup 0 subtable" uniFEAF dx=100 dy=0 dh=100 dv=0 dx=0 dy=0 dh=0 dv=0
PairPos2: "'kern' Horizontal Kerning in Arabic lookup 0 subtable" uniFEAD dx=100 dy=0 dh=100 dv=0 dx=0 dy=0 dh=0 dv=0
PairPos2: "'kern' Horizontal Kerning in Arabic lookup 0 subtable" uniFEAB dx=100 dy=0 dh=100 dv=0 dx=0 dy=0 dh=0 dv=0
PairPos2: "'kern' Horizontal Kerning in Arabic lookup 0 subtable" uniFEA9 dx=100 dy=0 dh=100 dv=0 dx=0 dy=0 dh=0 dv=0
PairPos2: "'kern' Horizontal Kerning in Arabic lookup 0 subtable" khe.init dx=100 dy=0 dh=100 dv=0 dx=0 dy=0 dh=0 dv=0
PairPos2: "'kern' Horizontal Kerning in Arabic lookup 0 subtable" uniFEA5 dx=100 dy=0 dh=100 dv=0 dx=0 dy=0 dh=0 dv=0
PairPos2: "'kern' Horizontal Kerning in Arabic lookup 0 subtable" him.init dx=100 dy=0 dh=100 dv=0 dx=0 dy=0 dh=0 dv=0
PairPos2: "'kern' Horizontal Kerning in Arabic lookup 0 subtable" uniFEA1 dx=100 dy=0 dh=100 dv=0 dx=0 dy=0 dh=0 dv=0
PairPos2: "'kern' Horizontal Kerning in Arabic lookup 0 subtable" jim.init dx=100 dy=0 dh=100 dv=0 dx=0 dy=0 dh=0 dv=0
PairPos2: "'kern' Horizontal Kerning in Arabic lookup 0 subtable" uniFE9D dx=100 dy=0 dh=100 dv=0 dx=0 dy=0 dh=0 dv=0
PairPos2: "'kern' Horizontal Kerning in Arabic lookup 0 subtable" the.init dx=100 dy=0 dh=100 dv=0 dx=0 dy=0 dh=0 dv=0
PairPos2: "'kern' Horizontal Kerning in Arabic lookup 0 subtable" te.init dx=100 dy=0 dh=100 dv=0 dx=0 dy=0 dh=0 dv=0
PairPos2: "'kern' Horizontal Kerning in Arabic lookup 0 subtable" uniFE95 dx=100 dy=0 dh=100 dv=0 dx=0 dy=0 dh=0 dv=0
PairPos2: "'kern' Horizontal Kerning in Arabic lookup 0 subtable" uniFE93 dx=100 dy=0 dh=100 dv=0 dx=0 dy=0 dh=0 dv=0
PairPos2: "'kern' Horizontal Kerning in Arabic lookup 0 subtable" ye.hamze.init dx=100 dy=0 dh=100 dv=0 dx=0 dy=0 dh=0 dv=0
PairPos2: "'kern' Horizontal Kerning in Arabic lookup 0 subtable" uniFE83 dx=100 dy=0 dh=100 dv=0 dx=0 dy=0 dh=0 dv=0
PairPos2: "'kern' Horizontal Kerning in Arabic lookup 0 subtable" uniFE81 dx=100 dy=0 dh=100 dv=0 dx=0 dy=0 dh=0 dv=0
PairPos2: "'kern' Horizontal Kerning in Arabic lookup 0 subtable" uniFE80 dx=100 dy=0 dh=100 dv=0 dx=0 dy=0 dh=0 dv=0
PairPos2: "'kern' Horizontal Kerning in Arabic lookup 0 subtable" uniFD3D dx=100 dy=0 dh=100 dv=0 dx=0 dy=0 dh=0 dv=0
PairPos2: "'kern' Horizontal Kerning in Arabic lookup 0 subtable" uniFBE8 dx=100 dy=0 dh=100 dv=0 dx=0 dy=0 dh=0 dv=0
PairPos2: "'kern' Horizontal Kerning in Arabic lookup 0 subtable" heye dx=100 dy=0 dh=100 dv=0 dx=0 dy=0 dh=0 dv=0
PairPos2: "'kern' Horizontal Kerning in Arabic lookup 0 subtable" kaf.init dx=75 dy=0 dh=75 dv=0 dx=0 dy=0 dh=0 dv=0
PairPos2: "'kern' Horizontal Kerning in Arabic lookup 0 subtable" uniFB8E dx=75 dy=0 dh=75 dv=0 dx=0 dy=0 dh=0 dv=0
PairPos2: "'kern' Horizontal Kerning in Arabic lookup 0 subtable" uniFB8A dx=100 dy=0 dh=100 dv=0 dx=0 dy=0 dh=0 dv=0
PairPos2: "'kern' Horizontal Kerning in Arabic lookup 0 subtable" che.init dx=100 dy=0 dh=100 dv=0 dx=0 dy=0 dh=0 dv=0
PairPos2: "'kern' Horizontal Kerning in Arabic lookup 0 subtable" uniFB7A dx=100 dy=0 dh=100 dv=0 dx=0 dy=0 dh=0 dv=0
PairPos2: "'kern' Horizontal Kerning in Arabic lookup 0 subtable" uniFB56 dx=100 dy=0 dh=100 dv=0 dx=0 dy=0 dh=0 dv=0
PairPos2: "'kern' Horizontal Kerning in Arabic lookup 0 subtable" uniFB50 dx=100 dy=0 dh=100 dv=0 dx=0 dy=0 dh=0 dv=0
PairPos2: "'kern' Horizontal Kerning in Arabic lookup 0 subtable" gaf.init dx=75 dy=0 dh=75 dv=0 dx=0 dy=0 dh=0 dv=0
PairPos2: "'kern' Horizontal Kerning in Arabic lookup 0 subtable" uniFB92 dx=75 dy=0 dh=75 dv=0 dx=0 dy=0 dh=0 dv=0
PairPos2: "'kern' Horizontal Kerning in Arabic lookup 0 subtable" uniFEFB dx=100 dy=0 dh=100 dv=0 dx=0 dy=0 dh=0 dv=0
PairPos2: "'kern' Horizontal Kerning in Arabic lookup 0 subtable" uniFE8D dx=100 dy=0 dh=100 dv=0 dx=0 dy=0 dh=0 dv=0
LCarets2: 1 1528
EndChar

